<svg width="48" height="47" viewBox="0 0 48 47" fill="none" xmlns="http://www.w3.org/2000/svg">
<path d="M46.5 29.1386C39.5518 31.9512 31.9568 33.5 24 33.5C16.0433 33.5 8.44824 31.9512 1.5 29.1386M34 11V6C34 3.23858 31.7614 1 29 1L19 1C16.2386 1 14 3.23858 14 6V11M24 26H24.025M6.5 46H41.5C44.2614 46 46.5 43.7614 46.5 41V16C46.5 13.2386 44.2614 11 41.5 11H6.5C3.73858 11 1.5 13.2386 1.5 16L1.5 41C1.5 43.7614 3.73858 46 6.5 46Z" stroke="white" stroke-width="2" stroke-linecap="round" stroke-linejoin="round"/>
</svg>
