<svg width="48" height="48" viewBox="0 0 48 48" fill="none" xmlns="http://www.w3.org/2000/svg">
<path d="M21.5 8.70546V42.1004C21.5 44.5303 19.5303 46.5 17.1004 46.5C15.2411 46.5 13.5826 45.3312 12.9572 43.5802L7.59118 28.2072M39 26.5C43.1421 26.5 46.5 23.1421 46.5 19C46.5 14.8579 43.1421 11.5 39 11.5M7.59118 28.2072C4.01074 26.6852 1.5 23.1358 1.5 19C1.5 13.4771 5.97714 9 11.5 9H16.0802C26.3318 9 35.1422 5.91476 39 1.5L39 36.5C35.1422 32.0852 26.3318 29 16.0802 29L11.4999 29C10.113 29 8.79191 28.7176 7.59118 28.2072Z" stroke="white" stroke-width="2" stroke-linecap="round" stroke-linejoin="round"/>
</svg>
