<svg width="48" height="49" viewBox="0 0 48 49" fill="none" xmlns="http://www.w3.org/2000/svg">
<path d="M18.1589 36.6963H29.8413M24.0001 1.69629V4.19629M39.91 8.28639L38.1422 10.0542M46.5002 24.1962H44.0002M4.00024 24.1962H1.50024M9.85797 10.0542L8.09021 8.28639M15.1613 33.0352C10.2797 28.1536 10.2797 20.2391 15.1613 15.3575C20.0428 10.476 27.9574 10.476 32.8389 15.3575C37.7205 20.2391 37.7205 28.1536 32.8389 33.0352L31.4712 34.4029C29.889 35.9851 29.0001 38.1311 29.0001 40.3687V41.6963C29.0001 44.4577 26.7615 46.6963 24.0001 46.6963C21.2387 46.6963 19.0001 44.4577 19.0001 41.6963V40.3687C19.0001 38.1311 18.1112 35.9851 16.529 34.4029L15.1613 33.0352Z" stroke="#121212" stroke-width="3" stroke-linecap="round" stroke-linejoin="round"/>
</svg>
