<svg width="44" height="49" viewBox="0 0 44 49" fill="none" xmlns="http://www.w3.org/2000/svg">
<path d="M29.5 36.6963H42L38.4877 33.184C37.5351 32.2314 37 30.9395 37 29.5924V21.6963C37 15.1652 32.826 9.60901 27 7.54983V6.69629C27 3.93487 24.7614 1.69629 22 1.69629C19.2386 1.69629 17 3.93487 17 6.69629V7.54983C11.174 9.60901 7 15.1652 7 21.6963V29.5924C7 30.9395 6.46487 32.2314 5.51233 33.184L2 36.6963H14.5M29.5 36.6963V39.1963C29.5 43.3384 26.1421 46.6963 22 46.6963C17.8579 46.6963 14.5 43.3384 14.5 39.1963V36.6963M29.5 36.6963H14.5" stroke="#121212" stroke-width="3" stroke-linecap="round" stroke-linejoin="round"/>
</svg>
