<svg width="416" height="23" viewBox="0 0 416 23" fill="none" xmlns="http://www.w3.org/2000/svg">
<path fill-rule="evenodd" clip-rule="evenodd" d="M137.913 2.0317C92.0384 1.55511 45.9769 3.29684 1.57426 10.6104C0.782045 10.7404 0.453168 10.996 0.38835 11.0545C0.00904559 11.4011 -0.031836 11.7694 0.0161773 12.0727C0.0449852 12.2568 0.239523 13.0345 1.30302 13.1147C2.03762 13.1689 7.25178 12.7898 9.26354 12.6923C18.7342 12.2352 28.1857 11.5831 37.6323 10.8292C59.051 9.12648 80.4408 7.65337 101.893 6.3124C113.937 5.55851 125.986 4.93459 138.028 4.42333C166.997 4.72878 195.894 5.92029 224.25 7.15078C212.979 7.77685 202.623 8.41158 194.035 8.82319C179.555 9.51642 165.1 10.3353 150.648 11.4141C143.223 11.9665 135.807 12.5666 128.396 13.275C127.575 13.3552 125.705 13.4375 124.8 13.535C124.416 13.574 124.138 13.6368 124.013 13.6801C123.23 13.9531 123.132 14.512 123.122 14.7936C123.117 14.9648 123.182 15.8985 124.503 16.0804C185.895 24.6202 249.945 14.6853 311.558 22.9867C312.28 23.0842 312.957 22.6336 313.065 21.9794C313.173 21.3273 312.674 20.7164 311.949 20.6189C253.92 12.8006 193.728 21.1605 135.625 15.0233C140.702 14.5792 145.782 14.1784 150.867 13.7993C165.292 12.7226 179.72 11.9059 194.177 11.2127C208.725 10.5173 228.391 9.15897 248.977 8.30326C266.643 9.19146 284.3 10.188 301.969 11.0328C309.423 11.3881 316.88 11.6828 324.331 12.0445C327.395 12.1919 335.276 12.8093 336.419 12.5796C337.307 12.3998 337.521 11.8257 337.573 11.5376C337.629 11.2257 337.595 10.8379 337.192 10.4674C337.067 10.3505 336.693 10.1078 335.924 9.90853C315.147 4.53816 281.124 4.62264 249.26 5.92028C242.406 5.57367 235.553 5.24438 228.696 4.94759C213.001 4.2652 197.132 3.58062 181.173 3.0412C226.149 2.03818 271.147 2.32632 316.157 3.05204C335.055 3.3575 385.995 5.1989 406.057 6.82582C405.812 7.05329 405.668 7.36957 405.685 7.71402C405.719 8.37259 406.34 8.88385 407.073 8.85352C411.211 8.68021 413.605 8.45924 414.553 8.23178C415.144 8.09097 415.465 7.86567 415.614 7.71836C415.979 7.36308 416.046 6.98178 415.974 6.62001C415.929 6.39471 415.816 6.14775 415.557 5.92028C415.384 5.7643 414.961 5.52602 414.241 5.36354C406.355 3.59364 338.707 1.02217 316.205 0.658223C256.743 -0.299301 197.305 -0.494253 137.913 2.0317ZM319.84 9.43625C308.221 8.01296 294.599 7.51254 280.39 7.54504C287.628 7.92415 294.868 8.29461 302.111 8.64122C308.019 8.92501 313.929 9.16763 319.84 9.43625ZM83.1104 5.12308C67.8662 6.13693 52.6388 7.23309 37.3994 8.44625C35.6397 8.58489 33.8824 8.72137 32.1227 8.85569C48.9754 6.99263 66.0033 5.80765 83.1104 5.12308Z" fill="#1AE5BE"/>
</svg>
