<svg width="20" height="21" viewBox="0 0 20 21" fill="none" xmlns="http://www.w3.org/2000/svg">
<path d="M7.66347 15.918H12.3364M9.99995 1.91797V2.91797M16.3639 4.55401L15.6568 5.26111M19 10.9179H18M2 10.9179H1M4.34309 5.26111L3.63599 4.55401M6.46441 14.4535C4.51179 12.5009 4.51179 9.33508 6.46441 7.38246C8.41703 5.42984 11.5829 5.42984 13.5355 7.38246C15.4881 9.33508 15.4881 12.5009 13.5355 14.4535L12.9884 15.0006C12.3555 15.6335 11.9999 16.4919 11.9999 17.3869V17.918C11.9999 19.0225 11.1045 19.918 9.99995 19.918C8.89538 19.918 7.99995 19.0225 7.99995 17.918V17.3869C7.99995 16.4919 7.6444 15.6335 7.01151 15.0006L6.46441 14.4535Z" stroke="#1AE5BE" stroke-width="2" stroke-linecap="round" stroke-linejoin="round"/>
</svg>
