<svg width="20" height="17" viewBox="0 0 20 17" fill="none" xmlns="http://www.w3.org/2000/svg">
<path d="M13 1.91797V3.91797M13 7.91797V9.91797M13 13.918V15.918M3 1.91797C1.89543 1.91797 1 2.8134 1 3.91797V6.91797C2.10457 6.91797 3 7.8134 3 8.91797C3 10.0225 2.10457 10.918 1 10.918V13.918C1 15.0225 1.89543 15.918 3 15.918H17C18.1046 15.918 19 15.0225 19 13.918V10.918C17.8954 10.918 17 10.0225 17 8.91797C17 7.8134 17.8954 6.91797 19 6.91797V3.91797C19 2.8134 18.1046 1.91797 17 1.91797H3Z" stroke="#1AE5BE" stroke-width="2" stroke-linecap="round" stroke-linejoin="round"/>
</svg>
