<svg width="124" height="24" viewBox="0 0 124 24" fill="none" xmlns="http://www.w3.org/2000/svg">
<path d="M30 1.77619H45.264L45.2352 6.3554H35.6016V10.0994H43.6512V14.5634H35.6016V22.5986H30V1.77619Z" fill="#121212"/>
<path d="M53.3521 22.9154C51.9793 22.9154 50.9041 22.7714 50.1265 22.4834C49.3585 22.1858 48.8017 21.8018 48.4561 21.3314C48.1105 20.861 47.8945 20.3426 47.8081 19.7762C47.7313 19.2098 47.6929 18.653 47.6929 18.1058V1.2002H53.1793V17.357C53.1793 17.7122 53.2705 18.0482 53.4529 18.365C53.6353 18.6818 54.1057 18.893 54.8641 18.9986L55.4689 19.0562V22.4546C55.1329 22.5794 54.7873 22.685 54.4321 22.7714C54.0769 22.8674 53.7169 22.9154 53.3521 22.9154Z" fill="#121212"/>
<path d="M64.4466 22.8866C62.9106 22.8866 61.5762 22.5602 60.4434 21.9074C59.3202 21.2546 58.4466 20.357 57.8226 19.2146C57.2082 18.0626 56.901 16.7426 56.901 15.2546C56.901 13.6898 57.2226 12.3218 57.8658 11.1506C58.5186 9.9698 59.4114 9.053 60.5442 8.4002C61.6866 7.7474 62.997 7.421 64.4754 7.421C66.0306 7.421 67.3698 7.7618 68.493 8.4434C69.6258 9.1154 70.4946 10.0418 71.0994 11.2226C71.7138 12.4034 72.021 13.7474 72.021 15.2546C72.021 16.733 71.709 18.0482 71.085 19.2002C70.4706 20.3426 69.597 21.245 68.4642 21.9074C67.3314 22.5602 65.9922 22.8866 64.4466 22.8866ZM64.4754 18.8258C65.0706 18.8258 65.517 18.6242 65.8146 18.221C66.1218 17.8082 66.3234 17.309 66.4194 16.7234C66.525 16.1378 66.5778 15.581 66.5778 15.053C66.5778 14.5154 66.525 13.9682 66.4194 13.4114C66.3234 12.845 66.1218 12.3746 65.8146 12.0002C65.517 11.6162 65.0706 11.4242 64.4754 11.4242C63.8706 11.4242 63.4146 11.6162 63.1074 12.0002C62.8098 12.3746 62.6082 12.845 62.5026 13.4114C62.397 13.9682 62.3442 14.5154 62.3442 15.053C62.3442 15.581 62.397 16.1378 62.5026 16.7234C62.6082 17.309 62.8098 17.8082 63.1074 18.221C63.4146 18.6242 63.8706 18.8258 64.4754 18.8258Z" fill="#121212"/>
<path d="M94.8538 7.709L89.6122 22.5986H85.5946L83.377 15.3698L81.0298 22.5986H77.185L72.1594 7.709H77.0266L79.3594 14.9378L81.5338 7.709H85.4362L87.553 14.9666L89.857 7.709H94.8538Z" fill="#121212"/>
<path d="M107.699 11.5106H104.444L104.473 18.2498C104.473 18.4706 104.512 18.6386 104.588 18.7538C104.675 18.869 104.785 18.9506 104.92 18.9986C105.054 19.037 105.203 19.0562 105.366 19.0562H107.699V22.3682C107.497 22.4642 107.176 22.565 106.734 22.6706C106.292 22.7762 105.625 22.829 104.732 22.829C103.168 22.829 101.958 22.637 101.104 22.253C100.259 21.8594 99.6732 21.3362 99.3468 20.6834C99.0204 20.0306 98.8572 19.3058 98.8572 18.509V11.5106H96.438V7.709H99.0588L100.499 3.0722H104.444V7.6802H107.699V11.5106Z" fill="#121212"/>
<path d="M116.422 22.8866C114.886 22.8866 113.551 22.5602 112.418 21.9074C111.295 21.2546 110.422 20.357 109.798 19.2146C109.183 18.0626 108.876 16.7426 108.876 15.2546C108.876 13.6898 109.198 12.3218 109.841 11.1506C110.494 9.9698 111.386 9.053 112.519 8.4002C113.662 7.7474 114.972 7.421 116.45 7.421C118.006 7.421 119.345 7.7618 120.468 8.4434C121.601 9.1154 122.47 10.0418 123.074 11.2226C123.689 12.4034 123.996 13.7474 123.996 15.2546C123.996 16.733 123.684 18.0482 123.06 19.2002C122.446 20.3426 121.572 21.245 120.439 21.9074C119.306 22.5602 117.967 22.8866 116.422 22.8866ZM116.45 18.8258C117.046 18.8258 117.492 18.6242 117.79 18.221C118.097 17.8082 118.298 17.309 118.394 16.7234C118.5 16.1378 118.553 15.581 118.553 15.053C118.553 14.5154 118.5 13.9682 118.394 13.4114C118.298 12.845 118.097 12.3746 117.79 12.0002C117.492 11.6162 117.046 11.4242 116.45 11.4242C115.846 11.4242 115.39 11.6162 115.082 12.0002C114.785 12.3746 114.583 12.845 114.478 13.4114C114.372 13.9682 114.319 14.5154 114.319 15.053C114.319 15.581 114.372 16.1378 114.478 16.7234C114.583 17.309 114.785 17.8082 115.082 18.221C115.39 18.6242 115.846 18.8258 116.45 18.8258Z" fill="#121212"/>
<path d="M6.02344 13.0547H9.53906V13.0245V5.97656C9.53906 4.61958 10.6431 3.51562 12 3.51562C12.8547 3.51562 13.6088 3.95386 14.0501 4.61719H17.8211C17.2057 1.97137 14.8331 0 12 0C8.69925 0 6.02344 2.67581 6.02344 5.97656V13.0547Z" fill="#3147FF"/>
<path d="M13.0547 17.9764V14.4608H5.97656C4.61958 14.4608 3.51562 13.3569 3.51562 11.9999C3.51562 11.1452 3.95386 10.3911 4.61719 9.9498V6.17871C1.97137 6.79413 0 9.16676 0 11.9999C0 15.3006 2.67581 17.9764 5.97656 17.9764H13.0547Z" fill="#3147FF" fill-opacity="0.5"/>
<path d="M17.9766 10.9453H14.4609V18.0234C14.4609 19.3804 13.3569 20.4844 12 20.4844C11.1453 20.4844 10.3912 20.0461 9.94993 19.3828H6.17883C6.79425 22.0286 9.16688 24 12 24C15.3008 24 17.9766 21.3242 17.9766 18.0234V10.9453Z" fill="#3147FF"/>
<path d="M18.0234 6.02344H10.9453V9.53906H18.0234C19.3804 9.53906 20.4844 10.6431 20.4844 12C20.4844 12.8547 20.0461 13.6087 19.3828 14.0501V17.8211C22.0286 17.2057 24 14.8331 24 12C24 8.69925 21.3242 6.02344 18.0234 6.02344Z" fill="#3147FF" fill-opacity="0.5"/>
</svg>
