<svg width="175" height="30" viewBox="0 0 175 30" fill="none" xmlns="http://www.w3.org/2000/svg">
<g clip-path="url(#clip0_1_3714)">
<path fill-rule="evenodd" clip-rule="evenodd" d="M18.9057 1.91968C16.1506 1.91968 13.9173 4.12922 13.9173 6.85478C13.9173 9.58038 16.1506 11.7899 18.9057 11.7899C21.6608 11.7899 23.8942 9.58038 23.8942 6.85478C23.8942 4.12922 21.6608 1.91968 18.9057 1.91968ZM9.15218 11.5206C14.3448 11.5206 18.5544 15.6851 18.5544 20.8222V28.4461H13.8777V20.8222C13.8777 20.2751 13.7827 19.7501 13.6082 19.2621L6.7388 26.058L3.43189 22.7864L10.0565 16.2328C9.76376 16.1766 9.46143 16.1473 9.15218 16.1473H1.44615V11.5206H9.15218ZM28.7756 11.5206C23.583 11.5206 19.3733 15.6851 19.3733 20.8222V28.4461H24.05V20.8222C24.05 20.3937 24.1084 19.9786 24.2175 19.5844L31.4033 26.6935L34.7103 23.4217L27.5245 16.3129C27.923 16.2049 28.3426 16.1473 28.7756 16.1473H36.4815V11.5206H28.7756Z" fill="#121212"/>
<path d="M43.9632 28.7132V2.11963H51.5762L59.7385 24.9085H60.3271V2.11963H64.683V28.7132H57.2272L48.8683 5.88543H48.319V28.7132H43.9632Z" fill="#121212"/>
<path d="M82.1344 25.2175L83.2332 25.1013L83.3118 28.2459C80.3293 28.8412 77.687 29.1388 75.3849 29.1388C72.4809 29.1388 70.3879 28.3492 69.1062 26.7706C67.8504 25.1917 67.2224 22.6683 67.2224 19.2001C67.2224 12.3156 70.0609 8.87329 75.738 8.87329C81.2319 8.87329 83.9789 11.8367 83.9789 17.7637L83.7043 20.7917H71.5391C71.5652 22.3965 71.9185 23.5742 72.5987 24.3246C73.2788 25.0754 74.5477 25.4505 76.4052 25.4505C78.2625 25.4505 80.1724 25.373 82.1344 25.2175ZM79.78 17.5308C79.78 15.6155 79.466 14.2826 78.8381 13.532C78.2366 12.7556 77.2031 12.3673 75.738 12.3673C74.273 12.3673 73.2004 12.7685 72.5201 13.5708C71.8661 14.3731 71.5259 15.6931 71.5 17.5308H79.78Z" fill="#121212"/>
<path d="M96.6861 12.9111H91.2706V21.4522C91.2706 23.0311 91.3884 24.0791 91.6237 24.5967C91.8592 25.1142 92.4609 25.3734 93.429 25.3734L96.6469 25.2567L96.8429 28.6343C95.0901 28.9708 93.756 29.1392 92.8404 29.1392C90.6168 29.1392 89.0863 28.6343 88.2491 27.625C87.4378 26.6155 87.0326 24.7133 87.0326 21.9181V12.9111H84.5209V9.30068H87.0326V3.67139H91.2706V9.30068H96.6861V12.9111Z" fill="#121212"/>
<path d="M96.7013 9.30151H100.9L104 25.1025H104.785L108.513 9.68974H112.908L116.636 25.1025H117.421L120.482 9.30151H124.72L120.56 28.7128H113.772L110.711 15.3966L107.65 28.7128H100.861L96.7013 9.30151Z" fill="#121212"/>
<path d="M127.45 11.3968C128.811 9.71445 131.06 8.87329 134.2 8.87329C137.338 8.87329 139.575 9.71445 140.91 11.3968C142.271 13.0791 142.951 15.6025 142.951 18.9672C142.951 22.3318 142.296 24.8681 140.988 26.5762C139.68 28.2847 137.418 29.1388 134.2 29.1388C130.982 29.1388 128.719 28.2847 127.411 26.5762C126.102 24.8681 125.449 22.3318 125.449 18.9672C125.449 15.6025 126.116 13.0791 127.45 11.3968ZM130.667 24.0141C131.269 25.0494 132.447 25.567 134.2 25.567C135.953 25.567 137.13 25.0494 137.732 24.0141C138.333 22.9788 138.634 21.2837 138.634 18.9284C138.634 16.573 138.306 14.9037 137.653 13.9202C137.025 12.9367 135.874 12.4449 134.2 12.4449C132.525 12.4449 131.361 12.9367 130.707 13.9202C130.08 14.9037 129.765 16.573 129.765 18.9284C129.765 21.2837 130.066 22.9788 130.667 24.0141Z" fill="#121212"/>
<path d="M145.238 28.7116V9.30033H149.476V11.6297C151.699 10.2062 153.923 9.28739 156.147 8.87329V13.105C153.898 13.5449 151.974 14.1143 150.379 14.8132L149.516 15.1625V28.7116H145.238Z" fill="#121212"/>
<path d="M161.733 28.712H157.456V1.22559H161.733V17.104L164.167 16.8712L168.797 9.30068H173.584L167.934 18.3853L173.898 28.712H169.071L164.284 20.5203L161.733 20.792V28.712Z" fill="#121212"/>
</g>
<defs>
<clipPath id="clip0_1_3714">
<rect width="174.14" height="29.4501" fill="white" transform="translate(0.663086)"/>
</clipPath>
</defs>
</svg>
