<svg width="20" height="20" viewBox="0 0 20 20" fill="none" xmlns="http://www.w3.org/2000/svg">
<path d="M0.400391 1.60039C0.400391 0.937649 0.937649 0.400391 1.60039 0.400391H4.18384C4.77045 0.400391 5.27107 0.824486 5.36751 1.40311L6.25469 6.72616C6.34129 7.2458 6.07886 7.76116 5.60767 7.99675L3.7499 8.92564C5.08946 12.2544 7.74641 14.9113 11.0751 16.2509L12.004 14.3931C12.2396 13.9219 12.755 13.6595 13.2746 13.7461L18.5977 14.6333C19.1763 14.7297 19.6004 15.2303 19.6004 15.8169V18.4004C19.6004 19.0631 19.0631 19.6004 18.4004 19.6004H16.0004C7.38475 19.6004 0.400391 12.616 0.400391 4.00039V1.60039Z" fill="#3147FF"/>
</svg>
