<svg width="28" height="28" viewBox="0 0 28 28" fill="none" xmlns="http://www.w3.org/2000/svg">
<path fill-rule="evenodd" clip-rule="evenodd" d="M14.0004 27.7332C21.5115 27.7332 27.6004 21.6443 27.6004 14.1332C27.6004 6.62213 21.5115 0.533203 14.0004 0.533203C6.48932 0.533203 0.400391 6.62213 0.400391 14.1332C0.400391 21.6443 6.48932 27.7332 14.0004 27.7332ZM20.3025 11.9353C20.9664 11.2714 20.9664 10.195 20.3025 9.53112C19.6386 8.86723 18.5622 8.86723 17.8983 9.53112L12.3004 15.129L10.1025 12.9311C9.43858 12.2672 8.3622 12.2672 7.69831 12.9311C7.03442 13.595 7.03442 14.6714 7.69831 15.3353L11.0983 18.7353C11.7622 19.3992 12.8386 19.3992 13.5025 18.7353L20.3025 11.9353Z" fill="#1AE5BE"/>
</svg>
