<svg width="30" height="35" viewBox="0 0 30 35" fill="none" xmlns="http://www.w3.org/2000/svg">
<path d="M24.4279 24.7614C22.63 26.5594 18.5722 30.6171 16.4132 32.7761C15.6322 33.5572 14.3683 33.558 13.5873 32.777C11.4637 30.6533 7.4931 26.6828 5.57175 24.7614C0.364756 19.5544 0.364756 11.1122 5.57175 5.90524C10.7787 0.698252 19.2209 0.698252 24.4279 5.90524C29.6349 11.1122 29.6349 19.5544 24.4279 24.7614Z" stroke="#13111A" stroke-width="3" stroke-linecap="round" stroke-linejoin="round"/>
<path d="M19.9998 15.3333C19.9998 18.0948 17.7613 20.3333 14.9998 20.3333C12.2384 20.3333 9.99984 18.0948 9.99984 15.3333C9.99984 12.5719 12.2384 10.3333 14.9998 10.3333C17.7613 10.3333 19.9998 12.5719 19.9998 15.3333Z" stroke="#13111A" stroke-width="3" stroke-linecap="round" stroke-linejoin="round"/>
</svg>
