<svg width="24" height="24" viewBox="0 0 24 24" fill="none" xmlns="http://www.w3.org/2000/svg">
<path fill-rule="evenodd" clip-rule="evenodd" d="M12.4704 0.307705L15.8949 7.58537L23.55 8.75268C23.7482 8.78348 23.9126 8.92899 23.9743 9.12825C24.0361 9.32751 23.9845 9.54612 23.8412 9.69253L18.3029 15.3561L19.6105 23.3549C19.6449 23.5612 19.5641 23.77 19.4022 23.8932C19.2403 24.0165 19.0255 24.0328 18.8482 23.9353L12.0008 20.1596L5.15336 23.9364C4.97623 24.0343 4.76125 24.0182 4.59924 23.895C4.43723 23.7718 4.35645 23.5629 4.39103 23.3566L5.69863 15.3561L0.158804 9.69253C0.0155247 9.54612 -0.036052 9.32751 0.0256772 9.12825C0.0874064 8.92899 0.251785 8.78348 0.449961 8.75268L8.10511 7.58537L11.5312 0.307705C11.6184 0.119523 11.8008 0 12.0008 0C12.2008 0 12.3832 0.119523 12.4704 0.307705Z" fill="#FFC900"/>
</svg>
