<svg width="26" height="26" viewBox="0 0 26 26" fill="none" xmlns="http://www.w3.org/2000/svg">
<path d="M10.0793 19.25H15.9205M12.9999 1.75V3M20.9549 5.04505L20.071 5.92893M24.25 12.9999H23M3 12.9999H1.75M5.92886 5.92893L5.04498 5.04505M8.58052 17.4194C6.13974 14.9787 6.13974 11.0214 8.58052 8.58061C11.0213 6.13983 14.9786 6.13983 17.4194 8.58061C19.8601 11.0214 19.8601 14.9787 17.4194 17.4194L16.7355 18.1033C15.9444 18.8944 15.4999 19.9674 15.4999 21.0862V21.75C15.4999 23.1307 14.3806 24.25 12.9999 24.25C11.6192 24.25 10.4999 23.1307 10.4999 21.75V21.0862C10.4999 19.9674 10.0555 18.8944 9.26439 18.1033L8.58052 17.4194Z" stroke="#121212" stroke-width="2" stroke-linecap="round" stroke-linejoin="round"/>
</svg>
