<svg width="37" height="37" viewBox="0 0 37 37" fill="none" xmlns="http://www.w3.org/2000/svg">
<path d="M22.2395 13.8581C22.7825 14.4838 23.7298 14.5509 24.3555 14.008C24.9813 13.465 25.0484 12.5176 24.5054 11.8919L22.2395 13.8581ZM14.7605 23.1419C14.2176 22.5162 13.2702 22.4491 12.6445 22.992C12.0188 23.535 11.9517 24.4824 12.4946 25.1081L14.7605 23.1419ZM20 9.125C20 8.29657 19.3284 7.625 18.5 7.625C17.6716 7.625 17 8.29657 17 9.125H20ZM17 27.875C17 28.7034 17.6715 29.375 18.5 29.375C19.3284 29.375 20 28.7035 20 27.875L17 27.875ZM33.875 18.5C33.875 26.9914 26.9914 33.875 18.5 33.875V36.875C28.6482 36.875 36.875 28.6482 36.875 18.5H33.875ZM18.5 33.875C10.0086 33.875 3.125 26.9914 3.125 18.5H0.125C0.125 28.6482 8.35177 36.875 18.5 36.875V33.875ZM3.125 18.5C3.125 10.0086 10.0086 3.125 18.5 3.125V0.125C8.35177 0.125 0.125 8.35177 0.125 18.5H3.125ZM18.5 3.125C26.9914 3.125 33.875 10.0086 33.875 18.5H36.875C36.875 8.35177 28.6482 0.125 18.5 0.125V3.125ZM18.5 17C17.2015 17 16.0938 16.6464 15.3546 16.1536C14.6048 15.6537 14.375 15.128 14.375 14.75H11.375C11.375 16.4431 12.4044 17.7923 13.6905 18.6497C14.9871 19.5141 16.6919 20 18.5 20V17ZM14.375 14.75C14.375 14.372 14.6048 13.8463 15.3546 13.3464C16.0938 12.8536 17.2015 12.5 18.5 12.5V9.5C16.6919 9.5 14.9871 9.98588 13.6905 10.8503C12.4044 11.7077 11.375 13.0569 11.375 14.75H14.375ZM18.5 12.5C20.2721 12.5 21.6245 13.1493 22.2395 13.8581L24.5054 11.8919C23.1753 10.359 20.892 9.5 18.5 9.5V12.5ZM18.5 20C19.7985 20 20.9062 20.3536 21.6455 20.8464C22.3952 21.3463 22.625 21.872 22.625 22.25H25.625C25.625 20.5569 24.5956 19.2077 23.3095 18.3503C22.0129 17.4859 20.3081 17 18.5 17V20ZM17 9.125V11H20V9.125H17ZM17 26L17 27.875L20 27.875L20 26L17 26ZM18.5 24.5C16.728 24.5 15.3755 23.8507 14.7605 23.1419L12.4946 25.1081C13.8248 26.641 16.108 27.5 18.5 27.5L18.5 24.5ZM22.625 22.25C22.625 22.628 22.3952 23.1537 21.6455 23.6536C20.9062 24.1464 19.7985 24.5 18.5 24.5V27.5C20.3082 27.5 22.013 27.0141 23.3096 26.1497C24.5957 25.2923 25.625 23.9431 25.625 22.25H22.625ZM17 11L17 26L20 26L20 11L17 11Z" fill="white"/>
</svg>
