<svg width="30" height="30" viewBox="0 0 30 30" fill="none" xmlns="http://www.w3.org/2000/svg">
<path d="M26.25 16.5693C22.7759 17.9756 18.9784 18.75 15 18.75C11.0216 18.75 7.22412 17.9756 3.75 16.5693M20 7.5V5C20 3.61929 18.8807 2.5 17.5 2.5L12.5 2.5C11.1193 2.5 10 3.61929 10 5V7.5M15 15H15.0125M6.25 25H23.75C25.1307 25 26.25 23.8807 26.25 22.5V10C26.25 8.61929 25.1307 7.5 23.75 7.5L6.25 7.5C4.86929 7.5 3.75 8.61929 3.75 10L3.75 22.5C3.75 23.8807 4.86929 25 6.25 25Z" stroke="#414141" stroke-width="2" stroke-linecap="round" stroke-linejoin="round"/>
</svg>
