<svg width="26" height="25" viewBox="0 0 26 25" fill="none" xmlns="http://www.w3.org/2000/svg">
<path d="M24.25 15.5693C20.7759 16.9756 16.9784 17.75 13 17.75C9.02163 17.75 5.22412 16.9756 1.75 15.5693M18 6.5V4C18 2.61929 16.8807 1.5 15.5 1.5L10.5 1.5C9.11929 1.5 8 2.61929 8 4V6.5M13 14H13.0125M4.25 24H21.75C23.1307 24 24.25 22.8807 24.25 21.5V9C24.25 7.61929 23.1307 6.5 21.75 6.5L4.25 6.5C2.86929 6.5 1.75 7.61929 1.75 9L1.75 21.5C1.75 22.8807 2.86929 24 4.25 24Z" stroke="#414141" stroke-width="2" stroke-linecap="round" stroke-linejoin="round"/>
</svg>
