<svg width="60" height="60" viewBox="0 0 60 60" fill="none" xmlns="http://www.w3.org/2000/svg">
<circle cx="30" cy="30" r="30" fill="#121212"/>
<path d="M33.023 26.1081C33.5659 26.7338 34.5133 26.8009 35.139 26.258C35.7647 25.715 35.8318 24.7676 35.2889 24.1419L33.023 26.1081ZM25.9771 34.8919C25.4341 34.2662 24.4868 34.1991 23.861 34.742C23.2353 35.285 23.1682 36.2324 23.7112 36.8581L25.9771 34.8919ZM31 21.5417C31 20.7132 30.3284 20.0417 29.5 20.0417C28.6716 20.0417 28 20.7132 28 21.5417H31ZM28 39.4583C28 40.2867 28.6715 40.9583 29.5 40.9583C30.3284 40.9583 31 40.2868 31 39.4584L28 39.4583ZM44.125 30.5C44.125 38.5772 37.5772 45.125 29.5 45.125V48.125C39.234 48.125 47.125 40.234 47.125 30.5H44.125ZM29.5 45.125C21.4228 45.125 14.875 38.5772 14.875 30.5H11.875C11.875 40.234 19.766 48.125 29.5 48.125V45.125ZM14.875 30.5C14.875 22.4228 21.4228 15.875 29.5 15.875V12.875C19.766 12.875 11.875 20.766 11.875 30.5H14.875ZM29.5 15.875C37.5772 15.875 44.125 22.4228 44.125 30.5H47.125C47.125 20.766 39.234 12.875 29.5 12.875V15.875ZM29.5 29C28.2706 29 27.2254 28.6651 26.5314 28.2024C25.8268 27.7327 25.625 27.2486 25.625 26.9167H22.625C22.625 28.5638 23.6264 29.8713 24.8673 30.6985C26.1186 31.5328 27.7609 32 29.5 32V29ZM25.625 26.9167C25.625 26.5847 25.8268 26.1006 26.5314 25.6309C27.2254 25.1683 28.2706 24.8333 29.5 24.8333V21.8333C27.7609 21.8333 26.1186 22.3006 24.8673 23.1348C23.6264 23.962 22.625 25.2696 22.625 26.9167H25.625ZM29.5 24.8333C31.1795 24.8333 32.4512 25.4491 33.023 26.1081L35.2889 24.1419C34.0019 22.6588 31.7995 21.8333 29.5 21.8333V24.8333ZM29.5 32C30.7294 32 31.7746 32.3349 32.4687 32.7976C33.1732 33.2673 33.375 33.7514 33.375 34.0833H36.375C36.375 32.4362 35.3736 31.1287 34.1328 30.3015C32.8814 29.4672 31.2391 29 29.5 29V32ZM28 21.5417V23.3333H31V21.5417H28ZM28 37.6666L28 39.4583L31 39.4584L31 37.6667L28 37.6666ZM29.5 36.1667C27.8205 36.1667 26.5488 35.5509 25.9771 34.8919L23.7112 36.8581C24.9981 38.3412 27.2006 39.1667 29.5 39.1667L29.5 36.1667ZM33.375 34.0833C33.375 34.4153 33.1732 34.8994 32.4687 35.3691C31.7747 35.8317 30.7295 36.1667 29.5 36.1667V39.1667C31.2391 39.1667 32.8814 38.6994 34.1328 37.8652C35.3736 37.038 36.375 35.7304 36.375 34.0833H33.375ZM28 23.3333L28 37.6667L31 37.6667L31 23.3333L28 23.3333Z" fill="white"/>
</svg>
