<svg width="26" height="26" viewBox="0 0 26 26" fill="none" xmlns="http://www.w3.org/2000/svg">
<path d="M11.75 5.35273L11.75 22.0502C11.75 23.2651 10.7651 24.25 9.55022 24.25C8.62057 24.25 7.79128 23.6656 7.4786 22.7901L4.79559 15.1036M20.5 14.25C22.5711 14.25 24.25 12.5711 24.25 10.5C24.25 8.42893 22.5711 6.75 20.5 6.75M4.79559 15.1036C3.00537 14.3426 1.75 12.5679 1.75 10.5C1.75 7.73857 3.98857 5.5 6.74999 5.5H9.04011C14.1659 5.5 18.5711 3.95738 20.5 1.75L20.5 19.25C18.5711 17.0426 14.1659 15.5 9.04011 15.5L6.74997 15.5C6.05648 15.5 5.39596 15.3588 4.79559 15.1036Z" stroke="#3147FF" stroke-width="2" stroke-linecap="round" stroke-linejoin="round"/>
</svg>
