<svg width="177" height="45" viewBox="0 0 177 45" fill="none" xmlns="http://www.w3.org/2000/svg">
<g clip-path="url(#clip0_10_21582)">
<path d="M27.5238 2.94134L23.2636 1.7998L19.6735 15.1984L16.4322 3.10205L12.1719 4.2436L15.6738 17.3128L6.95131 8.59031L3.83259 11.709L13.4002 21.2766L1.48528 18.084L0.34375 22.3442L13.3622 25.8326C13.2131 25.1896 13.1343 24.5198 13.1343 23.8316C13.1343 18.9598 17.0837 15.0105 21.9554 15.0105C26.8272 15.0105 30.7765 18.9598 30.7765 23.8316C30.7765 24.5154 30.6986 25.1811 30.5514 25.8202L42.3828 28.9904L43.5242 24.7302L30.454 21.228L42.3697 18.0352L41.2281 13.775L28.1583 17.277L36.8809 8.5545L33.7622 5.43579L24.3274 14.8707L27.5238 2.94134Z" fill="#FF5E87"/>
<path d="M30.5397 25.8701C30.1743 27.4144 29.4032 28.8015 28.3452 29.9131L36.9165 38.4844L40.0352 35.3657L30.5397 25.8701Z" fill="#FF5E87"/>
<path d="M28.2585 30.0029C27.1877 31.0966 25.8345 31.9129 24.3169 32.3335L27.4358 43.9735L31.696 42.8318L28.2585 30.0029Z" fill="#FF5E87"/>
<path d="M24.1581 32.3751C23.4539 32.5561 22.716 32.6523 21.9555 32.6523C21.1407 32.6523 20.3518 32.5417 19.6027 32.335L16.481 43.9856L20.7412 45.1271L24.1581 32.3751Z" fill="#FF5E87"/>
<path d="M19.4517 32.2927C17.9573 31.8511 16.6282 31.0246 15.5792 29.9277L6.98682 38.5202L10.1055 41.6389L19.4517 32.2927Z" fill="#FF5E87"/>
<path d="M15.5079 29.8512C14.477 28.7475 13.726 27.3787 13.3685 25.8584L1.49854 29.0389L2.64005 33.2991L15.5079 29.8512Z" fill="#FF5E87"/>
<path d="M138.875 9.7998V36.339H142.801V9.7998H138.875Z" fill="#121212"/>
<path fill-rule="evenodd" clip-rule="evenodd" d="M103.374 36.7657C101.825 36.7657 100.53 36.4087 99.4911 35.6946C99.3772 35.6167 99.2669 35.5354 99.1592 35.451V36.3373H95.6948V10.2266H99.6499V21.4124C100.62 20.7952 101.794 20.4866 103.172 20.4866C104.663 20.4866 105.962 20.8388 107.069 21.5432C108.176 22.2478 109.032 23.214 109.638 24.4421C110.254 25.6607 110.562 27.0554 110.562 28.626C110.562 30.1683 110.259 31.5535 109.653 32.7817C109.056 34.0097 108.219 34.9808 107.141 35.6946C106.063 36.4087 104.808 36.7657 103.374 36.7657ZM99.5055 26.1701C99.2744 26.8744 99.1592 27.6931 99.1592 28.626C99.1592 29.5589 99.2744 30.3779 99.5055 31.0822C99.7363 31.7869 100.112 32.334 100.631 32.7246C101.16 33.1148 101.863 33.3098 102.739 33.3098C103.585 33.3098 104.279 33.1006 104.817 32.6818C105.356 32.2628 105.756 31.7012 106.015 30.9965C106.275 30.2827 106.405 29.4926 106.405 28.626C106.405 27.7692 106.27 26.9888 106.001 26.2844C105.732 25.5703 105.313 25.0038 104.745 24.5849C104.187 24.1565 103.47 23.9423 102.594 23.9423C101.776 23.9423 101.112 24.1375 100.603 24.5278C100.102 24.9181 99.7363 25.4654 99.5055 26.1701Z" fill="#121212"/>
<path d="M89.4871 27.2264V36.3371H93.413V26.1985C93.413 24.5134 92.956 23.1519 92.0418 22.1143C91.1373 21.0671 89.7949 20.5435 88.0148 20.5435C86.9755 20.5435 86.0276 20.7719 85.1712 21.2289C84.3872 21.6433 83.7474 22.2126 83.2522 22.9371C82.8828 22.2796 82.3724 21.7387 81.7213 21.3146C80.9421 20.8005 79.9412 20.5435 78.7192 20.5435C77.651 20.5435 76.6839 20.7767 75.8179 21.2432C75.1635 21.5997 74.6101 22.0535 74.1578 22.6045V20.9148H70.6938V36.3371H74.6486V26.998C74.6486 26.1127 74.8941 25.3939 75.385 24.8418C75.8853 24.2801 76.5443 23.9992 77.3622 23.9992C78.2189 23.9992 78.8874 24.2848 79.3685 24.856C79.8594 25.4178 80.1049 26.208 80.1049 27.2264V36.3371H84.0308V26.998C84.0308 26.4077 84.1416 25.8888 84.3631 25.4415C84.5938 24.9845 84.9113 24.6322 85.3157 24.3848C85.7198 24.1277 86.1961 23.9992 86.7447 23.9992C87.6011 23.9992 88.2697 24.2848 88.7508 24.856C89.2415 25.4178 89.4871 26.208 89.4871 27.2264Z" fill="#121212"/>
<path d="M56.6277 36.1861C57.3974 36.5953 58.3933 36.8002 59.6156 36.8002C61.1455 36.8002 62.4111 36.4719 63.4119 35.8149C63.8868 35.5063 64.3054 35.152 64.6675 34.7529V36.3433H68.1319V20.9209H64.1768V28.7462C64.1768 29.6982 64.0661 30.4693 63.8449 31.0595C63.633 31.6404 63.359 32.083 63.0218 32.3876C62.6851 32.6829 62.3244 32.8826 61.9396 32.9873C61.5547 33.0922 61.1936 33.1445 60.8569 33.1445C60.0198 33.1445 59.3701 32.9588 58.9082 32.5876C58.456 32.2164 58.1289 31.7547 57.9267 31.2025C57.7248 30.6502 57.6045 30.1028 57.5659 29.5601C57.5274 29.0083 57.5081 28.5561 57.5081 28.2036V20.9209H53.5244V29.5744C53.5244 29.8317 53.5433 30.241 53.5819 30.8027C53.6204 31.3644 53.7311 31.9878 53.9141 32.6734C54.0967 33.3491 54.4001 34.0013 54.8234 34.6298C55.2565 35.2579 55.8579 35.7768 56.6277 36.1861Z" fill="#121212"/>
<path d="M112.294 20.9196V36.3419H116.249V28.4594C116.249 27.8692 116.331 27.3408 116.495 26.8742C116.659 26.3983 116.899 25.989 117.216 25.6463C117.534 25.294 117.924 25.0132 118.386 24.8038C118.848 24.5848 119.362 24.4562 119.93 24.4182C120.507 24.3706 121.012 24.4134 121.446 24.5468V20.9196C120.974 20.8625 120.502 20.8529 120.031 20.891C119.56 20.9196 119.102 21.0005 118.66 21.1338C118.217 21.2576 117.808 21.4336 117.433 21.6622C116.942 21.9478 116.528 22.3095 116.192 22.7475C116.032 22.9547 115.888 23.1728 115.758 23.4013V20.9196H112.294Z" fill="#121212"/>
<path fill-rule="evenodd" clip-rule="evenodd" d="M129.712 36.7649C128.115 36.7649 126.705 36.4271 125.483 35.751C124.27 35.0657 123.318 34.1281 122.625 32.9378C121.942 31.7385 121.6 30.3677 121.6 28.8253C121.6 27.1404 121.937 25.6743 122.611 24.4272C123.284 23.18 124.213 22.2138 125.396 21.5283C126.58 20.8334 127.942 20.4858 129.481 20.4858C131.117 20.4858 132.508 20.8667 133.653 21.6282C134.798 22.3898 135.645 23.4608 136.193 24.8413C136.742 26.2218 136.934 27.8447 136.771 29.7107H125.825C125.947 30.6365 126.238 31.3884 126.695 31.9668C127.331 32.7477 128.259 33.1379 129.481 33.1379C130.251 33.1379 130.91 32.9712 131.459 32.6381C132.007 32.305 132.426 31.8242 132.714 31.1958L136.641 32.3097C136.054 33.7187 135.125 34.8133 133.854 35.5938C132.594 36.3746 131.213 36.7649 129.712 36.7649ZM132.123 24.8983C132.458 25.3493 132.683 25.9921 132.798 26.826H125.928C126.081 26.1139 126.337 25.5283 126.695 25.0697C127.331 24.2605 128.317 23.8559 129.654 23.8559C130.8 23.8559 131.622 24.2034 132.123 24.8983Z" fill="#121212"/>
<path d="M145.973 36.339V9.7998H149.9V36.339H145.973Z" fill="#121212"/>
<path fill-rule="evenodd" clip-rule="evenodd" d="M154.27 36.1365C155.05 36.5554 155.998 36.7649 157.114 36.7649C158.461 36.7649 159.572 36.5363 160.448 36.0793C161.146 35.7116 161.805 35.1665 162.426 34.4435V36.3365H165.861V26.9117C165.861 26.2074 165.832 25.5694 165.774 24.9984C165.717 24.4272 165.534 23.8559 165.226 23.2847C164.677 22.2566 163.869 21.5331 162.801 21.1142C161.732 20.6952 160.511 20.4858 159.134 20.4858C157.259 20.4858 155.776 20.8857 154.688 21.6854C153.601 22.485 152.861 23.5228 152.466 24.7984L156.017 25.9121C156.267 25.2078 156.705 24.7175 157.33 24.4414C157.955 24.1653 158.557 24.0273 159.134 24.0273C160.174 24.0273 160.915 24.2415 161.357 24.6699C161.706 25.0063 161.916 25.4922 161.991 26.1282C161.326 26.2279 160.696 26.3225 160.102 26.4119C159.092 26.5549 158.186 26.7072 157.389 26.8689C156.59 27.0308 155.902 27.2166 155.324 27.4259C154.487 27.7304 153.818 28.1115 153.318 28.5684C152.826 29.0159 152.471 29.5344 152.249 30.1247C152.028 30.715 151.917 31.3673 151.917 32.0811C151.917 32.9378 152.115 33.7231 152.509 34.4373C152.914 35.1416 153.501 35.7081 154.27 36.1365ZM159.769 33.3376C159.279 33.5853 158.673 33.7091 157.951 33.7091C157.498 33.7091 157.108 33.6425 156.781 33.5091C156.455 33.3757 156.2 33.1856 156.017 32.9378C155.843 32.6809 155.757 32.376 155.757 32.0239C155.757 31.7671 155.81 31.5336 155.916 31.3244C156.031 31.1148 156.204 30.9246 156.435 30.7531C156.676 30.5722 156.989 30.4058 157.374 30.2533C157.71 30.1295 158.1 30.0152 158.543 29.9107C158.985 29.8059 159.568 29.6916 160.289 29.5677C160.753 29.4823 161.308 29.3846 161.954 29.2755C161.945 29.547 161.93 29.8539 161.906 30.1961C161.877 30.7484 161.762 31.2339 161.56 31.6527C161.453 31.8715 161.252 32.143 160.954 32.4666C160.665 32.7902 160.27 33.0808 159.769 33.3376Z" fill="#121212"/>
</g>
<defs>
<clipPath id="clip0_10_21582">
<rect width="177" height="44" fill="white" transform="translate(0 0.799805)"/>
</clipPath>
</defs>
</svg>
