<svg width="187" height="46" viewBox="0 0 187 46" fill="none" xmlns="http://www.w3.org/2000/svg">
<g clip-path="url(#clip0_10_21560)">
<path d="M58.4641 32.5261C58.4641 33.0807 58.27 33.55 57.8823 33.9339C57.5156 34.2966 57.0518 34.478 56.4915 34.478C55.9522 34.478 55.4992 34.2966 55.133 33.9339C54.7664 33.55 54.583 33.0807 54.583 32.5261V12.7512C54.583 12.1966 54.7664 11.7379 55.133 11.3753C55.5208 10.9913 55.9954 10.7993 56.5562 10.7993C57.1166 10.7993 57.5695 10.9913 57.9146 11.3753C58.2808 11.7379 58.4641 12.1966 58.4641 12.7512V32.5261Z" fill="#121212"/>
<path d="M74.0432 17.3599C74.6034 17.3599 75.0672 17.5518 75.434 17.9358C75.8001 18.2984 75.9834 18.7571 75.9834 19.3117V27.4392C75.9834 29.7004 75.3477 31.4923 74.0755 32.815C72.8029 34.1375 70.9704 34.799 68.5766 34.799C66.1833 34.799 64.3505 34.1375 63.0783 32.815C61.8277 31.4923 61.2021 29.7004 61.2021 27.4392V19.3117C61.2021 18.7571 61.3855 18.2984 61.7523 17.9358C62.119 17.5518 62.5821 17.3599 63.1431 17.3599C63.7039 17.3599 64.167 17.5518 64.5338 17.9358C64.9005 18.2984 65.0839 18.7571 65.0839 19.3117V27.4392C65.0839 28.7405 65.375 29.7111 65.9569 30.3511C66.5393 30.9697 67.4124 31.279 68.5766 31.279C69.763 31.279 70.6469 30.9697 71.2293 30.3511C71.8111 29.7111 72.1023 28.7405 72.1023 27.4392V19.3117C72.1023 18.7571 72.2856 18.2984 72.6525 17.9358C73.0185 17.5518 73.4823 17.3599 74.0432 17.3599Z" fill="#121212"/>
<path d="M87.6566 17.04C89.3817 17.04 90.6538 17.456 91.4736 18.2879C92.2926 19.0986 92.8319 20.1545 93.0903 21.4557L92.5407 21.1678L92.7996 20.6558C93.0578 20.1652 93.457 19.6425 93.9962 19.0879C94.5349 18.512 95.182 18.032 95.9364 17.648C96.713 17.2427 97.5753 17.04 98.5244 17.04C100.077 17.04 101.252 17.3707 102.05 18.032C102.869 18.6933 103.43 19.5785 103.732 20.6878C104.033 21.7757 104.185 22.9917 104.185 24.3355V32.5271C104.185 33.0818 104.001 33.551 103.634 33.9349C103.268 34.2977 102.805 34.4791 102.244 34.4791C101.683 34.4791 101.22 34.2977 100.853 33.9349C100.486 33.551 100.303 33.0818 100.303 32.5271V24.3355C100.303 23.6316 100.217 23.0023 100.045 22.4477C99.872 21.8717 99.5593 21.4131 99.1063 21.0718C98.6538 20.7305 98.0067 20.5599 97.166 20.5599C96.3463 20.5599 95.6458 20.7305 95.0634 21.0718C94.481 21.4131 94.0393 21.8717 93.7374 22.4477C93.457 23.0023 93.3167 23.6316 93.3167 24.3355V32.5271C93.3167 33.0818 93.1333 33.551 92.7673 33.9349C92.4005 34.2977 91.9367 34.4791 91.3765 34.4791C90.8156 34.4791 90.3518 34.2977 89.9856 33.9349C89.6189 33.551 89.4356 33.0818 89.4356 32.5271V24.3355C89.4356 23.6316 89.3493 23.0023 89.1767 22.4477C89.0043 21.8717 88.6914 21.4131 88.2389 21.0718C87.786 20.7305 87.1389 20.5599 86.2981 20.5599C85.4791 20.5599 84.778 20.7305 84.1955 21.0718C83.6137 21.4131 83.1716 21.8717 82.8695 22.4477C82.5896 23.0023 82.4495 23.6316 82.4495 24.3355V32.5271C82.4495 33.0818 82.2661 33.551 81.8994 33.9349C81.5327 34.2977 81.0695 34.4791 80.5087 34.4791C79.9479 34.4791 79.4846 34.2977 79.1179 33.9349C78.7512 33.551 78.5679 33.0818 78.5679 32.5271V19.3119C78.5679 18.7573 78.7512 18.2986 79.1179 17.936C79.4846 17.552 79.9479 17.36 80.5087 17.36C81.0695 17.36 81.5327 17.552 81.8994 17.936C82.2661 18.2986 82.4495 18.7573 82.4495 19.3119V20.6878L81.9642 20.5918C82.1583 20.2292 82.4279 19.8452 82.7725 19.4399C83.1176 19.0133 83.5383 18.6186 84.0343 18.256C84.5299 17.8933 85.08 17.6053 85.6835 17.392C86.2874 17.1574 86.9454 17.04 87.6566 17.04Z" fill="#121212"/>
<path d="M110.424 32.5265C110.424 33.0811 110.241 33.5504 109.874 33.9343C109.508 34.297 109.044 34.4784 108.483 34.4784C107.923 34.4784 107.459 34.297 107.092 33.9343C106.726 33.5504 106.543 33.0811 106.543 32.5265V19.3113C106.543 18.7567 106.726 18.298 107.092 17.9353C107.459 17.5513 107.923 17.3594 108.483 17.3594C109.044 17.3594 109.508 17.5513 109.874 17.9353C110.241 18.298 110.424 18.7567 110.424 19.3113V32.5265ZM108.451 15.2795C107.718 15.2795 107.2 15.1622 106.898 14.9275C106.597 14.6928 106.446 14.2769 106.446 13.6796V13.0716C106.446 12.453 106.608 12.037 106.931 11.8237C107.276 11.5891 107.793 11.4717 108.483 11.4717C109.238 11.4717 109.767 11.5891 110.068 11.8237C110.37 12.0583 110.521 12.4743 110.521 13.0716V13.6796C110.521 14.2982 110.359 14.7249 110.036 14.9595C109.713 15.1728 109.184 15.2795 108.451 15.2795Z" fill="#121212"/>
<path d="M122.044 17.04C123.64 17.04 124.848 17.3707 125.667 18.032C126.508 18.6933 127.079 19.5785 127.381 20.6878C127.705 21.7757 127.866 22.9917 127.866 24.3355V32.5271C127.866 33.0818 127.683 33.551 127.316 33.9349C126.95 34.2977 126.486 34.4791 125.926 34.4791C125.365 34.4791 124.902 34.2977 124.535 33.9349C124.168 33.551 123.985 33.0818 123.985 32.5271V24.3355C123.985 23.6316 123.888 23.0023 123.694 22.4477C123.522 21.8717 123.198 21.4131 122.723 21.0718C122.249 20.7305 121.57 20.5599 120.686 20.5599C119.823 20.5599 119.09 20.7305 118.486 21.0718C117.905 21.4131 117.452 21.8717 117.128 22.4477C116.826 23.0023 116.675 23.6316 116.675 24.3355V32.5271C116.675 33.0818 116.492 33.551 116.126 33.9349C115.759 34.2977 115.295 34.4791 114.735 34.4791C114.174 34.4791 113.71 34.2977 113.344 33.9349C112.977 33.551 112.794 33.0818 112.794 32.5271V19.3119C112.794 18.7573 112.977 18.2986 113.344 17.936C113.71 17.552 114.174 17.36 114.735 17.36C115.295 17.36 115.759 17.552 116.126 17.936C116.492 18.2986 116.675 18.7573 116.675 19.3119V20.6878L116.19 20.5918C116.384 20.2292 116.664 19.8452 117.031 19.4399C117.398 19.0133 117.829 18.6186 118.325 18.256C118.821 17.8933 119.382 17.6053 120.007 17.392C120.632 17.1574 121.311 17.04 122.044 17.04Z" fill="#121212"/>
<path d="M147.07 25.9355C147.07 27.6847 146.671 29.2313 145.874 30.5753C145.098 31.8978 144.041 32.9324 142.704 33.6789C141.389 34.4258 139.912 34.7992 138.273 34.7992C136.634 34.7992 135.146 34.4258 133.81 33.6789C132.494 32.9324 131.438 31.8978 130.64 30.5753C129.864 29.2313 129.476 27.6847 129.476 25.9355C129.476 24.1862 129.864 22.6504 130.64 21.3278C131.438 19.9839 132.494 18.9386 133.81 18.192C135.146 17.424 136.634 17.04 138.273 17.04C139.912 17.04 141.389 17.424 142.704 18.192C144.041 18.9386 145.098 19.9839 145.874 21.3278C146.671 22.6504 147.07 24.1862 147.07 25.9355ZM143.19 25.9355C143.19 24.8476 142.964 23.9089 142.511 23.1197C142.078 22.3091 141.485 21.6798 140.732 21.2318C139.999 20.7839 139.179 20.5599 138.273 20.5599C137.368 20.5599 136.537 20.7839 135.783 21.2318C135.049 21.6798 134.456 22.3091 134.004 23.1197C133.572 23.9089 133.357 24.8476 133.357 25.9355C133.357 27.0022 133.572 27.9408 134.004 28.7513C134.456 29.5407 135.049 30.1593 135.783 30.6072C136.537 31.0552 137.368 31.2792 138.273 31.2792C139.179 31.2792 139.999 31.0552 140.732 30.6072C141.485 30.1593 142.078 29.5407 142.511 28.7513C142.964 27.9408 143.19 27.0022 143.19 25.9355Z" fill="#121212"/>
<path d="M161.535 17.3599C162.096 17.3599 162.56 17.5518 162.926 17.9358C163.293 18.2984 163.476 18.7571 163.476 19.3117V27.4392C163.476 29.7004 162.84 31.4923 161.567 32.815C160.296 34.1375 158.463 34.799 156.069 34.799C153.676 34.799 151.843 34.1375 150.571 32.815C149.321 31.4923 148.694 29.7004 148.694 27.4392V19.3117C148.694 18.7571 148.878 18.2984 149.245 17.9358C149.612 17.5518 150.075 17.3599 150.636 17.3599C151.196 17.3599 151.659 17.5518 152.026 17.9358C152.393 18.2984 152.577 18.7571 152.577 19.3117V27.4392C152.577 28.7405 152.866 29.7111 153.449 30.3511C154.031 30.9697 154.905 31.279 156.069 31.279C157.255 31.279 158.139 30.9697 158.721 30.3511C159.304 29.7111 159.595 28.7405 159.595 27.4392V19.3117C159.595 18.7571 159.778 18.2984 160.145 17.9358C160.511 17.5518 160.975 17.3599 161.535 17.3599Z" fill="#121212"/>
<path d="M165.06 31.8232C164.844 31.5245 164.746 31.1405 164.769 30.6712C164.79 30.2019 165.071 29.7967 165.609 29.4552C165.953 29.2419 166.321 29.1566 166.709 29.1993C167.097 29.2206 167.474 29.4127 167.841 29.7753C168.467 30.3939 169.124 30.8739 169.814 31.2152C170.504 31.5565 171.367 31.7272 172.401 31.7272C172.725 31.7058 173.081 31.6632 173.469 31.5992C173.857 31.5139 174.191 31.3432 174.471 31.0872C174.773 30.8099 174.924 30.3939 174.924 29.8393C174.924 29.3699 174.763 28.9967 174.439 28.7194C174.116 28.4421 173.685 28.2073 173.145 28.0153C172.627 27.8234 172.046 27.6421 171.399 27.4715C170.731 27.2795 170.04 27.0662 169.328 26.8314C168.639 26.5968 168.002 26.2981 167.421 25.9355C166.839 25.5515 166.365 25.0502 165.997 24.4316C165.632 23.813 165.447 23.0343 165.447 22.0958C165.447 21.0291 165.749 20.1225 166.353 19.3759C166.957 18.6292 167.734 18.0533 168.682 17.648C169.653 17.2427 170.665 17.04 171.723 17.04C172.391 17.04 173.092 17.1253 173.825 17.296C174.558 17.4453 175.258 17.7013 175.927 18.064C176.595 18.4053 177.156 18.864 177.609 19.4399C177.846 19.7599 177.987 20.1438 178.029 20.5918C178.072 21.0397 177.868 21.4451 177.415 21.8078C177.092 22.0637 176.714 22.181 176.282 22.1598C175.851 22.117 175.496 21.9677 175.215 21.7117C174.848 21.2425 174.353 20.8691 173.728 20.5918C173.124 20.3145 172.423 20.1759 171.625 20.1759C171.302 20.1759 170.946 20.2186 170.558 20.3039C170.191 20.3679 169.868 20.5278 169.588 20.7839C169.307 21.0185 169.167 21.4025 169.167 21.9358C169.167 22.4264 169.328 22.8211 169.653 23.1197C169.976 23.397 170.407 23.6316 170.946 23.8236C171.506 23.9943 172.1 24.1649 172.725 24.3355C173.372 24.5062 174.03 24.7089 174.697 24.9435C175.366 25.1782 175.981 25.4875 176.542 25.8715C177.103 26.2555 177.555 26.7568 177.9 27.3754C178.246 27.9727 178.418 28.7407 178.418 29.6793C178.418 30.7673 178.094 31.6951 177.447 32.4631C176.801 33.2311 175.991 33.8176 175.022 34.223C174.051 34.6071 173.058 34.7992 172.046 34.7992C170.773 34.7992 169.502 34.5859 168.229 34.159C166.958 33.7108 165.9 32.9324 165.06 31.8232Z" fill="#121212"/>
<path fill-rule="evenodd" clip-rule="evenodd" d="M22.9192 44.127C34.8839 44.127 44.583 34.4277 44.583 22.4631C44.583 10.4985 34.8839 0.799316 22.9192 0.799316C10.9546 0.799316 1.25537 10.4985 1.25537 22.4631C1.25537 34.4277 10.9546 44.127 22.9192 44.127ZM26.263 17.5373C28.1096 15.6907 28.1096 12.6966 26.263 10.8499C24.4162 9.00318 21.4222 9.00318 19.5755 10.8499C17.7288 12.6966 17.7288 15.6907 19.5755 17.5373L22.9192 20.8811L26.263 17.5373ZM27.8449 25.8069C29.6917 27.6537 32.6858 27.6537 34.5325 25.8069C36.3791 23.9602 36.3791 20.9661 34.5325 19.1195C32.6858 17.2728 29.6917 17.2728 27.8449 19.1195L24.5013 22.4632L27.8449 25.8069ZM26.263 34.0764C28.1096 32.2296 28.1096 29.2357 26.263 27.3889L22.9192 24.0452L19.5755 27.3889C17.7288 29.2357 17.7288 32.2296 19.5755 34.0764C21.4222 35.9232 24.4162 35.9232 26.263 34.0764ZM11.3059 25.8069C9.45924 23.9602 9.45924 20.9661 11.3059 19.1195C13.1526 17.2728 16.1467 17.2728 17.9935 19.1195L21.3371 22.4632L17.9935 25.8069C16.1467 27.6537 13.1526 27.6537 11.3059 25.8069Z" fill="#3293FE"/>
</g>
<defs>
<clipPath id="clip0_10_21560">
<rect width="186.305" height="44.4171" fill="white" transform="translate(0.14209 0.799805)"/>
</clipPath>
</defs>
</svg>
