<svg width="159" height="38" viewBox="0 0 159 38" fill="none" xmlns="http://www.w3.org/2000/svg">
<path d="M37.0173 12.9904C37.0174 10.5348 36.2759 8.13632 34.8898 6.10925C33.5038 4.08217 31.5377 2.52098 29.2494 1.63017C26.961 0.739346 24.4569 0.560444 22.0652 1.11688C19.6733 1.67331 17.5054 2.93915 15.8452 4.74858H0.447266V37.2471H32.9581V22.0589C34.2341 20.9177 35.2552 19.5201 35.9546 17.9575C36.6541 16.3949 37.0162 14.7025 37.0173 12.9904ZM30.7619 12.9904C30.7644 14.1671 30.4177 15.3181 29.7657 16.2978C29.1137 17.2773 28.1858 18.0415 27.0993 18.4935C26.0128 18.9455 24.8168 19.0651 23.6623 18.837C22.508 18.609 21.4471 18.0435 20.6142 17.2123C19.7813 16.3811 19.2137 15.3215 18.9832 14.1675C18.7528 13.0136 18.8698 11.8172 19.3196 10.7299C19.7693 9.64242 20.5315 8.71291 21.5097 8.05891C22.488 7.4049 23.6383 7.05581 24.8149 7.0558C26.39 7.0558 27.9008 7.68066 29.0157 8.79326C30.1307 9.90586 30.7587 11.4154 30.7619 12.9904ZM26.7027 30.9917H6.70267V11.004H12.7977C12.68 11.6598 12.618 12.3243 12.6126 12.9904C12.6159 16.2257 13.9025 19.3275 16.1903 21.6153C18.4779 23.9029 21.5797 25.1896 24.8149 25.1928C25.4475 25.1895 26.0787 25.1358 26.7027 25.0324V30.9917Z" fill="#00DAA3"/>
<path d="M47.0176 30.4332V7.56934H53.5629L60.5804 27.1621H61.0865V7.56934H64.8315V30.4332H58.4213L51.2348 10.807H50.7625V30.4332H47.0176Z" fill="#121212"/>
<path d="M79.8353 27.4241L80.7799 27.3241L80.8475 30.0277C78.2833 30.5395 76.0116 30.7954 74.0323 30.7954C71.5357 30.7954 69.7362 30.1166 68.6342 28.7593C67.5545 27.4019 67.0146 25.2324 67.0146 22.2506C67.0146 16.3316 69.455 13.3721 74.3359 13.3721C79.0593 13.3721 81.4211 15.9199 81.4211 21.0157L81.1849 23.619H70.7259C70.7483 24.9987 71.0521 26.0113 71.6369 26.6564C72.2216 27.3019 73.3126 27.6243 74.9096 27.6243C76.5064 27.6243 78.1484 27.5577 79.8353 27.4241ZM77.811 20.8154C77.811 19.1687 77.5411 18.0227 77.0012 17.3774C76.4842 16.7099 75.5955 16.3761 74.3359 16.3761C73.0764 16.3761 72.1542 16.721 71.5694 17.4108C71.007 18.1006 70.7145 19.2354 70.6923 20.8154H77.811Z" fill="#121212"/>
<path d="M92.3463 16.8482H87.6903V24.1914C87.6903 25.5489 87.7916 26.4499 87.9939 26.8949C88.1964 27.3398 88.7137 27.5627 89.546 27.5627L92.3126 27.4624L92.4811 30.3662C90.9742 30.6555 89.8272 30.8003 89.04 30.8003C87.1282 30.8003 85.8123 30.3662 85.0926 29.4985C84.3951 28.6306 84.0467 26.9952 84.0467 24.592V16.8482H81.8872V13.7441H84.0467V8.9043H87.6903V13.7441H92.3463V16.8482Z" fill="#121212"/>
<path d="M92.3589 13.7422H95.9691L98.6342 27.3271H99.309L102.514 14.076H106.293L109.498 27.3271H110.173L112.805 13.7422H116.448L112.872 30.4311H107.035L104.404 18.9825L101.772 30.4311H95.9353L92.3589 13.7422Z" fill="#121212"/>
<path d="M118.795 15.5416C119.965 14.0953 121.899 13.3721 124.599 13.3721C127.297 13.3721 129.22 14.0953 130.367 15.5416C131.538 16.988 132.122 19.1575 132.122 22.0504C132.122 24.9431 131.56 27.1237 130.434 28.5922C129.31 30.0611 127.365 30.7954 124.599 30.7954C121.832 30.7954 119.886 30.0611 118.762 28.5922C117.637 27.1237 117.075 24.9431 117.075 22.0504C117.075 19.1575 117.648 16.988 118.795 15.5416ZM121.561 26.3894C122.079 27.2796 123.092 27.7245 124.599 27.7245C126.106 27.7245 127.118 27.2796 127.635 26.3894C128.152 25.4994 128.411 24.0419 128.411 22.017C128.411 19.992 128.129 18.5568 127.568 17.7112C127.027 16.8656 126.038 16.4428 124.599 16.4428C123.159 16.4428 122.158 16.8656 121.596 17.7112C121.056 18.5568 120.785 19.992 120.785 22.017C120.785 24.0419 121.044 25.4994 121.561 26.3894Z" fill="#121212"/>
<path d="M134.089 30.4281V13.7392H137.733V15.7419C139.644 14.518 141.556 13.7281 143.468 13.3721V17.0103C141.534 17.3885 139.881 17.8781 138.509 18.4789L137.767 18.7793V30.4281H134.089Z" fill="#121212"/>
<path d="M148.27 30.4314H144.593V6.7998H148.27V20.4513L150.363 20.2512L154.344 13.7424H158.46L153.602 21.5529L158.729 30.4314H154.579L150.464 23.3885L148.27 23.6221V30.4314Z" fill="#121212"/>
</svg>
