<svg width="186" height="47" viewBox="0 0 186 47" fill="none" xmlns="http://www.w3.org/2000/svg">
<path d="M67.6163 35.7999C65.2142 35.7999 63.0907 35.3331 61.2458 34.3996C59.4011 33.4446 57.9748 32.0972 56.9668 30.3571C55.9586 28.617 55.4546 26.5692 55.4546 24.2138C55.4546 21.8583 55.9586 19.8106 56.9668 18.0706C57.9748 16.3092 59.4011 14.9618 61.2458 14.0281C63.0907 13.0732 65.2142 12.5957 67.6163 12.5957C69.2466 12.5957 70.6837 12.7655 71.9278 13.105C73.1935 13.4233 74.3516 13.9326 75.4024 14.6329V19.2483C74.4588 18.4843 73.3757 17.9326 72.1532 17.5931C70.9519 17.2323 69.5793 17.052 68.0349 17.052C66.5978 17.052 65.2997 17.3491 64.1415 17.9432C63.0048 18.5162 62.104 19.3437 61.4391 20.426C60.7741 21.5082 60.4414 22.7708 60.4414 24.2138C60.4414 25.6781 60.7418 26.9619 61.3422 28.0652C61.9645 29.1475 62.8331 29.9858 63.9484 30.5799C65.0638 31.1741 66.3509 31.4711 67.8094 31.4711C69.1393 31.4711 70.2974 31.2377 71.2841 30.7709V26.4738H67.6486V22.9088H76.0138V33.6357C73.8902 35.0786 71.0914 35.7999 67.6163 35.7999Z" fill="#121212"/>
<path d="M77.1436 20.0451H81.8409V22.2415C82.4631 21.4988 83.3316 20.9364 84.447 20.5545C85.5624 20.1513 86.8282 19.9497 88.2435 19.9497V23.6101C86.7636 23.6101 85.4551 23.8329 84.3183 24.2786C83.2031 24.7242 82.4308 25.4033 82.0017 26.3158V35.3239H77.1436V20.0451Z" fill="#121212"/>
<path d="M97.5803 35.7992C94.6202 35.7992 92.2926 35.0991 90.5982 33.6984C88.9039 32.2769 88.0566 30.2927 88.0566 27.7464C88.0566 25.2211 88.8075 23.2265 90.3087 21.7622C91.8317 20.298 93.9979 19.5659 96.8081 19.5659C98.6526 19.5659 100.218 19.9055 101.505 20.5844C102.792 21.2635 103.768 22.2078 104.433 23.4173C105.098 24.6057 105.431 25.9532 105.431 27.4598V29.4016H92.6899C93.0331 31.3538 94.8774 32.3299 98.2235 32.3299C99.2102 32.3299 100.229 32.2451 101.28 32.0753C102.331 31.9055 103.243 31.672 104.015 31.375V34.7489C103.264 35.0672 102.299 35.3222 101.119 35.5128C99.9397 35.7039 98.7598 35.7992 97.5803 35.7992ZM100.83 26.2821C100.766 25.2635 100.379 24.4784 99.6716 23.9266C98.9638 23.3537 97.9876 23.0673 96.7436 23.0673C95.521 23.0673 94.5556 23.3537 93.8479 23.9266C93.1403 24.4996 92.754 25.2847 92.6899 26.2821H100.83Z" fill="#121212"/>
<path d="M115.388 35.7992C112.428 35.7992 110.101 35.0991 108.406 33.6984C106.712 32.2769 105.864 30.2927 105.864 27.7464C105.864 25.2211 106.615 23.2265 108.117 21.7622C109.639 20.298 111.806 19.5659 114.616 19.5659C116.461 19.5659 118.026 19.9055 119.314 20.5844C120.6 21.2635 121.576 22.2078 122.241 23.4173C122.906 24.6057 123.239 25.9532 123.239 27.4598V29.4016H110.498C110.841 31.3538 112.686 32.3299 116.032 32.3299C117.018 32.3299 118.037 32.2451 119.088 32.0753C120.139 31.9055 121.051 31.672 121.823 31.375V34.7489C121.072 35.0672 120.107 35.3222 118.927 35.5128C117.747 35.7039 116.568 35.7992 115.388 35.7992ZM118.638 26.2821C118.573 25.2635 118.187 24.4784 117.48 23.9266C116.772 23.3537 115.796 23.0673 114.552 23.0673C113.329 23.0673 112.364 23.3537 111.656 23.9266C110.948 24.4996 110.562 25.2847 110.498 26.2821H118.638Z" fill="#121212"/>
<path d="M124.318 20.0434H129.016V21.9214C129.724 21.1363 130.56 20.5526 131.525 20.1707C132.512 19.7675 133.542 19.5659 134.614 19.5659C136.717 19.5659 138.283 20.1282 139.311 21.2529C140.362 22.3564 140.889 23.8524 140.889 25.741V35.3222H136.03V26.2821C136.03 24.3086 135.107 23.3219 133.262 23.3219C132.447 23.3219 131.686 23.5235 130.978 23.9266C130.271 24.3086 129.67 24.8817 129.177 25.6455V35.3222H124.318V20.0434Z" fill="#121212"/>
<path d="M145.174 17.6878C144.424 17.6878 143.791 17.4437 143.276 16.9556C142.76 16.4676 142.503 15.8522 142.503 15.1095C142.503 14.388 142.76 13.7832 143.276 13.2952C143.791 12.7859 144.424 12.5312 145.174 12.5312C145.925 12.5312 146.557 12.7859 147.072 13.2952C147.587 13.7832 147.844 14.388 147.844 15.1095C147.844 15.8522 147.587 16.4676 147.072 16.9556C146.557 17.4437 145.925 17.6878 145.174 17.6878ZM142.728 20.0432H147.619V35.322H142.728V20.0432Z" fill="#121212"/>
<path d="M155.904 35.7992C154.746 35.7992 153.503 35.672 152.172 35.4175C150.863 35.1841 149.834 34.8447 149.083 34.399V30.6429C149.941 31.1522 150.971 31.566 152.172 31.8843C153.373 32.2026 154.489 32.3617 155.518 32.3617C156.397 32.3617 157.042 32.2875 157.448 32.1389C157.856 31.9903 158.06 31.7145 158.06 31.3114C158.06 30.993 157.942 30.7384 157.706 30.5474C157.471 30.3353 157.105 30.1548 156.612 30.0063C156.14 29.8365 155.346 29.5924 154.231 29.2742C152.923 28.8922 151.893 28.5103 151.143 28.1283C150.413 27.725 149.855 27.2264 149.47 26.6323C149.104 26.0381 148.922 25.2741 148.922 24.3404C148.922 22.7489 149.555 21.5607 150.821 20.7755C152.108 19.9691 153.845 19.5659 156.033 19.5659C157.105 19.5659 158.211 19.6827 159.347 19.9161C160.506 20.1282 161.395 20.4148 162.017 20.7755V24.436C161.395 24.0328 160.581 23.7038 159.572 23.4492C158.585 23.1945 157.62 23.0673 156.677 23.0673C155.796 23.0673 155.111 23.1521 154.617 23.3219C154.146 23.4917 153.909 23.81 153.909 24.2768C153.909 24.68 154.135 24.9877 154.585 25.1999C155.057 25.4121 155.926 25.6774 157.191 25.9956L157.835 26.1548C159.186 26.5155 160.237 26.9187 160.987 27.3644C161.739 27.7888 162.265 28.3087 162.565 28.924C162.887 29.5182 163.047 30.2715 163.047 31.184C163.047 32.5847 162.435 33.7093 161.214 34.5583C159.991 35.3856 158.221 35.7992 155.904 35.7992Z" fill="#121212"/>
<path d="M164.171 11.7998H169.028V21.7946C169.759 21.0519 170.585 20.5001 171.506 20.1394C172.429 19.7574 173.416 19.5664 174.467 19.5664C176.569 19.5664 178.134 20.1288 179.164 21.2535C180.215 22.3569 180.741 23.853 180.741 25.7416V35.3226H175.883V26.2827C175.883 24.3091 174.959 23.3224 173.116 23.3224C172.3 23.3224 171.539 23.524 170.831 23.9272C170.123 24.3091 169.522 24.8821 169.028 25.646V35.3226H164.171V11.7998Z" fill="#121212"/>
<path fill-rule="evenodd" clip-rule="evenodd" d="M23.3671 1.7998C35.5657 1.7998 45.4547 11.6888 45.4547 23.8874C45.4547 36.0862 35.5657 45.9753 23.3671 45.9753C11.1683 45.9753 1.2793 36.0862 1.2793 23.8874C1.2793 11.6888 11.1683 1.7998 23.3671 1.7998ZM44.6069 23.8874C44.6069 12.157 35.0975 2.64754 23.3671 2.64754C22.4208 2.64754 21.4891 2.7094 20.5756 2.82933C21.1658 2.77772 21.763 2.75138 22.3666 2.75138C33.5757 2.75138 42.6625 11.8381 42.6625 23.0472C42.6625 34.2562 33.5757 43.343 22.3666 43.343C11.7546 43.343 3.04489 35.1986 2.14711 24.8193C2.63481 36.1174 11.9487 45.1274 23.3671 45.1274C35.0975 45.1274 44.6069 35.618 44.6069 23.8874ZM41.8147 23.0472C41.8147 12.3063 33.1075 3.59911 22.3666 3.59911C21.4945 3.59911 20.6358 3.65652 19.794 3.76776C20.3123 3.72415 20.8367 3.7019 21.3663 3.7019C31.5857 3.7019 39.8702 11.9864 39.8702 22.2058C39.8702 32.4253 31.5857 40.7098 21.3663 40.7098C11.7035 40.7098 3.77067 33.3032 2.93512 23.8576C3.35993 34.2227 11.8972 42.4954 22.3666 42.4954C33.1075 42.4954 41.8147 33.788 41.8147 23.0472ZM21.3663 4.54964C31.1175 4.54964 39.0225 12.4546 39.0225 22.2058C39.0225 31.957 31.1175 39.8619 21.3663 39.8619C11.841 39.8619 4.07737 32.319 3.72278 22.8804C4.48834 31.3997 11.6475 38.0765 20.3661 38.0765C29.5952 38.0765 37.077 30.5947 37.077 21.3654C37.077 12.1362 29.5952 4.65454 20.3661 4.65454C19.8886 4.65454 19.4158 4.67456 18.9484 4.71381C19.7389 4.60557 20.5461 4.54964 21.3663 4.54964ZM36.2292 21.3654C36.2292 12.6045 29.127 5.50227 20.3661 5.50227C19.6258 5.50227 18.8974 5.55297 18.1842 5.65108C18.5736 5.62061 18.9672 5.60509 19.3645 5.60509C27.6042 5.60509 34.2837 12.2845 34.2837 20.5242C34.2837 28.7637 27.6042 35.4432 19.3645 35.4432C11.6093 35.4432 5.2361 29.5258 4.51372 21.9599C4.82624 30.4454 11.804 37.2287 20.3661 37.2287C29.127 37.2287 36.2292 30.1266 36.2292 21.3654ZM19.3645 6.45281C27.1359 6.45281 33.4358 12.7528 33.4358 20.5242C33.4358 28.2955 27.1359 34.5954 19.3645 34.5954C11.7463 34.5954 5.54205 28.5412 5.30055 20.9817C5.95278 27.6219 11.5526 32.81 18.3642 32.81C25.6142 32.81 31.4915 26.9326 31.4915 19.6828C31.4915 12.4328 25.6142 6.5556 18.3642 6.5556C18.0317 6.5556 17.7022 6.56795 17.376 6.59224C18.0256 6.50034 18.6895 6.45281 19.3645 6.45281ZM30.6437 19.6828C30.6437 12.901 25.146 7.40334 18.3642 7.40334C17.7451 7.40334 17.1368 7.44913 16.5424 7.53755C16.8137 7.51812 17.0876 7.50823 17.364 7.50823C23.6237 7.50823 28.6982 12.5827 28.6982 18.8424C28.6982 25.1021 23.6237 30.1765 17.364 30.1765C11.4983 30.1765 6.6733 25.7209 6.08909 20.0095C6.26228 26.6402 11.6918 31.9622 18.3642 31.9622C25.146 31.9622 30.6437 26.4645 30.6437 19.6828ZM17.364 8.35597C23.1555 8.35597 27.8504 13.0509 27.8504 18.8424C27.8504 24.634 23.1555 29.3289 17.364 29.3289C11.6461 29.3289 6.99716 24.7527 6.87975 19.063C7.40794 23.8333 11.4525 27.5433 16.3636 27.5433C21.6337 27.5433 25.9059 23.2712 25.9059 18.0011C25.9059 12.731 21.6337 8.45875 16.3636 8.45875C16.1621 8.45875 15.962 8.465 15.7636 8.47731C16.2854 8.39741 16.8198 8.35597 17.364 8.35597ZM25.0583 18.0011C25.0583 13.1992 21.1656 9.3065 16.3636 9.3065C15.8814 9.3065 15.4084 9.34574 14.9475 9.42123C15.0849 9.414 15.2231 9.41033 15.3623 9.41033C19.6426 9.41033 23.1125 12.8803 23.1125 17.1607C23.1125 21.4412 19.6426 24.9111 15.3623 24.9111C11.4043 24.9111 8.13932 21.9443 7.66977 18.1133C7.72989 22.8635 11.5992 26.6956 16.3636 26.6956C21.1656 26.6956 25.0583 22.8029 25.0583 18.0011ZM15.3623 10.2581C19.1745 10.2581 22.2649 13.3484 22.2649 17.1607C22.2649 20.9731 19.1745 24.0634 15.3623 24.0634C11.55 24.0634 8.45954 20.9731 8.45954 17.1607C8.45954 17.1516 8.45957 17.1425 8.45959 17.1333C8.8565 20.0385 11.3478 22.2768 14.3619 22.2768C17.6521 22.2768 20.3193 19.6096 20.3193 16.3194C20.3193 13.0291 17.6521 10.3619 14.3619 10.3619C14.2875 10.3619 14.2135 10.3633 14.1397 10.366C14.5365 10.2951 14.945 10.2581 15.3623 10.2581ZM19.4716 16.3194C19.4716 13.4974 17.184 11.2097 14.3619 11.2097C11.5399 11.2097 9.25219 13.4974 9.25219 16.3194C9.25219 19.1414 11.5399 21.4291 14.3619 21.4291C17.184 21.4291 19.4716 19.1414 19.4716 16.3194Z" fill="#FEC554"/>
</svg>
