<svg width="184" height="45" viewBox="0 0 184 45" fill="none" xmlns="http://www.w3.org/2000/svg">
<path d="M58.2574 33.3996C59.6566 34.0306 61.375 34.3465 63.4121 34.3465C65.3263 34.3465 66.9723 34.0508 68.3516 33.4606C69.7304 32.8704 70.79 32.0456 71.5309 30.9867C72.2927 29.9077 72.673 28.6557 72.673 27.2304C72.673 25.8459 72.3135 24.6752 71.5931 23.7181C70.893 22.741 69.9161 21.9775 68.6601 21.4279C67.4047 20.8578 65.954 20.5014 64.3075 20.359L62.5789 20.2063C61.5498 20.1247 60.8089 19.8501 60.3562 19.3816C59.9034 18.9135 59.6769 18.3635 59.6769 17.7327C59.6769 17.2437 59.8009 16.796 60.0471 16.3888C60.2945 15.9612 60.6647 15.6253 61.1587 15.3808C61.6733 15.1367 62.301 15.0145 63.0419 15.0145C63.8236 15.0145 64.4722 15.1569 64.9866 15.4421C65.0999 15.5023 65.2075 15.5667 65.3084 15.6351L65.3329 15.6521C65.3706 15.6779 65.4078 15.7047 65.4441 15.7317C65.7566 15.9681 66.0054 16.2481 66.1905 16.572C66.4577 17.02 66.5924 17.5187 66.5924 18.0685H71.5309C71.5309 16.6025 71.1912 15.3299 70.5126 14.251C69.8334 13.1516 68.8559 12.3067 67.58 11.7161C66.3242 11.1053 64.8118 10.7998 63.0419 10.7998C61.354 10.7998 59.8932 11.0851 58.6581 11.6551C57.4237 12.2049 56.4564 12.9989 55.7568 14.0371C55.0771 15.0754 54.7375 16.3074 54.7375 17.7327C54.7375 19.7074 55.407 21.2953 56.7445 22.4969C58.082 23.698 59.8727 24.3902 62.1159 24.5734L63.8139 24.7261C65.1922 24.8483 66.1905 25.1233 66.8081 25.5505C67.4251 25.9578 67.7341 26.5178 67.7341 27.2304C67.7341 27.5579 67.68 27.865 67.5714 28.1519C67.4909 28.3648 67.3807 28.5668 67.2405 28.7575C66.9105 29.1848 66.4272 29.5208 65.7893 29.7655C65.1513 30.0095 64.359 30.1317 63.4121 30.1317C62.3626 30.1317 61.5086 29.9894 60.8503 29.7038C60.1915 29.3987 59.6978 29.0017 59.368 28.5131C59.0595 28.0243 58.9055 27.4952 58.9055 26.9249H53.9971C53.9971 28.3706 54.3571 29.6529 55.0771 30.7729C55.7976 31.8725 56.8577 32.7479 58.2574 33.3996Z" fill="#121212"/>
<path d="M84.5388 34.3044C82.8307 34.3044 81.4519 34.1005 80.4025 33.6935C79.3526 33.2657 78.5811 32.5635 78.087 31.5864C77.6138 30.5886 77.3772 29.2451 77.3772 27.555V20.928H74.8149V17.3548H77.3772V12.835H81.9766V17.3548H86.9161V20.928H81.9766V27.7385C81.9766 28.5325 82.1826 29.1433 82.594 29.5705C83.026 29.9777 83.6333 30.1814 84.4155 30.1814H86.9161V34.3044H84.5388Z" fill="#121212"/>
<path fill-rule="evenodd" clip-rule="evenodd" d="M94.0272 34.0664C95.1383 34.5548 96.4146 34.7995 97.8552 34.7995C99.2747 34.7995 100.531 34.5548 101.621 34.0664C102.712 33.5776 103.618 32.8956 104.338 32.0203C105.058 31.1446 105.542 30.1468 105.788 29.0272H101.251C101.045 29.5359 100.654 29.9637 100.078 30.3097C99.5016 30.6559 98.7602 30.8288 97.8552 30.8288C97.2943 30.8288 96.793 30.7633 96.3514 30.6321C96.0153 30.5323 95.714 30.3946 95.4474 30.2185C94.8298 29.8108 94.377 29.2408 94.0889 28.5081C94.0089 28.2993 93.9405 28.081 93.8829 27.8535C93.8243 27.6231 93.7768 27.3833 93.7412 27.1337H106.097V25.4846C106.097 23.9575 105.768 22.5528 105.11 21.2702C104.451 19.9668 103.494 18.9184 102.239 18.1244C101.004 17.31 99.4807 16.9028 97.6695 16.9028C96.2907 16.9028 95.0556 17.1472 93.965 17.6358C92.8957 18.104 92.0003 18.7453 91.2798 19.5597C90.5598 20.3741 90.004 21.3006 89.6124 22.3391C89.2422 23.3568 89.0571 24.4257 89.0571 25.5455V26.1563C89.0571 27.2355 89.2422 28.2942 89.6124 29.3327C90.004 30.3506 90.5598 31.2768 91.2798 32.1117C92.0207 32.9259 92.936 33.5776 94.0272 34.0664ZM93.8263 24.1138C93.8401 24.0492 93.8543 23.9855 93.8701 23.9229C93.9129 23.7502 93.9624 23.5848 94.0186 23.4266C94.0501 23.3367 94.0838 23.2488 94.12 23.1636C94.4286 22.4101 94.8814 21.8401 95.4779 21.4533C95.7013 21.3087 95.943 21.1912 96.2025 21.1008C96.639 20.949 97.1285 20.873 97.6695 20.873C98.514 20.873 99.213 21.0666 99.7688 21.4533C100.345 21.8197 100.777 22.3592 101.065 23.0718C101.089 23.1294 101.111 23.1879 101.132 23.2471C101.167 23.3416 101.198 23.4385 101.228 23.5378C101.271 23.6856 101.309 23.8386 101.343 23.9966C101.367 24.1132 101.388 24.2325 101.407 24.3547H93.7789C93.7931 24.273 93.8089 24.1928 93.8263 24.1138Z" fill="#121212"/>
<path d="M108.385 34.1577V17.422H112.306V21.6371C112.359 21.3866 112.42 21.1461 112.488 20.9154C112.546 20.7212 112.608 20.5337 112.676 20.3539C113.109 19.2135 113.757 18.3587 114.621 17.7884C115.485 17.198 116.545 16.9028 117.801 16.9028H118.016C119.293 16.9028 120.352 17.198 121.196 17.7884C122.061 18.3587 122.709 19.2135 123.141 20.3539L123.175 20.4399L123.204 20.5186C123.224 20.463 123.244 20.4082 123.264 20.3539C123.717 19.2135 124.376 18.3587 125.24 17.7884C126.105 17.198 127.165 16.9028 128.42 16.9028H128.636C129.912 16.9028 130.982 17.198 131.846 17.7884C132.731 18.3587 133.401 19.2135 133.852 20.3539C134.305 21.4941 134.532 22.9192 134.532 24.6295V34.1577H129.593V24.3546C129.593 23.4383 129.346 22.6952 128.852 22.1253C128.379 21.555 127.7 21.2699 126.815 21.2699C125.93 21.2699 125.23 21.5653 124.716 22.1557C124.201 22.7258 123.944 23.4893 123.944 24.4463V34.1577H118.974V24.3546C118.974 23.4383 118.727 22.6952 118.233 22.1253C117.759 21.555 117.09 21.2699 116.227 21.2699C115.32 21.2699 114.611 21.5653 114.096 22.1557C113.582 22.7258 113.324 23.4893 113.324 24.4463V34.1577H108.385Z" fill="#121212"/>
<path fill-rule="evenodd" clip-rule="evenodd" d="M148.383 30.6889V33.9135H152.305V23.6522C152.305 22.1047 151.995 20.8426 151.378 19.865C150.76 18.8675 149.856 18.1244 148.661 17.6358C147.489 17.1472 146.038 16.9028 144.31 16.9028C143.935 16.9028 143.543 16.9067 143.136 16.9148C142.895 16.9198 142.648 16.9259 142.395 16.9332C141.716 16.9537 141.057 16.9842 140.42 17.025L139.933 17.0575C139.682 17.0746 139.447 17.0916 139.225 17.1088C139.059 17.1216 138.902 17.1344 138.753 17.1472V21.2702C139.391 21.2293 140.1 21.1885 140.883 21.1479C141.101 21.1367 141.318 21.126 141.533 21.1162C141.844 21.1019 142.15 21.0897 142.455 21.0788C142.694 21.0702 142.931 21.0626 143.167 21.0563C143.907 21.0358 144.504 21.0257 144.957 21.0257C145.863 21.0257 146.521 21.2394 146.933 21.667C147.344 22.0946 147.551 22.7359 147.551 23.5911V23.6522H144.495C142.992 23.6522 141.665 23.8456 140.512 24.2324C139.36 24.5988 138.464 25.1791 137.827 25.9732C137.189 26.747 136.869 27.7446 136.869 28.9661C136.869 30.0861 137.126 31.0531 137.641 31.8674C138.156 32.6614 138.865 33.2723 139.771 33.6995C140.698 34.1273 141.768 34.3412 142.982 34.3412C144.154 34.3412 145.142 34.1273 145.945 33.6995C146.769 33.2723 147.407 32.6614 147.859 31.8674C147.938 31.7337 148.013 31.5949 148.083 31.4506C148.181 31.2468 148.267 31.032 148.344 30.8074L148.383 30.6889ZM147.551 27.7141V26.3702H144.464C143.599 26.3702 142.931 26.5839 142.457 27.0115C142.004 27.4188 141.777 27.9787 141.777 28.6912C141.777 29.0267 141.835 29.3314 141.947 29.6063C142.06 29.8818 142.23 30.1264 142.457 30.3403C142.931 30.7479 143.599 30.9513 144.464 30.9513C144.628 30.9513 144.787 30.9432 144.94 30.927C145.065 30.9143 145.188 30.8957 145.305 30.872C145.533 30.8261 145.745 30.7611 145.945 30.6763C146.398 30.473 146.769 30.137 147.056 29.6684C147.344 29.2002 147.509 28.5487 147.551 27.7141Z" fill="#121212"/>
<path d="M154.163 33.8522V17.1165H158.084V22.6407C158.272 21.0637 158.746 19.7922 159.504 18.8268C160.533 17.5441 162.014 16.9028 163.949 16.9028H164.597V21.1172H163.363C162.004 21.1172 160.954 21.4836 160.214 22.2167C159.473 22.9293 159.102 23.9677 159.102 25.3316V33.8522H154.163Z" fill="#121212"/>
<path d="M171.309 26.2918H172.945L178.285 34.1099H183.842L177.07 24.5083L182.638 17.3742H177.452L171.309 25.3318V11.8159H166.37V34.1099H171.309V26.2918Z" fill="#121212"/>
<path fill-rule="evenodd" clip-rule="evenodd" d="M22.3333 44.1274C34.2978 44.1274 43.9972 34.4282 43.9972 22.4636C43.9972 10.499 34.2978 0.799805 22.3333 0.799805C10.3686 0.799805 0.669434 10.499 0.669434 22.4636C0.669434 34.4282 10.3686 44.1274 22.3333 44.1274ZM29.0917 10.8917C29.4206 9.7232 28.2866 9.0322 27.251 9.77005L12.7937 20.0693C11.6706 20.8695 11.8472 22.4636 13.0591 22.4636H16.8661V22.4341H24.2857L18.2401 24.5673L15.5749 34.0356C15.246 35.2042 16.3799 35.8951 17.4155 35.1573L31.8728 24.8581C32.9961 24.0578 32.8193 22.4636 31.6075 22.4636H25.8343L29.0917 10.8917Z" fill="#AB79FF"/>
</svg>
