<svg width="40" height="40" viewBox="0 0 40 40" fill="none" xmlns="http://www.w3.org/2000/svg">
<path d="M2.5 14.5C2.5 10.2996 2.5 8.19941 3.31745 6.59507C4.0365 5.18386 5.18386 4.0365 6.59507 3.31745C8.19941 2.5 10.2996 2.5 14.5 2.5H25.5C29.7004 2.5 31.8006 2.5 33.4049 3.31745C34.8161 4.0365 35.9635 5.18386 36.6825 6.59507C37.5 8.19941 37.5 10.2996 37.5 14.5V25.5C37.5 29.7004 37.5 31.8006 36.6825 33.4049C35.9635 34.8161 34.8161 35.9635 33.4049 36.6825C31.8006 37.5 29.7004 37.5 25.5 37.5H14.5C10.2996 37.5 8.19941 37.5 6.59507 36.6825C5.18386 35.9635 4.0365 34.8161 3.31745 33.4049C2.5 31.8006 2.5 29.7004 2.5 25.5V14.5Z" fill="url(#paint0_linear_10_21135)"/>
<path d="M30.344 12.5333C28.4518 10.9333 26.1812 10.1333 23.7844 10L23.406 10.4C25.5505 10.9333 27.4427 12 29.2087 13.4667C27.0642 12.2667 24.6674 11.4667 22.1445 11.2C21.3876 11.0667 20.7569 11.0667 20 11.0667C19.2431 11.0667 18.6124 11.0667 17.8555 11.2C15.3326 11.4667 12.9358 12.2667 10.7913 13.4667C12.5573 12 14.4495 10.9333 16.594 10.4L16.2156 10C13.8188 10.1333 11.5482 10.9333 9.65596 12.5333C7.51147 16.8 6.37615 21.6 6.25 26.5333C8.1422 28.6667 10.7913 30 13.5665 30C13.5665 30 14.4495 28.9333 15.0803 28C13.4404 27.6 11.9266 26.6667 10.9174 25.2C11.8005 25.7333 12.6835 26.2667 13.5665 26.6667C14.7018 27.2 15.8372 27.4667 16.9725 27.7333C17.9817 27.8667 18.9908 28 20 28C21.0092 28 22.0183 27.8667 23.0275 27.7333C24.1628 27.4667 25.2982 27.2 26.4335 26.6667C27.3165 26.2667 28.1995 25.7333 29.0826 25.2C28.0734 26.6667 26.5596 27.6 24.9197 28C25.5505 28.9333 26.4335 30 26.4335 30C29.2087 30 31.8578 28.6667 33.75 26.5333C33.6239 21.6 32.4885 16.8 30.344 12.5333ZM15.8372 24.1333C14.5757 24.1333 13.4404 22.9333 13.4404 21.4667C13.4404 20 14.5757 18.8 15.8372 18.8C17.0986 18.8 18.2339 20 18.2339 21.4667C18.2339 22.9333 17.0986 24.1333 15.8372 24.1333ZM24.1628 24.1333C22.9014 24.1333 21.7661 22.9333 21.7661 21.4667C21.7661 20 22.9014 18.8 24.1628 18.8C25.4243 18.8 26.5596 20 26.5596 21.4667C26.5596 22.9333 25.4243 24.1333 24.1628 24.1333Z" fill="white"/>
<defs>
<linearGradient id="paint0_linear_10_21135" x1="20" y1="2.5" x2="20" y2="37.5" gradientUnits="userSpaceOnUse">
<stop stop-color="#687EC9"/>
<stop offset="1" stop-color="#5971C3"/>
</linearGradient>
</defs>
</svg>
