<svg width="60" height="60" viewBox="0 0 60 60" fill="none" xmlns="http://www.w3.org/2000/svg">
<path d="M56.2528 30.583C56.2528 28.4247 56.0741 26.8497 55.6874 25.2164H30.5386V34.9579H45.3003C45.0028 37.3788 43.3957 41.0247 39.8242 43.4745L39.7741 43.8007L47.7257 49.8375L48.2766 49.8914C53.3361 45.3121 56.2528 38.5746 56.2528 30.583" fill="#4285F4"/>
<path d="M30.5365 56.25C37.7685 56.25 43.8398 53.9165 48.2745 49.8916L39.8221 43.4747C37.5602 45.0206 34.5244 46.0998 30.5365 46.0998C23.4532 46.0998 17.4414 41.5207 15.2983 35.1915L14.9842 35.2176L6.71604 41.4885L6.60791 41.7831C11.0126 50.3581 20.0602 56.25 30.5365 56.25Z" fill="#34A853"/>
<path d="M15.3004 35.1916C14.735 33.5583 14.4077 31.8082 14.4077 29.9999C14.4077 28.1915 14.735 26.4416 15.2707 24.8082L15.2557 24.4604L6.88391 18.0888L6.61 18.2165C4.79461 21.7749 3.75293 25.7708 3.75293 29.9999C3.75293 34.2291 4.79461 38.2248 6.61 41.7832L15.3004 35.1916" fill="#FBBC05"/>
<path d="M30.5366 13.8999C35.5663 13.8999 38.9591 16.0291 40.8937 17.8084L48.4532 10.575C43.8105 6.34584 37.7686 3.75 30.5366 3.75C20.0603 3.75 11.0126 9.64162 6.60791 18.2166L15.2686 24.8083C17.4414 18.4792 23.4533 13.8999 30.5366 13.8999" fill="#EB4335"/>
</svg>
