<svg width="28" height="22" viewBox="0 0 28 22" fill="none" xmlns="http://www.w3.org/2000/svg">
<path d="M20.25 21H26.5V18.5C26.5 16.4289 24.8211 14.75 22.75 14.75C21.5555 14.75 20.4914 15.3085 19.8047 16.1786M20.25 21H7.75M20.25 21V18.5C20.25 17.6797 20.092 16.8963 19.8047 16.1786M7.75 21H1.5V18.5C1.5 16.4289 3.17893 14.75 5.25 14.75C6.44451 14.75 7.50857 15.3085 8.19531 16.1786M7.75 21V18.5C7.75 17.6797 7.90803 16.8963 8.19531 16.1786M8.19531 16.1786C9.11688 13.8763 11.3685 12.25 14 12.25C16.6315 12.25 18.8831 13.8763 19.8047 16.1786M17.75 4.75C17.75 6.82107 16.0711 8.5 14 8.5C11.9289 8.5 10.25 6.82107 10.25 4.75C10.25 2.67893 11.9289 1 14 1C16.0711 1 17.75 2.67893 17.75 4.75ZM25.25 8.5C25.25 9.88071 24.1307 11 22.75 11C21.3693 11 20.25 9.88071 20.25 8.5C20.25 7.11929 21.3693 6 22.75 6C24.1307 6 25.25 7.11929 25.25 8.5ZM7.75 8.5C7.75 9.88071 6.63071 11 5.25 11C3.86929 11 2.75 9.88071 2.75 8.5C2.75 7.11929 3.86929 6 5.25 6C6.63071 6 7.75 7.11929 7.75 8.5Z" stroke="#1AE5BE" stroke-width="2" stroke-linecap="round" stroke-linejoin="round"/>
</svg>
