<svg width="26" height="25" viewBox="0 0 26 25" fill="none" xmlns="http://www.w3.org/2000/svg">
<path d="M19.25 6H21.75C23.1307 6 24.25 7.11929 24.25 8.5V16C24.25 17.3807 23.1307 18.5 21.75 18.5H19.25V23.5L14.25 18.5H9.25C8.55964 18.5 7.93464 18.2202 7.48223 17.7678M7.48223 17.7678L11.75 13.5H16.75C18.1307 13.5 19.25 12.3807 19.25 11V3.5C19.25 2.11929 18.1307 1 16.75 1H4.25C2.86929 1 1.75 2.11929 1.75 3.5V11C1.75 12.3807 2.86929 13.5 4.25 13.5H6.75V18.5L7.48223 17.7678Z" stroke="#1AE5BE" stroke-width="2" stroke-linecap="round" stroke-linejoin="round"/>
</svg>
