<svg width="45" height="45" viewBox="0 0 45 45" fill="none" xmlns="http://www.w3.org/2000/svg">
<path d="M22.5 2.8125C11.6411 2.8125 2.8125 11.6411 2.8125 22.5C2.8125 33.3589 11.6411 42.1875 22.5 42.1875C33.3589 42.1875 42.1875 33.3589 42.1875 22.5C42.1875 11.6411 33.3589 2.8125 22.5 2.8125Z" fill="#FDDD4C"/>
<path d="M13.8781 27.633C13.4476 26.9813 14.5303 25.9949 14.0899 25.1667C13.8361 24.689 13.4211 24.3914 12.9228 24.3289C12.4445 24.2689 11.9518 24.444 11.6378 24.7862C11.1419 25.3257 11.0648 26.0602 11.1607 26.3201C11.1958 26.4153 11.251 26.4413 11.2905 26.4469C11.5605 26.4824 11.7125 25.7893 11.8057 25.645C12.0635 25.2471 12.6489 25.1267 13.0531 25.3882C13.8197 25.884 13.155 26.6853 13.2124 27.362C13.2681 28.021 13.6787 28.2858 14.0473 28.3137C14.4058 28.3273 14.6566 28.128 14.7199 27.9826C14.8717 27.6355 14.2323 28.1693 13.8781 27.633Z" fill="black"/>
<path d="M29.8936 21.6504C29.6926 21.6226 29.4728 21.6232 29.2442 21.6504C29.0706 21.4314 28.9151 21.0768 28.8274 20.6629C28.6713 19.9266 28.6876 19.3932 29.1233 19.3239C29.5589 19.2546 29.7695 19.7001 29.9256 20.4364C30.0303 20.9314 30.0102 21.3862 29.8936 21.6504Z" fill="black"/>
<path d="M25.1221 22.0885C25.1393 22.2552 25.1454 22.4239 25.1405 22.5793C25.5621 22.604 25.8606 22.8042 25.9401 22.9312C25.9809 22.9968 25.9646 23.0395 25.9514 23.0593C25.9078 23.1272 25.8143 23.1167 25.6184 23.0947C25.4473 23.0755 25.263 23.0587 25.0715 23.0675C24.9673 23.387 24.6583 23.417 24.4412 23.1806C24.2896 23.2268 23.9917 23.417 23.9029 23.2103C23.9022 23.1077 24.0094 22.9586 24.2037 22.827C24.0711 22.574 23.9822 22.3032 23.9297 22.0228C23.6543 22.0724 23.4066 22.1496 23.2124 22.21C23.1212 22.2384 22.7605 22.4014 22.7182 22.2177C22.69 22.0909 22.8875 21.8818 23.0962 21.7308C23.3295 21.5652 23.5882 21.4475 23.8564 21.3796C23.8507 20.9802 23.9526 20.7016 24.2427 20.6554C24.6025 20.5982 24.8255 20.8752 24.9798 21.3881C25.4146 21.5089 25.8488 21.8085 26.0405 22.1181C26.1151 22.2382 26.1295 22.331 26.0812 22.3799C25.9607 22.5048 25.2931 22.1427 25.1221 22.0885Z" fill="black"/>
<path d="M27.9812 23.8834C28.257 24.0171 28.5603 23.9645 28.6594 23.7659C28.7584 23.5673 28.6149 23.2981 28.3391 23.1645C28.0633 23.0308 27.7599 23.0834 27.6608 23.282C27.5618 23.4806 27.7053 23.7498 27.9812 23.8834Z" fill="black"/>
<path d="M29.3388 22.8972C29.3438 22.5934 29.53 22.3508 29.7538 22.3545C29.9776 22.3588 30.155 22.6076 30.15 22.9108C30.1449 23.214 29.9588 23.4565 29.735 23.4528C29.5112 23.4491 29.3338 23.2003 29.3388 22.8972Z" fill="black"/>
<path fill-rule="evenodd" clip-rule="evenodd" d="M35.4072 26.6177C35.4116 26.6332 35.4054 26.6114 35.4072 26.6177C35.8567 26.6177 36.5625 27.1276 36.5625 28.3595C36.5625 29.5852 36.0472 30.9737 35.9256 31.2818C34.0696 35.6725 29.6398 38.1165 24.3631 37.9618C19.4437 37.8177 15.2483 35.2554 13.4123 31.0783C12.3022 31.0795 11.1576 30.5975 10.2875 29.8364C9.37045 29.0345 8.80505 27.9969 8.69473 26.9147C8.60885 26.072 8.71353 25.288 8.98119 24.6043L7.95005 23.7418C3.23124 19.809 17.99 3.61638 22.7101 7.68031C22.7339 7.70073 24.316 9.23275 24.3198 9.23647C26.5957 8.28261 32.6937 6.4665 32.7006 10.6942C32.7031 12.0982 31.7967 13.7354 30.3443 15.221C32.0228 16.7575 31.5802 18.9401 31.8475 20.9426L32.4304 21.1022C33.5418 21.4097 34.3322 21.8199 34.719 22.2209C35.1057 22.6212 35.2976 23.0092 35.3671 23.464C35.4323 23.8309 35.4235 24.4787 34.9334 25.2033C35.1099 25.6706 35.271 26.1366 35.4072 26.6177ZM13.3289 29.9391C13.4938 29.9429 13.6574 29.9323 13.8178 29.9051C15.5423 29.6149 15.9936 27.7661 15.7096 25.9507C15.3887 23.9008 13.984 23.1781 13.0305 23.1267C12.7654 23.1131 12.519 23.1366 12.3159 23.1769C10.6141 23.5153 9.65316 24.9446 9.84246 26.8009C10.0136 28.4808 11.7349 29.8971 13.3289 29.9391ZM9.47451 23.6805C10.0456 22.8619 10.9789 22.2698 12.0383 22.0662C13.3866 18.4936 15.6382 15.2018 18.6181 12.9366C20.8296 11.1156 23.2147 9.80943 23.2147 9.80943C23.2147 9.80943 21.9303 8.33928 21.5423 8.231C19.156 7.59493 14.0021 11.1032 10.7113 15.7389C9.37986 17.6143 7.47366 20.9357 8.38507 22.6441C8.49727 22.8557 9.13351 23.3996 9.47451 23.6805ZM28.8217 29.1187C28.8255 29.157 28.8017 29.1967 28.7672 29.2109C28.7672 29.2109 26.8497 30.0914 23.8039 29.1614C23.9135 30.0744 25.0206 30.4204 25.7941 30.5455C29.5683 31.1865 33.0967 29.0562 33.8909 28.5197C34.0273 28.4276 33.8893 28.6644 33.8646 28.6992C32.8924 29.9373 30.2785 31.3709 26.8779 31.3703C25.3948 31.3697 23.9124 30.8543 23.3683 30.0617C22.5239 28.8322 23.3263 27.0372 24.7335 27.2241C27.1122 27.4892 29.5508 27.29 31.7528 26.2811C33.6728 25.4013 34.398 24.4335 34.289 23.6496C34.1198 22.4346 32.3185 22.2446 31.408 21.9493C31.0119 21.8199 30.8163 21.7166 30.7718 20.9809C30.7524 20.6598 30.696 19.5392 30.6753 19.0758C30.6389 18.2646 30.5399 17.1552 29.8428 16.6973C29.6611 16.5779 29.4592 16.5204 29.2467 16.5092C29.0773 16.5011 28.9768 16.5244 28.9228 16.5369C28.9107 16.5397 28.9009 16.542 28.8932 16.5433C28.5168 16.6064 28.2862 16.7969 28.0142 17.0214C27.9985 17.0343 27.9827 17.0474 27.9667 17.0605C27.0973 17.7758 26.3633 17.8927 25.5465 17.8581C25.2922 17.8475 25.03 17.8221 24.7534 17.7952C24.4991 17.7706 24.2325 17.7448 23.9487 17.7282L23.6021 17.7084C22.2343 17.6391 20.7675 18.8048 20.5237 20.4606C20.2513 22.3087 21.2843 23.4408 21.9561 24.177C22.1221 24.3589 22.2661 24.5166 22.3628 24.655C22.4249 24.7386 22.497 24.8561 22.497 24.9681C22.497 25.1018 22.4092 25.2076 22.3233 25.2979C20.928 26.7142 20.4817 28.9646 21.0076 30.84C21.0734 31.0739 21.1568 31.2979 21.2552 31.512C22.4888 34.3576 26.3163 35.683 30.0547 34.4777C32.6748 33.6328 34.9897 31.5914 35.4612 28.7753C35.5734 28.0414 35.4085 27.7581 35.1841 27.6213C34.9465 27.4772 34.6619 27.5273 34.6619 27.5273C34.6619 27.5273 34.5322 26.6505 34.1649 25.8536C33.0748 26.7025 31.6719 27.299 30.6038 27.6015C28.8925 28.0861 27.0439 28.2748 25.2755 28.0463C24.5582 27.9536 24.0763 27.8913 23.8697 28.5538C26.2285 29.4064 28.7252 29.0413 28.7252 29.0413C28.7735 29.0364 28.8167 29.071 28.8217 29.1187ZM22.0162 12.5728C20.7262 13.2243 19.2857 14.3844 18.116 15.7191C18.0747 15.7667 18.1361 15.8323 18.1869 15.7958C19.1973 15.07 20.5826 14.3956 22.3973 13.9587C24.4301 13.4693 26.3871 13.6747 27.5825 13.9451C27.6427 13.9587 27.6803 13.8567 27.627 13.827C26.8372 13.3895 25.6249 13.0925 24.7649 13.0863C24.7229 13.0857 24.699 13.0374 24.7241 13.004C24.8727 12.8066 25.0764 12.6117 25.2626 12.4707C25.3039 12.4385 25.2789 12.3723 25.2262 12.3754C24.1564 12.4402 21.7128 13.5544 21.7216 13.5139C21.7843 13.2169 21.9817 12.8246 22.0839 12.6414C22.1083 12.5981 22.0607 12.5505 22.0162 12.5728Z" fill="black"/>
</svg>
