<svg width="50" height="50" viewBox="0 0 50 50" fill="none" xmlns="http://www.w3.org/2000/svg">
<path d="M44.6874 23.1246C47.276 23.1246 49.3745 21.0261 49.3745 18.4375V18.4375C49.3745 15.8489 47.2758 13.7504 44.6872 13.7504V13.7504C42.0984 13.7504 39.9995 15.8491 39.9995 18.4379V23.1246H44.6874ZM31.562 23.1246C34.1508 23.1246 36.2495 21.026 36.2495 18.4371V5.31293C36.2495 2.72409 34.1508 0.625427 31.562 0.625427V0.625427C28.9732 0.625427 26.8745 2.72409 26.8745 5.31293V18.4371C26.8745 21.026 28.9732 23.1246 31.562 23.1246V23.1246Z" fill="#2EB67D"/>
<path d="M5.31161 26.8754C2.723 26.8754 0.624515 28.9739 0.624515 31.5625V31.5625C0.624515 34.1511 2.7232 36.2496 5.31181 36.2496V36.2496C7.90065 36.2496 9.99951 34.1509 9.99951 31.5621V26.8754H5.31161ZM18.437 26.8754C15.8482 26.8754 13.7495 28.9741 13.7495 31.5629V44.6871C13.7495 47.2759 15.8482 49.3746 18.437 49.3746V49.3746C21.0258 49.3746 23.1245 47.2759 23.1245 44.6871V31.5629C23.1245 28.9741 21.0258 26.8754 18.437 26.8754V26.8754Z" fill="#E01E5A"/>
<path d="M26.8748 44.688C26.8748 47.2766 28.9733 49.3751 31.5619 49.3751V49.3751C34.1505 49.3751 36.249 47.2764 36.249 44.6878V44.6878C36.249 42.0989 34.1504 40.0001 31.5615 40.0001L26.8748 40.0001L26.8748 44.688ZM26.8748 31.5626C26.8748 34.1514 28.9735 36.2501 31.5623 36.2501L44.6865 36.2501C47.2754 36.2501 49.374 34.1514 49.374 31.5626V31.5626C49.374 28.9737 47.2754 26.8751 44.6865 26.8751L31.5623 26.8751C28.9735 26.8751 26.8748 28.9737 26.8748 31.5626V31.5626Z" fill="#ECB22E"/>
<path d="M23.1237 5.31216C23.1237 2.72355 21.0252 0.625064 18.4366 0.625064V0.625064C15.848 0.625063 13.7495 2.72375 13.7495 5.31236V5.31236C13.7495 7.90119 15.8482 10.0001 18.437 10.0001L23.1237 10.0001L23.1237 5.31216ZM23.1237 18.4376C23.1237 15.8487 21.025 13.7501 18.4362 13.7501L5.31201 13.7501C2.72318 13.7501 0.624512 15.8487 0.624512 18.4376V18.4376C0.624512 21.0264 2.72318 23.1251 5.31201 23.1251L18.4362 23.1251C21.025 23.1251 23.1237 21.0264 23.1237 18.4376V18.4376Z" fill="#36C5F0"/>
</svg>
