<svg width="40" height="40" viewBox="0 0 40 40" fill="none" xmlns="http://www.w3.org/2000/svg">
<path d="M25 20.0087C24.999 21.4949 24.7273 22.9177 24.232 24.2311C22.9189 24.7269 21.4954 24.9991 20.0086 25.0001H19.9914C18.5054 24.9991 17.0824 24.7276 15.7691 24.2321C15.2739 22.9191 15.001 21.4957 15 20.0091V19.9919C15.001 18.5056 15.2731 17.0829 15.7679 15.7696C17.0816 15.2741 18.5049 15.0014 19.9914 15.0004H20.0086C21.4954 15.0014 22.9189 15.2741 24.2319 15.7696C24.7269 17.0829 24.9989 18.5057 24.9999 19.9919L25 20.0087ZM39.722 16.6667H28.0474L36.3024 8.4117C35.6543 7.50149 34.9314 6.64693 34.1411 5.8569C33.3517 5.06763 32.4977 4.34466 31.5884 3.6971L23.3334 11.9521V0.2782C22.2353 0.0936923 21.1239 0.000639593 20.0104 0H19.9891C18.8759 0.000594714 17.7646 0.0935804 16.6666 0.278V11.9527L8.4116 3.6977C7.50189 4.34549 6.64777 5.06799 5.8581 5.8577L5.8551 5.8604C5.06651 6.64947 4.345 7.50281 3.698 8.4116L11.953 16.6666H0.278C0.278 16.6666 0.0004 18.8596 0 19.9926V20.0071C0.000416601 21.1217 0.0934029 22.2344 0.278 23.3337H11.9526L3.6976 31.5887C4.99577 33.4113 6.58899 35.0046 8.4116 36.3027L16.6666 28.0479V39.722C17.7634 39.9061 18.8737 39.9991 19.986 40H20.0146C21.1267 39.9991 22.2369 39.9061 23.3336 39.722V28.0473L31.5886 36.3023C32.498 35.6547 33.3519 34.9324 34.1414 34.1431L34.1434 34.1416C34.9327 33.3521 35.6549 32.4983 36.3024 31.5889L28.0474 23.3337H39.722C39.9061 22.237 39.9991 21.1269 40 20.0147V19.986C39.9991 18.8739 39.9061 17.7634 39.722 16.6667Z" fill="#FF4A00"/>
</svg>
