<svg width="60" height="61" viewBox="0 0 60 61" fill="none" xmlns="http://www.w3.org/2000/svg">
<rect y="0.256836" width="60" height="60" rx="30" fill="#5865F2"/>
<path d="M40.9393 20.4229C44.4747 25.6578 46.2207 31.5626 45.568 38.3604C45.5653 38.3892 45.5504 38.4156 45.5269 38.4329C42.8496 40.4127 40.2557 41.6143 37.6981 42.4111C37.6782 42.4172 37.6569 42.4168 37.6372 42.4101C37.6175 42.4034 37.6003 42.3907 37.5882 42.3736C36.9973 41.5457 36.4604 40.6728 35.9901 39.7562C35.9631 39.7022 35.9877 39.6372 36.0433 39.6159C36.8959 39.2924 37.7067 38.9046 38.4866 38.4455C38.548 38.4093 38.5519 38.3206 38.4952 38.278C38.3297 38.1543 38.1657 38.0242 38.0088 37.8942C37.9795 37.8702 37.9399 37.8654 37.9067 37.8816C32.8436 40.2362 27.2973 40.2362 22.1743 37.8816C22.141 37.8666 22.1015 37.8717 22.073 37.8954C21.9164 38.0254 21.7521 38.1543 21.5881 38.278C21.5314 38.3206 21.5361 38.4093 21.5979 38.4455C22.3778 38.8959 23.1886 39.2924 24.04 39.6175C24.0952 39.6388 24.1214 39.7022 24.094 39.7562C23.6339 40.674 23.097 41.5469 22.4952 42.3748C22.469 42.4083 22.4259 42.4237 22.3852 42.4111C19.8398 41.6143 17.2458 40.4127 14.5685 38.4329C14.5462 38.4156 14.5302 38.388 14.5278 38.3592C13.9824 32.4792 15.0941 26.5256 19.1523 20.4217C19.1621 20.4056 19.1769 20.393 19.1941 20.3855C21.191 19.4626 23.3302 18.7836 25.5661 18.3958C25.6068 18.3895 25.6475 18.4084 25.6687 18.4447C25.9449 18.9373 26.2607 19.569 26.4743 20.0852C28.8312 19.7226 31.2248 19.7226 33.6309 20.0852C33.8446 19.58 34.1494 18.9373 34.4245 18.4447C34.4343 18.4267 34.4494 18.4123 34.4679 18.4035C34.4863 18.3947 34.507 18.392 34.527 18.3958C36.7641 18.7847 38.9033 19.4637 40.8986 20.3855C40.9162 20.393 40.9307 20.4056 40.9393 20.4229V20.4229ZM27.6725 31.6028C27.6972 29.8645 26.4387 28.4262 24.859 28.4262C23.2923 28.4262 22.046 29.8519 22.046 31.6028C22.046 33.3533 23.3169 34.779 24.859 34.779C26.4262 34.779 27.6725 33.3533 27.6725 31.6028V31.6028ZM38.0742 31.6028C38.0988 29.8645 36.8404 28.4262 35.2611 28.4262C33.6939 28.4262 32.4476 29.8519 32.4476 31.6028C32.4476 33.3533 33.7185 34.779 35.2611 34.779C36.8404 34.779 38.0742 33.3533 38.0742 31.6028V31.6028Z" fill="white"/>
</svg>
