<svg width="62" height="61" viewBox="0 0 62 61" fill="none" xmlns="http://www.w3.org/2000/svg">
<path fill-rule="evenodd" clip-rule="evenodd" d="M30.9237 0.256836C23.5799 0.260646 16.4769 2.86168 10.8847 7.59485C5.29263 12.328 1.57609 18.8847 0.399644 26.0924C-0.776797 33.3001 0.663574 40.689 4.46323 46.9377C8.26289 53.1863 14.174 57.8875 21.1397 60.2004C22.6765 60.4856 23.2553 59.5331 23.2553 58.7233C23.2553 57.9134 23.2246 55.5654 23.2143 52.9984C14.6086 54.8574 12.7901 49.3668 12.7901 49.3668C11.3865 45.8015 9.35804 44.8643 9.35804 44.8643C6.55092 42.9594 9.56807 42.9951 9.56807 42.9951C12.6774 43.2141 14.3115 46.1682 14.3115 46.1682C17.0674 50.8694 21.5495 49.5094 23.3117 48.7149C23.5883 46.7234 24.3925 45.3686 25.2787 44.5995C18.4043 43.8253 11.1816 41.1869 11.1816 29.4009C11.139 26.3443 12.2798 23.3883 14.3678 21.1446C14.0502 20.3704 12.9899 17.2431 14.67 12.9953C14.67 12.9953 17.2672 12.1702 23.1785 16.1481C28.2489 14.7694 33.5985 14.7694 38.6689 16.1481C44.5751 12.1702 47.167 12.9953 47.167 12.9953C48.8523 17.2329 47.792 20.3603 47.4744 21.1446C49.5691 23.3887 50.7122 26.3498 50.6657 29.4111C50.6657 41.2226 43.4276 43.8253 36.543 44.5842C37.6495 45.5417 38.6381 47.411 38.6381 50.2836C38.6381 54.399 38.6023 57.7097 38.6023 58.7233C38.6023 59.5433 39.1606 60.5009 40.7281 60.2004C47.6946 57.8872 53.6063 53.1852 57.4059 46.9355C61.2055 40.6857 62.6451 33.2958 61.4673 26.0874C60.2896 18.879 56.5712 12.3223 50.9772 7.58991C45.3832 2.85755 38.2786 0.258231 30.9339 0.256836H30.9237Z" fill="#121212"/>
</svg>
