<svg width="70" height="61" viewBox="0 0 70 61" fill="none" xmlns="http://www.w3.org/2000/svg">
<path d="M22.5361 0.256836H46.6144L69.2588 39.3622H45.1264L22.5361 0.256836Z" fill="url(#paint0_linear_17_14834)"/>
<path d="M69.2584 39.3633L57.1922 60.2574H12.0117L24.1049 39.3633H69.2584Z" fill="url(#paint1_linear_17_14834)"/>
<path d="M12.0121 60.2564L0 39.3622L22.5361 0.256836L34.6294 21.2052L12.0121 60.2564Z" fill="url(#paint2_linear_17_14834)"/>
<path opacity="0.1" d="M12.0117 60.2564L34.4938 39.3622H24.1049L12.0117 60.2564ZM69.2584 39.3622H45.1531L39.8505 30.2024L69.2584 39.3622ZM22.5358 0.256836L29.4887 30.0669L34.629 21.2052L22.5358 0.256836Z" fill="black"/>
<defs>
<linearGradient id="paint0_linear_17_14834" x1="22.5363" y1="-8.16928" x2="3294.34" y2="5526.73" gradientUnits="userSpaceOnUse">
<stop stop-color="#F6C338"/>
<stop offset="0.523" stop-color="#FFD351"/>
<stop offset="1" stop-color="#F6C338"/>
</linearGradient>
<linearGradient id="paint1_linear_17_14834" x1="5164.21" y1="34.8612" x2="4199.61" y2="3776.88" gradientUnits="userSpaceOnUse">
<stop stop-color="#286EE6"/>
<stop offset="0.521" stop-color="#4286FB"/>
<stop offset="1" stop-color="#286EE6"/>
</linearGradient>
<linearGradient id="paint2_linear_17_14834" x1="2033.21" y1="0.256856" x2="-490.867" y2="7041.57" gradientUnits="userSpaceOnUse">
<stop stop-color="#069B5A"/>
<stop offset="0.531" stop-color="#11AA62"/>
<stop offset="1" stop-color="#069B5A"/>
</linearGradient>
</defs>
</svg>
