<svg width="58" height="61" viewBox="0 0 58 61" fill="none" xmlns="http://www.w3.org/2000/svg">
<path d="M44.0088 20.0128V12.8679C45.9362 11.9672 47.1717 10.0361 47.1815 7.90869V7.74476C47.1815 4.70602 44.7178 2.24264 41.6791 2.24264H41.5149C38.4758 2.24264 36.0122 4.70602 36.0122 7.74476V7.90869C36.022 10.0361 37.2574 11.9672 39.1849 12.8679V20.0128C36.4709 20.4284 33.915 21.5536 31.7758 23.2745L12.1786 8.01185C12.3184 7.50745 12.3912 6.98877 12.3995 6.46815C12.4044 3.96051 10.8979 1.69691 8.58257 0.733136C6.2673 -0.230637 3.59936 0.29527 1.82314 2.06557C0.046909 3.83586 -0.487701 6.50181 0.468655 8.81997C1.42501 11.1381 3.68394 12.6518 6.19183 12.6551C7.26467 12.65 8.31741 12.3636 9.24492 11.8245L28.5426 26.8395C24.9947 32.1985 25.0896 39.1828 28.7816 44.4437L22.9123 50.3142C22.4376 50.1626 21.9436 50.082 21.4454 50.0752C18.6345 50.0776 16.3573 52.3569 16.3581 55.1676C16.3588 57.978 18.6374 60.2561 21.4481 60.2568C24.259 60.2576 26.5386 57.9806 26.541 55.17C26.5344 54.672 26.4537 54.1778 26.3017 53.7035L32.1081 47.8956C37.2962 51.8891 44.4217 52.2332 49.9706 48.7581C55.5193 45.2828 58.3195 38.722 56.99 32.3118C55.6605 25.9014 50.4821 20.9954 44.0088 20.0128ZM41.602 43.5117C38.6817 43.5903 35.9489 42.0773 34.4656 39.5608C32.9822 37.0442 32.9822 33.9208 34.4656 31.4043C35.9489 28.8877 38.6817 27.3747 41.602 27.4533C45.9248 27.6047 49.3516 31.1514 49.354 35.4767C49.356 39.8015 45.9328 43.3519 41.61 43.5076" fill="#FF7A59"/>
</svg>
