<svg width="60" height="61" viewBox="0 0 60 61" fill="none" xmlns="http://www.w3.org/2000/svg">
<path d="M30 60.2568C46.5685 60.2568 60 46.8254 60 30.2568C60 13.6883 46.5685 0.256836 30 0.256836C13.4315 0.256836 0 13.6883 0 30.2568C0 46.8254 13.4315 60.2568 30 60.2568Z" fill="#2CA01C"/>
<path d="M7.23146 30.2466C7.23386 37.029 12.7035 42.5442 19.4859 42.6042H21.2211V38.0706H19.4859C15.2811 39.2178 10.9443 36.7386 9.79946 32.5338C9.78986 32.5002 9.78266 32.4666 9.77306 32.433C8.59466 28.173 11.0619 23.7594 15.3075 22.533H16.1739C17.2611 22.2954 18.3867 22.2954 19.4739 22.533H23.6883V46.6026C23.6667 49.149 25.7139 51.2322 28.2603 51.2562V17.7666H19.5123C12.6819 17.8026 7.17626 23.3682 7.21209 30.1986V30.201L7.23146 30.2466ZM40.5315 17.7714H38.7963V22.545H40.5315C44.7267 21.4002 49.0539 23.8722 50.1987 28.065C50.2083 28.0962 50.2155 28.1298 50.2251 28.161C51.3963 32.4066 48.9363 36.8034 44.7075 38.0274H43.8411C42.7539 38.265 41.6283 38.265 40.5411 38.0274H36.3267V13.9602C36.3483 11.4138 34.3011 9.33064 31.7547 9.30664V42.8442H40.5027C47.3931 42.7362 52.8915 37.065 52.7859 30.1746C52.6803 23.4354 47.2443 17.997 40.5027 17.8914L40.5315 17.7714Z" fill="white"/>
</svg>
