<svg width="60" height="61" viewBox="0 0 60 61" fill="none" xmlns="http://www.w3.org/2000/svg">
<path d="M37.4998 30.27C37.5008 32.4334 37.1105 34.5792 36.3478 36.6037C34.3225 37.3663 32.1763 37.7572 30.0122 37.7575H29.9869C27.7584 37.7547 25.6233 37.3474 23.6531 36.6046C22.8899 34.5799 22.4993 32.4338 22.5 30.27V30.2437C22.499 28.0807 22.8888 25.9353 23.6508 23.9109C25.6759 23.1469 27.8227 22.7559 29.9871 22.7568H30.0124C32.1766 22.7558 34.3232 23.1467 36.348 23.9107C37.1109 25.9348 37.5011 28.0803 37.5 30.2435L37.4998 30.27ZM59.5833 25.2569H42.0717L54.4535 12.8742C53.4817 11.509 52.3976 10.2273 51.2126 9.04238V9.04145C50.0275 7.85782 48.7462 6.77472 47.3817 5.80332L34.999 18.1861V0.674492C33.3521 0.397444 31.685 0.257745 30.015 0.256836H29.9841C28.2853 0.257773 26.6215 0.402148 25.0001 0.674492V18.1861L12.6173 5.80332C11.2527 6.77446 9.97186 7.85834 8.78836 9.04356L8.7818 9.04824C7.5988 10.2317 6.51624 11.5114 5.54531 12.8742L17.929 25.2569H0.417656C0.417656 25.2569 0 28.5459 0 30.2465V30.2671C0 31.9678 0.144141 33.6344 0.417656 35.2568H17.9292L5.54555 47.6395C7.49359 50.3732 9.88359 52.7632 12.6173 54.7113L25.0001 42.3276V59.8401C26.6452 60.1158 28.3102 60.2552 29.9782 60.2568H30.0206C31.6886 60.2553 33.3537 60.116 34.9987 59.8401V42.3276L47.3827 54.7113C48.7468 53.7396 50.0279 52.6561 51.2126 51.4722L51.2154 51.4694C52.3988 50.2845 53.4819 49.0034 54.4535 47.6395L42.0698 35.2568H59.5833C59.8559 33.6372 59.9981 31.9755 60 30.2786V30.235C59.9981 28.5382 59.8559 26.8764 59.5833 25.2569Z" fill="#FF4A00"/>
</svg>
