<svg width="60" height="61" viewBox="0 0 60 61" fill="none" xmlns="http://www.w3.org/2000/svg">
<path d="M30 4.0069C15.5215 4.0069 3.75 15.7784 3.75 30.2569C3.75 44.7354 15.5215 56.5069 30 56.5069C44.4785 56.5069 56.25 44.7354 56.25 30.2569C56.25 15.7784 44.4785 4.0069 30 4.0069Z" fill="#FDDD4C"/>
<path d="M18.5041 37.1009C17.9301 36.2319 19.3737 34.9167 18.7866 33.8125C18.4481 33.1756 17.8948 32.7787 17.2303 32.6954C16.5926 32.6154 15.9357 32.8489 15.517 33.3051C14.8559 34.0245 14.7531 35.0037 14.881 35.3502C14.9278 35.4773 15.0013 35.5119 15.054 35.5194C15.4141 35.5668 15.6167 34.6426 15.741 34.4502C16.0847 33.9196 16.8652 33.7591 17.4042 34.1078C18.4262 34.7688 17.54 35.8372 17.6165 36.7395C17.6909 37.6182 18.2383 37.9713 18.7297 38.0084C19.2078 38.0265 19.5421 37.7609 19.6265 37.567C19.8289 37.1042 18.9763 37.8159 18.5041 37.1009Z" fill="black"/>
<path d="M39.8582 29.124C39.5901 29.0869 39.2971 29.0878 38.9923 29.124C38.7608 28.832 38.5535 28.3592 38.4365 27.8073C38.2284 26.8256 38.2502 26.1144 38.831 26.022C39.4119 25.9296 39.6927 26.5236 39.9008 27.5054C40.0404 28.1654 40.0136 28.7718 39.8582 29.124Z" fill="black"/>
<path d="M33.4962 29.7081C33.5191 29.9305 33.5272 30.1554 33.5207 30.3625C34.0828 30.3955 34.4809 30.6625 34.5869 30.8318C34.6412 30.9193 34.6195 30.9762 34.6019 31.0026C34.5438 31.0931 34.4191 31.0791 34.1579 31.0498C33.9297 31.0242 33.684 31.0017 33.4287 31.0134C33.2897 31.4396 32.8778 31.4794 32.5883 31.1643C32.3861 31.2259 31.9889 31.4796 31.8706 31.2039C31.8695 31.0672 32.0125 30.8684 32.2716 30.6928C32.0948 30.3555 31.9763 29.9944 31.9063 29.6206C31.5391 29.6868 31.2088 29.7896 30.9499 29.8702C30.8283 29.9081 30.3474 30.1253 30.291 29.8805C30.2534 29.7114 30.5166 29.4325 30.795 29.2312C31.1059 29.0104 31.451 28.8535 31.8086 28.7629C31.8009 28.2304 31.9368 27.859 32.3236 27.7974C32.8033 27.7211 33.1006 28.0904 33.3064 28.7743C33.8861 28.9354 34.4651 29.3348 34.7206 29.7477C34.8201 29.9077 34.8393 30.0315 34.7749 30.0966C34.6143 30.2632 33.7242 29.7804 33.4962 29.7081Z" fill="black"/>
<path d="M37.3082 32.1014C37.676 32.2796 38.0805 32.2095 38.2125 31.9447C38.3446 31.6799 38.1532 31.321 37.7854 31.1428C37.4177 30.9646 37.0132 31.0347 36.8811 31.2995C36.7491 31.5644 36.9405 31.9232 37.3082 32.1014Z" fill="black"/>
<path d="M39.1184 30.7864C39.1251 30.3813 39.3734 30.0579 39.6717 30.0629C39.9701 30.0686 40.2066 30.4003 40.1999 30.8045C40.1933 31.2088 39.945 31.5322 39.6467 31.5272C39.3483 31.5223 39.1118 31.1906 39.1184 30.7864Z" fill="black"/>
<path fill-rule="evenodd" clip-rule="evenodd" d="M47.2097 35.7471C47.2155 35.7678 47.2072 35.7387 47.2097 35.7471C47.8089 35.7471 48.75 36.4269 48.75 38.0695C48.75 39.7038 48.063 41.5551 47.9009 41.9659C45.4261 47.8201 39.5197 51.0789 32.4841 50.8726C25.9249 50.6804 20.331 47.2641 17.883 41.6945C16.4029 41.6962 14.8767 41.0535 13.7167 40.0387C12.4939 38.9695 11.7401 37.586 11.593 36.1431C11.4785 35.0195 11.618 33.9742 11.9749 33.0626L10.6001 31.9125C4.30833 26.6688 23.9867 5.07868 30.2801 10.4973C30.3119 10.5245 32.4214 12.5672 32.4264 12.5721C35.461 11.3003 43.5916 8.87883 43.6008 14.5158C43.6041 16.3877 42.3956 18.5707 40.4591 20.5515C42.697 22.6002 42.1069 25.5102 42.4633 28.1802L43.2406 28.3931C44.7224 28.8031 45.7763 29.3501 46.292 29.8847C46.8077 30.4185 47.0634 30.9357 47.1562 31.5421C47.2431 32.0313 47.2314 32.8951 46.5778 33.8612C46.8132 34.4844 47.028 35.1057 47.2097 35.7471ZM17.7719 40.1757C17.9917 40.1806 18.2098 40.1666 18.4238 40.1303C20.723 39.7434 21.3248 37.2783 20.9462 34.8578C20.5182 32.1245 18.6453 31.161 17.374 31.0925C17.0205 31.0743 16.6921 31.1057 16.4213 31.1593C14.1521 31.6106 12.8709 33.5163 13.1233 35.9913C13.3514 38.2312 15.6465 40.1196 17.7719 40.1757ZM12.6327 31.8309C13.3941 30.7394 14.6385 29.9499 16.051 29.6784C17.8488 24.9149 20.8509 20.5259 24.8242 17.5056C27.7728 15.0776 30.9529 13.3361 30.9529 13.3361C30.9529 13.3361 29.2404 11.3759 28.7231 11.2315C25.5413 10.3834 18.6695 15.0611 14.2817 21.242C12.5065 23.7426 9.96487 28.1712 11.1801 30.449C11.3297 30.7311 12.178 31.4563 12.6327 31.8309ZM38.429 39.0817C38.434 39.1329 38.4022 39.1857 38.3563 39.2047C38.3563 39.2047 35.7996 40.3786 31.7386 39.1387C31.8846 40.356 33.3608 40.8173 34.3922 40.9842C39.4244 41.8389 44.129 38.9984 45.1879 38.2832C45.3698 38.1603 45.1857 38.4761 45.1528 38.5224C43.8565 40.1732 40.3713 42.0847 35.8372 42.0839C33.8598 42.0831 31.8832 41.3959 31.1577 40.339C30.0319 38.6998 31.1017 36.3065 32.978 36.5556C36.1496 36.9091 39.4011 36.6435 42.3371 35.2983C44.8971 34.1252 45.8641 32.8349 45.7186 31.7896C45.4931 30.1696 43.0914 29.9163 41.8774 29.5225C41.3492 29.3501 41.0884 29.2123 41.0291 28.2314C41.0032 27.8032 40.928 26.3091 40.9004 25.6912C40.8519 24.6097 40.7198 23.1304 39.7905 22.5199C39.5481 22.3607 39.279 22.284 38.9956 22.2691C38.7697 22.2584 38.6358 22.2894 38.5638 22.3061C38.5476 22.3098 38.5345 22.3128 38.5243 22.3145C38.0224 22.3988 37.7149 22.6526 37.3522 22.952C37.3314 22.9693 37.3103 22.9867 37.289 23.0042C36.1298 23.9579 35.1511 24.1138 34.062 24.0676C33.7229 24.0534 33.3733 24.0196 33.0046 23.9838C32.6654 23.951 32.31 23.9165 31.9316 23.8944L31.4695 23.868C29.6458 23.7756 27.6901 25.3299 27.3649 27.5376C27.0017 30.0018 28.3791 31.5112 29.2748 32.4928C29.4962 32.7353 29.6881 32.9457 29.8171 33.1302C29.8999 33.2416 29.996 33.3983 29.996 33.5477C29.996 33.7259 29.879 33.8669 29.7645 33.9874C27.904 35.8758 27.3089 38.8763 28.0102 41.3769C28.0979 41.6887 28.2091 41.9874 28.3403 42.2728C29.9851 46.067 35.0884 47.8341 40.073 46.227C43.5664 45.1006 46.653 42.3788 47.2815 38.6239C47.4311 37.6454 47.2113 37.2676 46.9121 37.0853C46.5954 36.893 46.2159 36.9599 46.2159 36.9599C46.2159 36.9599 46.0429 35.7908 45.5532 34.7282C44.0997 35.8601 42.2293 36.6554 40.8051 37.0589C38.5233 37.705 36.0586 37.9566 33.7007 37.6519C32.7443 37.5283 32.1018 37.4453 31.8263 38.3285C34.9714 39.4654 38.3003 38.9786 38.3003 38.9786C38.3646 38.972 38.4223 39.0182 38.429 39.0817ZM29.3549 17.0205C27.6349 17.8892 25.7143 19.4361 24.1547 21.2156C24.0996 21.2791 24.1815 21.3666 24.2492 21.3179C25.5964 20.3502 27.4435 19.4509 29.8631 18.8685C32.5735 18.2159 35.1828 18.4898 36.7766 18.8503C36.8569 18.8685 36.907 18.7324 36.836 18.6928C35.7829 18.1095 34.1665 17.7135 33.0198 17.7053C32.9638 17.7044 32.9321 17.6401 32.9655 17.5955C33.1636 17.3324 33.4352 17.0725 33.6834 16.8844C33.7386 16.8415 33.7052 16.7532 33.635 16.7573C32.2085 16.8438 28.9504 18.3294 28.9621 18.2753C29.0457 17.8793 29.309 17.3563 29.4452 17.1121C29.4778 17.0543 29.4143 16.9908 29.3549 17.0205Z" fill="black"/>
</svg>
