<svg width="60" height="61" viewBox="0 0 60 61" fill="none" xmlns="http://www.w3.org/2000/svg">
<path fill-rule="evenodd" clip-rule="evenodd" d="M10.7175 55.0402L4.26869 47.0065C2.71712 45.0736 1.875 42.6967 1.875 40.2503L1.875 11.1599C1.875 7.49554 4.80672 4.4549 8.58884 4.19668L38.4977 2.15468C40.6706 2.00633 42.8303 2.58388 44.6152 3.79065L55.1236 10.8954C57.0046 12.1672 58.125 14.2462 58.125 16.4648L58.125 49.5378C58.125 53.1239 55.2423 56.093 51.5393 56.3209L18.3437 58.3643C15.3887 58.5462 12.5325 57.3012 10.7175 55.0402Z" fill="white"/>
<path d="M21.0907 25.7169V25.3361C21.0907 24.3706 21.8639 23.57 22.8604 23.5034L30.1192 23.0188L40.1574 37.8009V24.8271L37.5736 24.4827V24.3018C37.5736 23.325 38.3645 22.519 39.3738 22.4673L45.9785 22.129V23.0795C45.9785 23.5257 45.6467 23.9073 45.1919 23.9842L43.6025 24.253L43.6025 45.2638L41.6078 45.9497C39.9414 46.5228 38.0862 45.9094 37.1322 44.4698L27.3869 29.7641V43.7999L30.3865 44.374L30.3447 44.6522C30.2138 45.5237 29.4613 46.1828 28.5511 46.2234L21.0907 46.5554C20.992 45.6182 21.6944 44.7798 22.6634 44.678L23.6448 44.5749V25.8604L21.0907 25.7169Z" fill="black"/>
<path fill-rule="evenodd" clip-rule="evenodd" d="M38.7659 5.81955L8.857 7.86156C7.06547 7.98387 5.67676 9.42417 5.67676 11.1599L5.67676 40.2504C5.67676 41.8813 6.23817 43.4658 7.27255 44.7544L13.7214 52.7881C14.764 54.087 16.4048 54.8023 18.1024 54.6978L51.2979 52.6544C52.9993 52.5496 54.3238 51.1855 54.3238 49.5378L54.3238 16.4648C54.3238 15.4454 53.809 14.4902 52.9448 13.9059L42.4364 6.80114C41.3654 6.07707 40.0696 5.73054 38.7659 5.81955ZM10.3401 11.6137C9.92414 11.3057 10.1221 10.6641 10.6447 10.6266L38.9671 8.59517C39.8695 8.53044 40.7662 8.77894 41.496 9.29598L47.1786 13.3221C47.3944 13.4749 47.2932 13.8049 47.0261 13.8194L17.0328 15.4506C16.1251 15.5 15.2291 15.2333 14.5074 14.699L10.3401 11.6137ZM15.6259 20.5644C15.6259 19.59 16.4131 18.7851 17.4197 18.7303L49.1312 17.0033C50.1122 16.9499 50.9381 17.7043 50.9381 18.654L50.9381 47.2917C50.9381 48.2643 50.1537 49.0684 49.1491 49.1255L17.6384 50.9185C16.5466 50.9806 15.6259 50.1416 15.6259 49.0846L15.6259 20.5644Z" fill="black"/>
</svg>
