<svg width="50" height="50" viewBox="0 0 50 50" fill="none" xmlns="http://www.w3.org/2000/svg">
<path d="M44.686 23.3815C47.2746 23.3815 49.373 21.283 49.373 18.6944V18.6944C49.373 16.1058 47.2744 14.0073 44.6857 14.0073V14.0073C42.0969 14.0073 39.998 16.106 39.998 18.6948V23.3815L44.686 23.3815ZM31.5605 23.3815C34.1494 23.3815 36.248 21.2829 36.248 18.694V5.56982C36.248 2.98099 34.1494 0.882324 31.5605 0.882324V0.882324C28.9717 0.882324 26.873 2.98099 26.873 5.56982L26.873 18.694C26.873 21.2829 28.9717 23.3815 31.5605 23.3815V23.3815Z" fill="#2EB67D"/>
<path d="M5.3121 27.1323C2.72348 27.1323 0.625 29.2308 0.625 31.8194V31.8194C0.625 34.408 2.72369 36.5065 5.3123 36.5065V36.5065C7.90113 36.5065 10 34.4079 10 31.819V27.1323L5.3121 27.1323ZM18.4375 27.1323C15.8487 27.1323 13.75 29.231 13.75 31.8198L13.75 44.944C13.75 47.5329 15.8487 49.6315 18.4375 49.6315V49.6315C21.0263 49.6315 23.125 47.5329 23.125 44.944L23.125 31.8198C23.125 29.231 21.0263 27.1323 18.4375 27.1323V27.1323Z" fill="#E01E5A"/>
<path d="M26.8748 44.9449C26.8748 47.5335 28.9733 49.632 31.5619 49.632V49.632C34.1505 49.632 36.249 47.5333 36.249 44.9447V44.9447C36.249 42.3558 34.1504 40.257 31.5615 40.257L26.8748 40.257L26.8748 44.9449ZM26.8748 31.8195C26.8748 34.4083 28.9735 36.507 31.5623 36.507L44.6865 36.507C47.2754 36.507 49.374 34.4083 49.374 31.8195V31.8195C49.374 29.2306 47.2754 27.132 44.6865 27.132L31.5623 27.132C28.9735 27.132 26.8748 29.2306 26.8748 31.8195V31.8195Z" fill="#ECB22E"/>
<path d="M23.1232 5.569C23.1232 2.98039 21.0247 0.881901 18.4361 0.881901V0.881901C15.8475 0.881901 13.749 2.98059 13.749 5.5692V5.5692C13.749 8.15803 15.8477 10.2569 18.4365 10.2569L23.1232 10.2569L23.1232 5.569ZM23.1232 18.6944C23.1232 16.1056 21.0246 14.0069 18.4357 14.0069L5.31152 14.0069C2.72269 14.0069 0.624024 16.1056 0.624024 18.6944V18.6944C0.624024 21.2832 2.72269 23.3819 5.31152 23.3819L18.4357 23.3819C21.0246 23.3819 23.1232 21.2832 23.1232 18.6944V18.6944Z" fill="#36C5F0"/>
</svg>
