<svg width="60" height="61" viewBox="0 0 60 61" fill="none" xmlns="http://www.w3.org/2000/svg">
<circle cx="30" cy="30.2569" r="26.25" fill="#4087FC"/>
<path d="M15.5 19.0068C14.1883 19.0068 13.125 20.206 13.125 21.6854L13.125 34.6764C13.125 38.4487 15.8365 41.5068 19.1813 41.5068L33.25 41.3729C34.5617 41.3729 35.625 40.1737 35.625 38.6944V25.5694C35.625 21.797 32.4073 19.0069 29.0625 19.0069L15.5 19.0068Z" fill="white"/>
<path d="M38.8354 24.1211C37.9867 24.9602 37.5 26.1714 37.5 27.4444V32.8805C37.5 34.1535 37.9867 35.3646 38.8354 36.2038L44.1165 40.8552C45.1911 41.9177 46.875 41.0571 46.875 39.4453V21.1352C46.875 19.5235 45.1911 18.6628 44.1165 19.7253L38.8354 24.1211Z" fill="white"/>
</svg>
