<svg width="37" height="37" viewBox="0 0 37 37" fill="none" xmlns="http://www.w3.org/2000/svg">
<path d="M15.3587 4.09495C16.1582 0.801681 20.8418 0.801683 21.6413 4.09496C22.1578 6.22237 24.5952 7.23195 26.4647 6.09284C29.3587 4.32948 32.6705 7.64132 30.9072 10.5353C29.768 12.4049 30.7776 14.8422 32.905 15.3587C36.1983 16.1582 36.1983 20.8418 32.905 21.6413C30.7776 22.1578 29.768 24.5951 30.9072 26.4647C32.6705 29.3587 29.3587 32.6705 26.4647 30.9072C24.5952 29.768 22.1578 30.7776 21.6413 32.905C20.8418 36.1983 16.1582 36.1983 15.3587 32.905C14.8422 30.7776 12.4049 29.768 10.5353 30.9072C7.64132 32.6705 4.32948 29.3587 6.09284 26.4647C7.23195 24.5951 6.22237 22.1578 4.09496 21.6413C0.801683 20.8418 0.801681 16.1582 4.09495 15.3587C6.22237 14.8422 7.23195 12.4049 6.09284 10.5353C4.32948 7.64132 7.64132 4.32948 10.5353 6.09284C12.4049 7.23195 14.8422 6.22237 15.3587 4.09495Z" stroke="white" stroke-width="3" stroke-linecap="round" stroke-linejoin="round"/>
<path d="M24.125 18.5C24.125 21.6066 21.6066 24.125 18.5 24.125C15.3934 24.125 12.875 21.6066 12.875 18.5C12.875 15.3934 15.3934 12.875 18.5 12.875C21.6066 12.875 24.125 15.3934 24.125 18.5Z" stroke="white" stroke-width="3" stroke-linecap="round" stroke-linejoin="round"/>
</svg>
