<svg width="37" height="37" viewBox="0 0 37 37" fill="none" xmlns="http://www.w3.org/2000/svg">
<path d="M11 26L16.3975 20.6025M16.3975 20.6025C17.4154 21.6204 18.8217 22.25 20.375 22.25C23.4816 22.25 26 19.7316 26 16.625C26 13.5184 23.4816 11 20.375 11C17.2684 11 14.75 13.5184 14.75 16.625C14.75 18.1783 15.3796 19.5846 16.3975 20.6025ZM35.375 18.5C35.375 27.8198 27.8198 35.375 18.5 35.375C9.18019 35.375 1.625 27.8198 1.625 18.5C1.625 9.18019 9.18019 1.625 18.5 1.625C27.8198 1.625 35.375 9.18019 35.375 18.5Z" stroke="white" stroke-width="3" stroke-linecap="round"/>
</svg>
