<svg width="37" height="37" viewBox="0 0 37 37" fill="none" xmlns="http://www.w3.org/2000/svg">
<path d="M12.875 31.625V20.375C12.875 18.3039 11.1961 16.625 9.125 16.625H5.375C3.30393 16.625 1.625 18.3039 1.625 20.375V31.625C1.625 33.6961 3.30393 35.375 5.375 35.375H9.125C11.1961 35.375 12.875 33.6961 12.875 31.625ZM12.875 31.625V12.875C12.875 10.8039 14.5539 9.125 16.625 9.125H20.375C22.4461 9.125 24.125 10.8039 24.125 12.875V31.625M12.875 31.625C12.875 33.6961 14.5539 35.375 16.625 35.375H20.375C22.4461 35.375 24.125 33.6961 24.125 31.625M24.125 31.625V5.375C24.125 3.30393 25.8039 1.625 27.875 1.625H31.625C33.6961 1.625 35.375 3.30393 35.375 5.375V31.625C35.375 33.6961 33.6961 35.375 31.625 35.375H27.875C25.8039 35.375 24.125 33.6961 24.125 31.625Z" stroke="white" stroke-width="3" stroke-linecap="round" stroke-linejoin="round"/>
</svg>
