<svg width="163" height="33" viewBox="0 0 163 33" fill="none" xmlns="http://www.w3.org/2000/svg">
<g clip-path="url(#clip0_18_22818)">
<path d="M4.66978 4.61796C6.86467 2.54479 9.84501 1.33473 12.8657 1.18422C13.8995 1.18422 14.9363 1.19036 15.9702 1.18115C15.9174 2.27762 15.9702 3.37717 15.9392 4.47358C15.7932 6.92449 14.8774 9.32012 13.3344 11.2428C11.329 13.8289 8.26171 15.5642 5.00509 16.0125C3.58322 16.2398 2.13961 16.0954 0.708436 16.1354C0.73325 14.9284 0.655654 13.7183 0.751912 12.5143C1.03133 9.529 2.4563 6.66959 4.66978 4.61796Z" fill="#CBD2D9" fill-opacity="0.2"/>
<path d="M16.9268 1.18115C18.0351 1.19343 19.1433 1.17502 20.2548 1.18729C23.021 1.38077 25.7498 2.43115 27.8328 4.25249C30.1302 6.20275 31.7041 8.99152 32.1079 11.9707C32.2845 13.3528 32.1731 14.7502 32.2414 16.1384C31.2725 16.1354 30.3073 16.1324 29.3384 16.1384C26.9574 16.074 24.6166 15.3123 22.6236 14.0285C21.7046 13.3774 20.7608 12.7171 20.0717 11.814C18.5597 10.1433 17.5321 8.04556 17.1441 5.83421C16.8523 4.29852 16.9702 2.73219 16.9268 1.18115Z" fill="#CBD2D9"/>
<path d="M0.709713 17.0166C1.69386 17.0719 2.68111 16.9705 3.6621 17.078C7.86249 17.1671 11.9388 19.5012 14.1149 23.0548C15.363 25.045 16.0335 27.4039 15.9466 29.7474C15.9435 30.5151 15.9559 31.2796 15.9342 32.0448C14.3757 31.9984 12.8018 32.1243 11.2588 31.8263C7.83147 31.2552 4.68042 29.2372 2.78351 26.3565C1.34615 24.2618 0.629013 21.7035 0.703507 19.1757C0.703507 18.454 0.70351 17.7353 0.709713 17.0166Z" fill="#CBD2D9"/>
<path d="M26.996 17.3419C28.6851 16.9703 30.4263 17.0316 32.1433 17.0316L32.218 17.1055C32.1806 18.7117 32.3078 20.3365 31.9819 21.9242C31.2958 25.487 28.9117 28.6691 25.7046 30.4167C23.7084 31.5162 21.4172 32.0565 19.1355 32.0321C18.4059 32.0353 17.6732 32.0196 16.9436 32.0414C16.9436 30.7115 16.8877 29.3754 17.0399 28.0518C17.3938 24.8482 19.1447 21.866 21.6625 19.8512C23.2209 18.635 25.0526 17.7535 26.996 17.3419Z" fill="#CBD2D9" fill-opacity="0.6"/>
<path d="M44.9623 26.096C44.9623 26.6367 44.7731 27.0942 44.3951 27.4685C44.0376 27.8221 43.5854 27.9989 43.0393 27.9989C42.5135 27.9989 42.0719 27.8221 41.7149 27.4685C41.3575 27.0942 41.1787 26.6367 41.1787 26.096V6.81787C41.1787 6.27717 41.3575 5.83005 41.7149 5.47654C42.0929 5.10222 42.5555 4.91504 43.1023 4.91504C43.6485 4.91504 44.0901 5.10222 44.4266 5.47654C44.7836 5.83005 44.9623 6.27717 44.9623 6.81787V26.096Z" fill="#CBD2D9"/>
<path d="M60.1502 11.3101C60.6965 11.3101 61.1486 11.4972 61.5061 11.8716C61.8631 12.2251 62.0418 12.6722 62.0418 13.2129V21.1363C62.0418 23.3407 61.422 25.0876 60.1819 26.3769C58.9412 27.6662 57.1547 28.3112 54.8211 28.3112C52.4879 28.3112 50.701 27.6662 49.4609 26.3769C48.2417 25.0876 47.6318 23.3407 47.6318 21.1363V13.2129C47.6318 12.6722 47.8106 12.2251 48.1681 11.8716C48.5255 11.4972 48.9772 11.3101 49.5239 11.3101C50.0706 11.3101 50.5222 11.4972 50.8797 11.8716C51.2372 12.2251 51.4159 12.6722 51.4159 13.2129V21.1363C51.4159 22.4049 51.6999 23.3511 52.2672 23.9749C52.8349 24.5781 53.686 24.8796 54.8211 24.8796C55.9776 24.8796 56.8392 24.5781 57.4071 23.9749C57.9743 23.3511 58.2582 22.4049 58.2582 21.1363V13.2129C58.2582 12.6722 58.4369 12.2251 58.7944 11.8716C59.1514 11.4972 59.6035 11.3101 60.1502 11.3101Z" fill="#CBD2D9"/>
<path d="M73.422 10.9976C75.1038 10.9976 76.3438 11.4031 77.1429 12.2141C77.9415 13.0044 78.4673 14.0338 78.719 15.3023L78.1834 15.0216L78.4358 14.5226C78.6875 14.0441 79.0766 13.5347 79.6023 12.994C80.1275 12.4325 80.7583 11.9646 81.4938 11.5903C82.2509 11.1951 83.0915 10.9976 84.0167 10.9976C85.5303 10.9976 86.6758 11.3199 87.4533 11.9646C88.2524 12.6093 88.7987 13.4723 89.0931 14.5537C89.3875 15.6143 89.5347 16.7997 89.5347 18.1098V26.0956C89.5347 26.6363 89.356 27.0938 88.9985 27.4681C88.641 27.8217 88.1894 27.9986 87.6427 27.9986C87.0965 27.9986 86.6443 27.8217 86.2869 27.4681C85.9294 27.0938 85.7505 26.6363 85.7505 26.0956V18.1098C85.7505 17.4236 85.667 16.8101 85.4988 16.2694C85.3305 15.7078 85.0257 15.2608 84.5841 14.9281C84.1429 14.5953 83.5121 14.4289 82.6925 14.4289C81.8934 14.4289 81.2104 14.5953 80.6427 14.9281C80.075 15.2608 79.6444 15.7078 79.35 16.2694C79.0766 16.8101 78.9399 17.4236 78.9399 18.1098V26.0956C78.9399 26.6363 78.7611 27.0938 78.4041 27.4681C78.0467 27.8217 77.5946 27.9986 77.0483 27.9986C76.5016 27.9986 76.0495 27.8217 75.6925 27.4681C75.335 27.0938 75.1563 26.6363 75.1563 26.0956V18.1098C75.1563 17.4236 75.0721 16.8101 74.9039 16.2694C74.7357 15.7078 74.4308 15.2608 73.9897 14.9281C73.5481 14.5953 72.9172 14.4289 72.0976 14.4289C71.299 14.4289 70.6157 14.5953 70.0478 14.9281C69.4806 15.2608 69.0495 15.7078 68.7551 16.2694C68.4822 16.8101 68.3456 17.4236 68.3456 18.1098V26.0956C68.3456 26.6363 68.1669 27.0938 67.8094 27.4681C67.4519 27.8217 67.0003 27.9986 66.4536 27.9986C65.9067 27.9986 65.4552 27.8217 65.0977 27.4681C64.7401 27.0938 64.5615 26.6363 64.5615 26.0956V13.2123C64.5615 12.6717 64.7401 12.2245 65.0977 11.871C65.4552 11.4966 65.9067 11.3095 66.4536 11.3095C67.0003 11.3095 67.4519 11.4966 67.8094 11.871C68.1669 12.2245 68.3456 12.6717 68.3456 13.2123V14.5537L67.8724 14.4602C68.0616 14.1067 68.3245 13.7323 68.6605 13.3371C68.997 12.9212 69.407 12.5365 69.8907 12.1829C70.3738 11.8294 70.91 11.5487 71.4983 11.3407C72.0871 11.1119 72.7285 10.9976 73.422 10.9976Z" fill="#CBD2D9"/>
<path d="M95.6175 26.0963C95.6175 26.637 95.4388 27.0945 95.0813 27.4686C94.7243 27.8224 94.2722 27.9992 93.7255 27.9992C93.1792 27.9992 92.7271 27.8224 92.3695 27.4686C92.0126 27.0945 91.8339 26.637 91.8339 26.0963V13.2129C91.8339 12.6722 92.0126 12.2252 92.3695 11.8716C92.7271 11.4972 93.1792 11.3101 93.7255 11.3101C94.2722 11.3101 94.7243 11.4972 95.0813 11.8716C95.4388 12.2252 95.6175 12.6722 95.6175 13.2129V26.0963ZM93.6938 9.28247C92.9793 9.28247 92.4747 9.16809 92.1803 8.9393C91.8864 8.71056 91.7393 8.30504 91.7393 7.72274V7.13003C91.7393 6.52698 91.897 6.12141 92.2119 5.91348C92.5484 5.68474 93.053 5.57031 93.7255 5.57031C94.4614 5.57031 94.9766 5.68474 95.2705 5.91348C95.5649 6.14221 95.7121 6.54774 95.7121 7.13003V7.72274C95.7121 8.32585 95.5544 8.74177 95.2389 8.97051C94.924 9.1785 94.4088 9.28247 93.6938 9.28247Z" fill="#CBD2D9"/>
<path d="M106.946 10.9976C108.502 10.9976 109.679 11.3199 110.477 11.9646C111.297 12.6093 111.854 13.4723 112.148 14.5537C112.464 15.6143 112.622 16.7997 112.622 18.1098V26.0956C112.622 26.6363 112.443 27.0938 112.085 27.4681C111.728 27.8217 111.276 27.9986 110.73 27.9986C110.183 27.9986 109.731 27.8217 109.374 27.4681C109.016 27.0938 108.837 26.6363 108.837 26.0956V18.1098C108.837 17.4236 108.743 16.8101 108.554 16.2694C108.386 15.7078 108.07 15.2608 107.608 14.9281C107.146 14.5953 106.483 14.4289 105.622 14.4289C104.78 14.4289 104.066 14.5953 103.477 14.9281C102.91 15.2608 102.468 15.7078 102.153 16.2694C101.859 16.8101 101.711 17.4236 101.711 18.1098V26.0956C101.711 26.6363 101.533 27.0938 101.176 27.4681C100.818 27.8217 100.366 27.9986 99.8198 27.9986C99.2731 27.9986 98.821 27.8217 98.464 27.4681C98.1065 27.0938 97.9277 26.6363 97.9277 26.0956V13.2123C97.9277 12.6717 98.1065 12.2245 98.464 11.871C98.821 11.4966 99.2731 11.3095 99.8198 11.3095C100.366 11.3095 100.818 11.4966 101.176 11.871C101.533 12.2245 101.711 12.6717 101.711 13.2123V14.5537L101.239 14.4602C101.428 14.1067 101.701 13.7323 102.058 13.3371C102.416 12.9212 102.836 12.5365 103.32 12.1829C103.803 11.8294 104.35 11.5487 104.959 11.3407C105.569 11.1119 106.231 10.9976 106.946 10.9976Z" fill="#CBD2D9"/>
<path d="M131.342 19.6696C131.342 21.3748 130.954 22.8826 130.176 24.1928C129.419 25.4821 128.389 26.4907 127.086 27.2184C125.804 27.9466 124.364 28.3106 122.766 28.3106C121.168 28.3106 119.718 27.9466 118.415 27.2184C117.132 26.4907 116.103 25.4821 115.325 24.1928C114.568 22.8826 114.189 21.3748 114.189 19.6696C114.189 17.9643 114.568 16.467 115.325 15.1775C116.103 13.8675 117.132 12.8485 118.415 12.1206C119.718 11.3719 121.168 10.9976 122.766 10.9976C124.364 10.9976 125.804 11.3719 127.086 12.1206C128.389 12.8485 129.419 13.8675 130.176 15.1775C130.954 16.467 131.342 17.9643 131.342 19.6696ZM127.559 19.6696C127.559 18.609 127.338 17.6939 126.896 16.9245C126.476 16.1342 125.898 15.5208 125.162 15.084C124.447 14.6473 123.648 14.4289 122.766 14.4289C121.884 14.4289 121.074 14.6473 120.338 15.084C119.623 15.5208 119.045 16.1342 118.604 16.9245C118.183 17.6939 117.973 18.609 117.973 19.6696C117.973 20.7093 118.183 21.6244 118.604 22.4147C119.045 23.1841 119.623 23.7873 120.338 24.224C121.074 24.6607 121.884 24.8791 122.766 24.8791C123.648 24.8791 124.447 24.6607 125.162 24.224C125.898 23.7873 126.476 23.1841 126.896 22.4147C127.338 21.6244 127.559 20.7093 127.559 19.6696Z" fill="#CBD2D9"/>
<path d="M145.445 11.3101C145.991 11.3101 146.444 11.4972 146.801 11.8716C147.158 12.2251 147.337 12.6722 147.337 13.2129V21.1363C147.337 23.3407 146.717 25.0876 145.476 26.3769C144.237 27.6662 142.449 28.3112 140.116 28.3112C137.783 28.3112 135.996 27.6662 134.755 26.3769C133.536 25.0876 132.927 23.3407 132.927 21.1363V13.2129C132.927 12.6722 133.105 12.2251 133.463 11.8716C133.821 11.4972 134.272 11.3101 134.819 11.3101C135.366 11.3101 135.817 11.4972 136.175 11.8716C136.532 12.2251 136.71 12.6722 136.71 13.2129V21.1363C136.71 22.4049 136.994 23.3511 137.562 23.9749C138.13 24.5781 138.981 24.8796 140.116 24.8796C141.272 24.8796 142.134 24.5781 142.701 23.9749C143.269 23.3511 143.553 22.4049 143.553 21.1363V13.2129C143.553 12.6722 143.732 12.2251 144.089 11.8716C144.447 11.4972 144.898 11.3101 145.445 11.3101Z" fill="#CBD2D9"/>
<path d="M148.88 25.4094C148.669 25.1183 148.575 24.7439 148.596 24.2863C148.617 23.8288 148.89 23.4337 149.416 23.1009C149.752 22.893 150.109 22.8098 150.488 22.8515C150.866 22.8722 151.234 23.0594 151.591 23.4129C152.202 24.016 152.843 24.4839 153.515 24.8167C154.187 25.1494 155.028 25.3157 156.037 25.3157C156.353 25.295 156.7 25.2534 157.078 25.191C157.457 25.1079 157.782 24.9415 158.055 24.6919C158.35 24.4215 158.497 24.016 158.497 23.4753C158.497 23.0178 158.339 22.6539 158.024 22.3836C157.709 22.1131 157.289 21.8844 156.763 21.6972C156.258 21.51 155.691 21.3333 155.06 21.1669C154.408 20.9797 153.736 20.7719 153.042 20.543C152.369 20.3143 151.749 20.0231 151.182 19.6696C150.615 19.2952 150.151 18.8066 149.794 18.2035C149.437 17.6004 149.258 16.8412 149.258 15.9263C149.258 14.8864 149.553 14.0026 150.142 13.2747C150.729 12.5469 151.486 11.9854 152.411 11.5903C153.358 11.1951 154.345 10.9976 155.375 10.9976C156.028 10.9976 156.709 11.0807 157.425 11.2471C158.14 11.3927 158.823 11.6422 159.474 11.9958C160.126 12.3285 160.673 12.7756 161.113 13.3371C161.345 13.6491 161.482 14.0234 161.524 14.4602C161.566 14.8968 161.366 15.292 160.925 15.6456C160.61 15.895 160.242 16.0095 159.821 15.9886C159.401 15.9471 159.054 15.8015 158.781 15.5519C158.423 15.0944 157.941 14.7305 157.33 14.4602C156.741 14.1898 156.059 14.0546 155.281 14.0546C154.966 14.0546 154.619 14.0962 154.24 14.1793C153.883 14.2418 153.568 14.3978 153.294 14.6473C153.021 14.8761 152.885 15.2504 152.885 15.7702C152.885 16.2487 153.042 16.6333 153.358 16.9245C153.673 17.1949 154.093 17.4236 154.619 17.6108C155.165 17.7772 155.743 17.9435 156.353 18.1098C156.983 18.2762 157.624 18.4738 158.276 18.7025C158.928 18.9313 159.526 19.2328 160.073 19.6072C160.62 19.9815 161.062 20.4703 161.398 21.0733C161.734 21.6557 161.903 22.4043 161.903 23.3193C161.903 24.38 161.587 25.2846 160.957 26.0332C160.325 26.782 159.537 27.3537 158.591 27.7489C157.646 28.1234 156.678 28.3106 155.691 28.3106C154.45 28.3106 153.211 28.1026 151.97 27.6865C150.729 27.2496 149.7 26.4907 148.88 25.4094Z" fill="#CBD2D9"/>
</g>
<defs>
<clipPath id="clip0_18_22818">
<rect width="161.724" height="32.5862" fill="white" transform="translate(0.344727)"/>
</clipPath>
</defs>
</svg>
