<svg width="165" height="28" viewBox="0 0 165 28" fill="none" xmlns="http://www.w3.org/2000/svg">
<g clip-path="url(#clip0_18_22809)">
<path fill-rule="evenodd" clip-rule="evenodd" d="M17.2634 1.80859C14.6665 1.80859 12.5615 3.89123 12.5615 6.46025C12.5615 9.0293 14.6665 11.1119 17.2634 11.1119C19.8603 11.1119 21.9654 9.0293 21.9654 6.46025C21.9654 3.89123 19.8603 1.80859 17.2634 1.80859ZM8.07006 10.8581C12.9645 10.8581 16.9322 14.7834 16.9322 19.6255V26.8114H12.5242V19.6255C12.5242 19.1097 12.4346 18.6148 12.2701 18.1549L5.79531 24.5606L2.67833 21.4768L8.92241 15.2996C8.64653 15.2468 8.36155 15.219 8.07006 15.219H0.806641V10.8581H8.07006ZM26.5664 10.8581C21.6721 10.8581 17.7042 14.7834 17.7042 19.6255V26.8114H22.1122V19.6255C22.1122 19.2217 22.1673 18.8303 22.2701 18.4588L29.0432 25.1595L32.1603 22.0757L25.3872 15.3752C25.7627 15.2733 26.1582 15.219 26.5664 15.219H33.8298V10.8581H26.5664Z" fill="#CBD2D9"/>
<path d="M40.8818 27.0631V1.99707H48.0576L55.751 23.477H56.3059V1.99707H60.4116V27.0631H53.384L45.5052 5.54658H44.9875V27.0631H40.8818Z" fill="#CBD2D9"/>
<path d="M76.8602 23.7693L77.8958 23.6597L77.9699 26.6236C75.1587 27.1847 72.6682 27.4653 70.4983 27.4653C67.7612 27.4653 65.7884 26.721 64.5803 25.2332C63.3965 23.7448 62.8047 21.3664 62.8047 18.0975C62.8047 11.6083 65.4801 8.36377 70.8312 8.36377C76.0095 8.36377 78.5987 11.157 78.5987 16.7435L78.3399 19.5977H66.8734C66.898 21.1103 67.231 22.2203 67.8722 22.9276C68.5132 23.6352 69.7092 23.9887 71.4601 23.9887C73.2107 23.9887 75.0109 23.9158 76.8602 23.7693ZM74.641 16.5241C74.641 14.7187 74.345 13.4623 73.7532 12.755C73.1863 12.0231 72.2121 11.6571 70.8312 11.6571C69.4503 11.6571 68.4393 12.0352 67.7981 12.7915C67.1816 13.5478 66.8609 14.792 66.8366 16.5241H74.641Z" fill="#CBD2D9"/>
<path d="M90.576 12.1701H85.4714V20.2204C85.4714 21.7087 85.5824 22.6966 85.8044 23.1845C86.0262 23.6723 86.5933 23.9164 87.5059 23.9164L90.5389 23.8066L90.7237 26.99C89.0716 27.3072 87.8141 27.4659 86.9511 27.4659C84.8552 27.4659 83.4126 26.99 82.6235 26.0388C81.8588 25.0872 81.4768 23.2943 81.4768 20.6597V12.1701H79.1094V8.76691H81.4768V3.46094H85.4714V8.76691H90.576V12.1701Z" fill="#CBD2D9"/>
<path d="M90.5908 8.7666H94.5487L97.4706 23.6601H98.2103L101.724 9.13254H105.867L109.381 23.6601H110.121L113.006 8.7666H117L113.08 27.063H106.681L103.796 14.5117L100.911 27.063H94.5117L90.5908 8.7666Z" fill="#CBD2D9"/>
<path d="M119.573 10.7423C120.855 9.15662 122.976 8.36377 125.935 8.36377C128.893 8.36377 131.002 9.15662 132.259 10.7423C133.542 12.328 134.183 14.7065 134.183 17.878C134.183 21.0492 133.567 23.44 132.333 25.05C131.101 26.6603 128.968 27.4653 125.935 27.4653C122.902 27.4653 120.769 26.6603 119.536 25.05C118.303 23.44 117.687 21.0492 117.687 17.878C117.687 14.7065 118.315 12.328 119.573 10.7423ZM122.605 22.6349C123.173 23.6109 124.283 24.0987 125.935 24.0987C127.588 24.0987 128.697 23.6109 129.264 22.6349C129.831 21.6592 130.115 20.0614 130.115 17.8413C130.115 15.6213 129.806 14.0478 129.19 13.1208C128.598 12.1937 127.513 11.7303 125.935 11.7303C124.357 11.7303 123.26 12.1937 122.643 13.1208C122.052 14.0478 121.755 15.6213 121.755 17.8413C121.755 20.0614 122.038 21.6592 122.605 22.6349Z" fill="#CBD2D9"/>
<path d="M136.34 27.0627V8.76628H140.335V10.9619C142.43 9.62012 144.526 8.75408 146.623 8.36377V12.3525C144.502 12.7671 142.689 13.3039 141.186 13.9625L140.371 14.2918V27.0627H136.34Z" fill="#CBD2D9"/>
<path d="M151.886 27.0635H147.855V1.15576H151.886V16.1222L154.181 15.9027L158.545 8.76707H163.058L157.731 17.3299L163.353 27.0635H158.803L154.292 19.3422L151.886 19.5985V27.0635Z" fill="#CBD2D9"/>
</g>
<defs>
<clipPath id="clip0_18_22809">
<rect width="164.138" height="27.7586" fill="white" transform="translate(0.0683594)"/>
</clipPath>
</defs>
</svg>
