<svg width="158" height="34" viewBox="0 0 158 34" fill="none" xmlns="http://www.w3.org/2000/svg">
<g clip-path="url(#clip0_18_22789)">
<path d="M127.13 2.66016V31.2474H131.359V2.66016H127.13Z" fill="#CBD2D9"/>
<path fill-rule="evenodd" clip-rule="evenodd" d="M88.889 31.7083C87.22 31.7083 85.8259 31.3238 84.7064 30.5546C84.5838 30.4707 84.4649 30.3831 84.3489 30.2922V31.2469H80.6172V3.12109H84.8775V15.1701C85.9227 14.5054 87.1871 14.173 88.6712 14.173C90.2778 14.173 91.6771 14.5524 92.8692 15.3112C94.0614 16.07 94.9838 17.1109 95.6366 18.4338C96.3001 19.7464 96.6316 21.2487 96.6316 22.9405C96.6316 24.6019 96.3053 26.0939 95.6522 27.417C95.0098 28.7396 94.1078 29.7856 92.9471 30.5546C91.7861 31.3238 90.4335 31.7083 88.889 31.7083ZM84.722 20.2951C84.473 21.0537 84.3489 21.9355 84.3489 22.9405C84.3489 23.9455 84.473 24.8276 84.722 25.5862C84.9706 26.3453 85.3751 26.9346 85.9345 27.3554C86.5047 27.7758 87.2615 27.9858 88.2047 27.9858C89.1168 27.9858 89.8633 27.7603 90.4439 27.3092C91.0244 26.8581 91.4544 26.2529 91.7341 25.4939C92.0141 24.725 92.1539 23.874 92.1539 22.9405C92.1539 22.0176 92.009 21.1768 91.7186 20.4182C91.4284 19.6489 90.9777 19.0387 90.366 18.5876C89.7647 18.1262 88.9923 17.8954 88.0491 17.8954C87.1681 17.8954 86.4528 18.1057 85.9037 18.526C85.3647 18.9465 84.9706 19.5361 84.722 20.2951Z" fill="#CBD2D9"/>
<path d="M73.9311 21.4329V31.2468H78.16V20.3257C78.16 18.5105 77.6677 17.0442 76.683 15.9263C75.7087 14.7984 74.2628 14.2344 72.3453 14.2344C71.2256 14.2344 70.2047 14.4805 69.2822 14.9726C68.4376 15.4189 67.7484 16.0323 67.215 16.8127C66.8171 16.1045 66.2673 15.5219 65.5661 15.065C64.7266 14.5112 63.6486 14.2344 62.3323 14.2344C61.1816 14.2344 60.1399 14.4855 59.207 14.9881C58.5021 15.372 57.906 15.8608 57.4189 16.4543V14.6342H53.6875V31.2468H57.9475V21.1869C57.9475 20.2334 58.212 19.459 58.7407 18.8643C59.2797 18.2593 59.9894 17.9568 60.8705 17.9568C61.7933 17.9568 62.5134 18.2644 63.0318 18.8797C63.5604 19.4847 63.8249 20.336 63.8249 21.4329V31.2468H68.0538V21.1869C68.0538 20.5512 68.173 19.9922 68.4116 19.5103C68.6603 19.0182 69.0022 18.6387 69.4379 18.3721C69.8731 18.0952 70.3862 17.9568 70.9771 17.9568C71.8996 17.9568 72.6197 18.2644 73.138 18.8797C73.6667 19.4847 73.9311 20.336 73.9311 21.4329Z" fill="#CBD2D9"/>
<path d="M38.5351 31.0779C39.3643 31.5188 40.4371 31.7394 41.7537 31.7394C43.4016 31.7394 44.7649 31.3858 45.8429 30.678C46.3545 30.3457 46.8054 29.964 47.1954 29.5341V31.2472H50.9272V14.6348H46.6668V23.064C46.6668 24.0894 46.5476 24.9199 46.3093 25.5559C46.0811 26.1814 45.7859 26.6582 45.4228 26.9863C45.0601 27.3044 44.6715 27.5195 44.257 27.6324C43.8424 27.7453 43.4535 27.8018 43.0908 27.8018C42.189 27.8018 41.4892 27.6017 40.9916 27.2018C40.5045 26.8019 40.1522 26.3046 39.9344 25.7097C39.7169 25.1149 39.5873 24.5252 39.5458 23.9407C39.5043 23.3461 39.4835 22.859 39.4835 22.4794V14.6348H35.1924V23.956C35.1924 24.2331 35.2128 24.674 35.2543 25.2791C35.2958 25.8841 35.4151 26.5556 35.6121 27.2941C35.8089 28.022 36.1357 28.7246 36.5917 29.4015C37.0581 30.0781 37.706 30.637 38.5351 31.0779Z" fill="#CBD2D9"/>
<path d="M98.498 14.6344V31.247H102.758V22.7562C102.758 22.1203 102.846 21.5511 103.023 21.0487C103.199 20.5359 103.458 20.095 103.8 19.7259C104.142 19.3465 104.562 19.0439 105.059 18.8183C105.557 18.5825 106.112 18.4441 106.723 18.403C107.345 18.3517 107.889 18.3979 108.355 18.5415V14.6344C107.848 14.573 107.34 14.5627 106.832 14.6037C106.324 14.6344 105.831 14.7216 105.355 14.8651C104.878 14.9985 104.437 15.1882 104.033 15.4343C103.504 15.742 103.059 16.1317 102.696 16.6033C102.524 16.8266 102.369 17.0615 102.229 17.3077V14.6344H98.498Z" fill="#CBD2D9"/>
<path fill-rule="evenodd" clip-rule="evenodd" d="M117.261 31.7087C115.54 31.7087 114.021 31.3448 112.705 30.6166C111.399 29.8784 110.373 28.8684 109.627 27.5863C108.89 26.2944 108.522 24.8178 108.522 23.1564C108.522 21.3415 108.885 19.7622 109.611 18.4187C110.336 17.0754 111.337 16.0345 112.612 15.2962C113.886 14.5476 115.353 14.1733 117.012 14.1733C118.774 14.1733 120.272 14.5836 121.505 15.4039C122.739 16.2242 123.651 17.3779 124.241 18.8648C124.833 20.3519 125.04 22.1001 124.864 24.1101H113.073C113.205 25.1073 113.518 25.9173 114.011 26.5403C114.695 27.3815 115.695 27.8019 117.012 27.8019C117.841 27.8019 118.551 27.6223 119.142 27.2635C119.733 26.9046 120.184 26.3868 120.494 25.7098L124.724 26.9097C124.092 28.4274 123.091 29.6065 121.723 30.4473C120.365 31.2883 118.878 31.7087 117.261 31.7087ZM119.857 18.9263C120.218 19.4121 120.461 20.1045 120.585 21.0028H113.184C113.349 20.2357 113.624 19.605 114.011 19.111C114.695 18.2393 115.758 17.8034 117.198 17.8034C118.432 17.8034 119.318 18.1778 119.857 18.9263Z" fill="#CBD2D9"/>
<path d="M134.776 31.2474V2.66016H139.007V31.2474H134.776Z" fill="#CBD2D9"/>
<path fill-rule="evenodd" clip-rule="evenodd" d="M143.714 31.0319C144.554 31.483 145.575 31.7087 146.777 31.7087C148.228 31.7087 149.425 31.4625 150.369 30.9702C151.121 30.5741 151.831 29.9869 152.499 29.2081V31.2473H156.2V21.0951C156.2 20.3365 156.168 19.6493 156.105 19.0341C156.044 18.4187 155.847 17.8034 155.515 17.1882C154.924 16.0807 154.054 15.3013 152.903 14.8502C151.752 14.3989 150.437 14.1733 148.953 14.1733C146.933 14.1733 145.336 14.6041 144.164 15.4654C142.994 16.3268 142.196 17.4445 141.771 18.8187L145.596 20.0183C145.865 19.2597 146.337 18.7315 147.01 18.4342C147.684 18.1368 148.332 17.9881 148.953 17.9881C150.073 17.9881 150.871 18.2189 151.348 18.6803C151.723 19.0427 151.95 19.5661 152.031 20.2512C151.314 20.3584 150.636 20.4604 149.996 20.5567C148.907 20.7107 147.932 20.8749 147.073 21.049C146.212 21.2234 145.471 21.4235 144.849 21.649C143.947 21.977 143.227 22.3875 142.688 22.8797C142.158 23.3616 141.776 23.9201 141.537 24.556C141.299 25.1919 141.18 25.8945 141.18 26.6635C141.18 27.5863 141.392 28.4322 141.817 29.2015C142.253 29.9602 142.885 30.5704 143.714 31.0319ZM149.638 28.0169C149.109 28.2838 148.456 28.4171 147.679 28.4171C147.191 28.4171 146.771 28.3453 146.419 28.2017C146.068 28.058 145.792 27.8531 145.596 27.5863C145.409 27.3096 145.316 26.9812 145.316 26.6018C145.316 26.3252 145.372 26.0737 145.487 25.8484C145.61 25.6226 145.797 25.4178 146.046 25.233C146.305 25.0381 146.642 24.8588 147.057 24.6946C147.419 24.5612 147.839 24.438 148.316 24.3255C148.793 24.2127 149.42 24.0894 150.198 23.9561C150.697 23.8641 151.295 23.7589 151.991 23.6413C151.981 23.9338 151.965 24.2643 151.939 24.633C151.908 25.2279 151.783 25.7509 151.566 26.202C151.452 26.4377 151.234 26.7301 150.913 27.0787C150.602 27.4272 150.177 27.7402 149.638 28.0169Z" fill="#CBD2D9"/>
<path fill-rule="evenodd" clip-rule="evenodd" d="M11.8526 14.7545H0.368164V19.7023C0.368164 27.0903 6.42215 33.0797 13.8901 33.0797C21.3581 33.0797 27.4123 27.0903 27.4123 19.7023V14.7545H15.5573V6.87465C15.5573 3.73724 12.9863 1.19385 9.81502 1.19385C6.64368 1.19385 4.07281 3.73724 4.07281 6.87465H7.77745C7.77745 5.76136 8.68974 4.85888 9.81502 4.85888C10.9403 4.85888 11.8526 5.76136 11.8526 6.87465V14.7545ZM11.8526 18.4195V25.383H15.5573V18.4195H23.7076V19.7023C23.7076 25.0665 19.3121 29.4147 13.8901 29.4147C8.46819 29.4147 4.07281 25.0665 4.07281 19.7023V18.4195H11.8526Z" fill="#CBD2D9"/>
</g>
<defs>
<clipPath id="clip0_18_22789">
<rect width="156.897" height="33.7931" fill="white" transform="translate(0.207031)"/>
</clipPath>
</defs>
</svg>
