<svg width="169" height="35" viewBox="0 0 169 35" fill="none" xmlns="http://www.w3.org/2000/svg">
<g clip-path="url(#clip0_18_22776)">
<path d="M0 23.3566L11.9626 18.0894L18.848 22.0398L20.239 35.0001L11.7539 34.9306L13.0058 25.9208L11.5453 25.0892L4.38161 30.634L0 23.3566Z" fill="#CBD2D9" fill-opacity="0.2"/>
<path d="M19.6133 21.4847L30.185 29.1775L34.3579 21.7619L25.8726 18.3658V16.7025L34.3579 13.2371L30.185 5.89062L19.6133 13.5837V21.4847Z" fill="#CBD2D9" fill-opacity="0.6"/>
<path d="M18.848 12.9604L20.239 0L11.7539 0.138573L13.0058 9.14849L11.5453 9.98017L4.31207 4.4356L0 11.6435L11.9626 16.9108L18.848 12.9604Z" fill="#CBD2D9"/>
<path d="M62.666 15.9466V28.0885H67.2325V12.6147H60.582V15.9466H62.666Z" fill="#CBD2D9"/>
<path d="M62.525 10.4407C62.9437 10.8736 63.581 11.09 64.4372 11.09C65.2939 11.09 65.9213 10.8736 66.3207 10.4407C66.7398 9.98874 66.9486 9.42395 66.9486 8.74649C66.9486 8.04984 66.7398 7.4851 66.3207 7.05222C65.9213 6.60049 65.2939 6.37451 64.4372 6.37451C63.581 6.37451 62.9437 6.60049 62.525 7.05222C62.1256 7.4851 61.9258 8.04984 61.9258 8.74649C61.9258 9.42395 62.1256 9.98874 62.525 10.4407Z" fill="#CBD2D9"/>
<path d="M46.7682 27.7496C48.0618 28.3331 49.6507 28.6251 51.5342 28.6251C53.304 28.6251 54.8259 28.3517 56.1012 27.8061C57.3761 27.2603 58.3557 26.4977 59.0407 25.5188C59.7451 24.521 60.0968 23.3634 60.0968 22.0456C60.0968 20.7655 59.7644 19.6831 59.0983 18.7983C58.4509 17.8948 57.5477 17.1889 56.3864 16.6807C55.2257 16.1535 53.8844 15.824 52.362 15.6923L50.7638 15.5511C49.8123 15.4757 49.1273 15.2218 48.7087 14.7887C48.2901 14.3558 48.0807 13.8474 48.0807 13.2641C48.0807 12.8121 48.1953 12.398 48.4229 12.0216C48.6517 11.6262 48.9939 11.3156 49.4507 11.0896C49.9265 10.8639 50.5069 10.7508 51.1919 10.7508C51.9146 10.7508 52.5143 10.8825 52.99 11.1462C53.0947 11.2019 53.1942 11.2615 53.2875 11.3247L53.3102 11.3404C53.345 11.3643 53.3794 11.3891 53.413 11.414C53.7019 11.6326 53.9319 11.8915 54.1031 12.1909C54.3501 12.6051 54.4747 13.0662 54.4747 13.5746H59.0407C59.0407 12.2191 58.7267 11.0425 58.0992 10.0449C57.4713 9.02845 56.5674 8.24725 55.3878 7.70116C54.2267 7.13642 52.8284 6.854 51.1919 6.854C49.6313 6.854 48.2807 7.11776 47.1387 7.64476C45.9973 8.15312 45.103 8.88726 44.4561 9.84716C43.8277 10.8072 43.5137 11.9463 43.5137 13.2641C43.5137 15.0899 44.1327 16.5582 45.3694 17.669C46.606 18.7796 48.2617 19.4196 50.3358 19.5889L51.9057 19.7301C53.18 19.8432 54.1031 20.0974 54.6741 20.4925C55.2446 20.8691 55.5302 21.3867 55.5302 22.0456C55.5302 22.3484 55.4803 22.6324 55.3799 22.8976C55.3054 23.0946 55.2035 23.2812 55.0739 23.4576C54.7688 23.8526 54.3219 24.1633 53.7321 24.3895C53.1423 24.6153 52.4097 24.7281 51.5342 24.7281C50.5639 24.7281 49.7742 24.5966 49.1655 24.3326C48.5564 24.0505 48.1 23.6833 47.795 23.2317C47.5098 22.7797 47.3674 22.2904 47.3674 21.7631H42.8291C42.8291 23.0998 43.162 24.2854 43.8277 25.321C44.4939 26.3378 45.474 27.147 46.7682 27.7496Z" fill="#CBD2D9"/>
<path d="M77.4203 28.2865C75.841 28.2865 74.5662 28.0981 73.5959 27.7217C72.6252 27.3262 71.9118 26.6769 71.455 25.7734C71.0175 24.8509 70.7987 23.6088 70.7987 22.0461V15.9187H68.4297V12.615H70.7987V8.43604H75.0513V12.615H79.6183V15.9187H75.0513V22.2157C75.0513 22.9499 75.2418 23.5146 75.6222 23.9096C76.0215 24.286 76.5831 24.4745 77.3063 24.4745H79.6183V28.2865H77.4203Z" fill="#CBD2D9"/>
<path fill-rule="evenodd" clip-rule="evenodd" d="M85.1167 27.947C86.1441 28.3985 87.3242 28.6248 88.6561 28.6248C89.9686 28.6248 91.1297 28.3985 92.1382 27.947C93.1467 27.495 93.9841 26.8644 94.6497 26.0552C95.3159 25.2455 95.7633 24.3229 95.991 23.2878H91.7955C91.6055 23.7581 91.2439 24.1536 90.7111 24.4735C90.1783 24.7936 89.4928 24.9535 88.6561 24.9535C88.1375 24.9535 87.674 24.8929 87.2657 24.7717C86.955 24.6793 86.6764 24.552 86.4298 24.3892C85.8589 24.0123 85.4402 23.4852 85.1738 22.8078C85.0999 22.6147 85.0366 22.4129 84.9834 22.2025C84.9292 21.9895 84.8853 21.7678 84.8523 21.537H96.2767V20.0123C96.2767 18.6003 95.9722 17.3016 95.3635 16.1157C94.7544 14.9106 93.8694 13.9412 92.7092 13.207C91.5674 12.4541 90.159 12.0776 88.4845 12.0776C87.2096 12.0776 86.0677 12.3036 85.0593 12.7553C84.0706 13.1882 83.2427 13.7812 82.5766 14.5342C81.9109 15.2871 81.397 16.1438 81.0349 17.104C80.6926 18.0449 80.5215 19.0332 80.5215 20.0686V20.6333C80.5215 21.6312 80.6926 22.61 81.0349 23.5702C81.397 24.5113 81.9109 25.3677 82.5766 26.1397C83.2616 26.8924 84.1079 27.495 85.1167 27.947ZM84.931 18.7449C84.9438 18.6852 84.957 18.6263 84.9716 18.5683C85.0111 18.4087 85.0569 18.2557 85.1088 18.1095C85.138 18.0263 85.1691 17.9451 85.2026 17.8663C85.4879 17.1697 85.9065 16.6426 86.4581 16.285C86.6646 16.1513 86.8881 16.0427 87.128 15.959C87.5316 15.8187 87.9842 15.7484 88.4845 15.7484C89.2652 15.7484 89.9115 15.9274 90.4254 16.285C90.9581 16.6238 91.358 17.1226 91.6243 17.7814C91.6461 17.8347 91.6663 17.8887 91.6861 17.9435C91.7177 18.0309 91.7469 18.1204 91.7742 18.2123C91.8143 18.3489 91.8497 18.4904 91.8808 18.6365C91.9035 18.7443 91.9228 18.8546 91.9402 18.9676H84.8872C84.9003 18.892 84.915 18.8179 84.931 18.7449Z" fill="#CBD2D9"/>
<path d="M98.1631 28.088V12.6143H101.788V16.5116C101.837 16.2798 101.893 16.0575 101.956 15.8443C102.01 15.6647 102.067 15.4914 102.13 15.3249C102.53 14.2707 103.129 13.4802 103.929 12.953C104.728 12.4072 105.707 12.1343 106.869 12.1343H107.068C108.248 12.1343 109.228 12.4072 110.008 12.953C110.807 13.4802 111.407 14.2707 111.806 15.3249L111.838 15.4046L111.865 15.4773C111.883 15.426 111.901 15.3752 111.92 15.3249C112.339 14.2707 112.948 13.4802 113.747 12.953C114.546 12.4072 115.526 12.1343 116.687 12.1343H116.887C118.066 12.1343 119.056 12.4072 119.855 12.953C120.673 13.4802 121.292 14.2707 121.71 15.3249C122.128 16.3792 122.338 17.697 122.338 19.2783V28.088H117.772V19.024C117.772 18.1768 117.543 17.4899 117.086 16.9628C116.649 16.4357 116.021 16.1721 115.203 16.1721C114.385 16.1721 113.738 16.4452 113.262 16.9911C112.786 17.518 112.548 18.2239 112.548 19.1088V28.088H107.953V19.024C107.953 18.1768 107.725 17.4899 107.268 16.9628C106.83 16.4357 106.212 16.1721 105.413 16.1721C104.575 16.1721 103.919 16.4452 103.443 16.9911C102.968 17.518 102.73 18.2239 102.73 19.1088V28.088H98.1631Z" fill="#CBD2D9"/>
<path fill-rule="evenodd" clip-rule="evenodd" d="M134.536 25.1078V28.0892H138.161V18.6017C138.161 17.1709 137.875 16.004 137.304 15.1003C136.733 14.1778 135.897 13.4909 134.793 13.039C133.709 12.5873 132.367 12.3613 130.769 12.3613C130.423 12.3613 130.061 12.3649 129.684 12.3724C129.461 12.377 129.233 12.3827 128.998 12.3894C128.371 12.4084 127.761 12.4365 127.172 12.4743L126.722 12.5043C126.491 12.5203 126.273 12.5358 126.068 12.5518C125.915 12.5636 125.769 12.5754 125.631 12.5873V16.3994C126.221 16.3616 126.877 16.3238 127.601 16.2864C127.802 16.2759 128.003 16.2661 128.202 16.2569C128.489 16.2438 128.773 16.2324 129.054 16.2224C129.275 16.2145 129.494 16.2075 129.713 16.2016C130.397 16.1826 130.949 16.1733 131.368 16.1733C132.205 16.1733 132.813 16.3709 133.195 16.7663C133.575 17.1616 133.766 17.7546 133.766 18.5453V18.6017H130.94C129.551 18.6017 128.324 18.7806 127.258 19.1383C126.192 19.4771 125.364 20.0135 124.776 20.7477C124.185 21.4631 123.89 22.3856 123.89 23.5151C123.89 24.5505 124.127 25.4446 124.603 26.1974C125.08 26.9316 125.735 27.4964 126.573 27.8914C127.429 28.2869 128.419 28.4847 129.542 28.4847C130.625 28.4847 131.539 28.2869 132.281 27.8914C133.043 27.4964 133.633 26.9316 134.051 26.1974C134.124 26.0738 134.193 25.9456 134.258 25.8122C134.349 25.6237 134.428 25.425 134.499 25.2174L134.536 25.1078ZM133.766 22.3573V21.1148H130.911C130.112 21.1148 129.494 21.3124 129.056 21.7078C128.638 22.0843 128.428 22.602 128.428 23.2608C128.428 23.571 128.481 23.8528 128.584 24.107C128.689 24.3616 128.846 24.5878 129.056 24.7856C129.494 25.1624 130.112 25.3504 130.911 25.3504C131.063 25.3504 131.211 25.3429 131.352 25.328C131.468 25.3164 131.581 25.2991 131.69 25.2772C131.9 25.2347 132.097 25.1746 132.281 25.0963C132.7 24.9082 133.043 24.5976 133.308 24.1643C133.575 23.7315 133.727 23.129 133.766 22.3573Z" fill="#CBD2D9"/>
<path d="M140.894 28.0878V12.6141H144.519V17.7217C144.693 16.2636 145.131 15.088 145.832 14.1953C146.783 13.0095 148.153 12.4165 149.942 12.4165H150.541V16.3131H149.4C148.143 16.3131 147.173 16.6519 146.489 17.3297C145.803 17.9885 145.46 18.9486 145.46 20.2097V28.0878H140.894Z" fill="#CBD2D9"/>
<path d="M156.333 20.8599H157.845L162.782 28.0884H167.92L161.659 19.2109L166.807 12.6147H162.012L156.333 19.9723V7.47559H151.766V28.0884H156.333V20.8599Z" fill="#CBD2D9"/>
</g>
<defs>
<clipPath id="clip0_18_22776">
<rect width="168.965" height="35" fill="white"/>
</clipPath>
</defs>
</svg>
