<svg width="173" height="33" viewBox="0 0 173 33" fill="none" xmlns="http://www.w3.org/2000/svg">
<path d="M55.9925 28.6524C53.5319 28.6524 51.3566 28.1743 49.4668 27.218C47.5769 26.2397 46.1159 24.8594 45.0832 23.0769C44.0505 21.2943 43.5342 19.1966 43.5342 16.7838C43.5342 14.3709 44.0505 12.2732 45.0832 10.4907C46.1159 8.68644 47.5769 7.30612 49.4668 6.34966C51.3566 5.37144 53.5319 4.88232 55.9925 4.88232C57.6626 4.88232 59.1348 5.05625 60.4091 5.40405C61.7058 5.73013 62.8921 6.25181 63.9685 6.96918V11.6972C63.002 10.9146 61.8925 10.3494 60.64 10.0016C59.4095 9.63203 58.0034 9.44728 56.4213 9.44728C54.9491 9.44728 53.6194 9.75161 52.433 10.3603C51.2686 10.9472 50.3458 11.7949 49.6646 12.9036C48.9834 14.0122 48.6426 15.3056 48.6426 16.7838C48.6426 18.2837 48.9504 19.5989 49.5654 20.7292C50.2029 21.8378 51.0926 22.6965 52.2352 23.3052C53.3777 23.9138 54.6963 24.2181 56.1904 24.2181C57.5526 24.2181 58.739 23.979 59.7498 23.5008V19.0989H56.0256V15.4469H64.5948V26.4355C62.4195 27.9136 59.5525 28.6524 55.9925 28.6524Z" fill="#CBD2D9"/>
<path d="M65.752 12.5123H70.5638V14.7622C71.2012 14.0014 72.0909 13.4253 73.2335 13.0341C74.3761 12.6211 75.6728 12.4146 77.1226 12.4146V16.1643C75.6066 16.1643 74.2662 16.3925 73.1017 16.8491C71.9593 17.3055 71.1681 18.0012 70.7286 18.9359V28.1637H65.752V12.5123Z" fill="#CBD2D9"/>
<path d="M86.6866 28.6521C83.6543 28.6521 81.2699 27.935 79.5342 26.5002C77.7985 25.0439 76.9307 23.0115 76.9307 20.4029C76.9307 17.816 77.6998 15.7727 79.2376 14.2728C80.7978 12.7729 83.0168 12.0229 85.8956 12.0229C87.785 12.0229 89.389 12.3707 90.7075 13.0664C92.0256 13.7619 93.0257 14.7292 93.7069 15.9684C94.3881 17.1856 94.7284 18.566 94.7284 20.1093V22.0984H81.6769C82.0285 24.0983 83.9177 25.0982 87.3455 25.0982C88.3562 25.0982 89.4001 25.0113 90.4765 24.8374C91.5535 24.6635 92.4874 24.4244 93.2786 24.12V27.5762C92.5094 27.9023 91.5205 28.1635 90.3118 28.3587C89.1035 28.5545 87.8948 28.6521 86.6866 28.6521ZM90.0151 18.9029C89.9496 17.8596 89.5537 17.0553 88.8289 16.4901C88.1039 15.9031 87.1038 15.6097 85.8295 15.6097C84.5771 15.6097 83.5881 15.9031 82.8632 16.4901C82.1383 17.077 81.7426 17.8813 81.6769 18.9029H90.0151Z" fill="#CBD2D9"/>
<path d="M104.93 28.6521C101.898 28.6521 99.5136 27.935 97.7779 26.5002C96.0422 25.0439 95.1738 23.0115 95.1738 20.4029C95.1738 17.816 95.943 15.7727 97.4813 14.2728C99.0411 12.7729 101.261 12.0229 104.139 12.0229C106.029 12.0229 107.633 12.3707 108.951 13.0664C110.269 13.7619 111.269 14.7292 111.95 15.9684C112.631 17.1856 112.972 18.566 112.972 20.1093V22.0984H99.9201C100.272 24.0983 102.162 25.0982 105.589 25.0982C106.6 25.0982 107.644 25.0113 108.72 24.8374C109.797 24.6635 110.731 24.4244 111.522 24.12V27.5762C110.753 27.9023 109.764 28.1635 108.555 28.3587C107.347 28.5545 106.139 28.6521 104.93 28.6521ZM108.259 18.9029C108.193 17.8596 107.797 17.0553 107.072 16.4901C106.347 15.9031 105.347 15.6097 104.073 15.6097C102.821 15.6097 101.832 15.9031 101.107 16.4901C100.381 17.077 99.9862 17.8813 99.9201 18.9029H108.259Z" fill="#CBD2D9"/>
<path d="M114.077 12.5121H118.889V14.4358C119.614 13.6316 120.471 13.0338 121.46 12.6425C122.471 12.2294 123.525 12.0229 124.624 12.0229C126.778 12.0229 128.382 12.599 129.436 13.7511C130.512 14.8814 131.052 16.414 131.052 18.3486V28.1635H126.074V18.9029C126.074 16.8813 125.129 15.8706 123.239 15.8706C122.404 15.8706 121.625 16.077 120.899 16.4901C120.175 16.8813 119.559 17.4683 119.054 18.2508V28.1635H114.077V12.5121Z" fill="#CBD2D9"/>
<path d="M135.442 10.0992C134.673 10.0992 134.025 9.84919 133.498 9.3492C132.97 8.84924 132.706 8.21885 132.706 7.45801C132.706 6.71895 132.97 6.09943 133.498 5.59943C134.025 5.07774 134.673 4.81689 135.442 4.81689C136.211 4.81689 136.859 5.07774 137.386 5.59943C137.914 6.09943 138.178 6.71895 138.178 7.45801C138.178 8.21885 137.914 8.84924 137.386 9.3492C136.859 9.84919 136.211 10.0992 135.442 10.0992ZM132.937 12.5121H137.948V28.1635H132.937V12.5121Z" fill="#CBD2D9"/>
<path d="M146.432 28.6521C145.246 28.6521 143.973 28.5218 142.61 28.2611C141.269 28.022 140.214 27.6743 139.446 27.2178V23.37C140.324 23.8918 141.379 24.3156 142.61 24.6417C143.84 24.9678 144.983 25.1308 146.038 25.1308C146.938 25.1308 147.598 25.0547 148.015 24.9025C148.432 24.7503 148.641 24.4678 148.641 24.0548C148.641 23.7287 148.52 23.4679 148.279 23.2723C148.038 23.0549 147.663 22.8701 147.158 22.7179C146.675 22.544 145.861 22.2941 144.719 21.968C143.379 21.5767 142.324 21.1854 141.555 20.7941C140.808 20.3811 140.236 19.8703 139.841 19.2616C139.467 18.653 139.28 17.8704 139.28 16.914C139.28 15.2836 139.928 14.0663 141.226 13.262C142.544 12.4359 144.324 12.0229 146.565 12.0229C147.663 12.0229 148.795 12.1425 149.96 12.3816C151.146 12.599 152.058 12.8925 152.695 13.262V17.0117C152.058 16.5987 151.224 16.2618 150.191 16.001C149.179 15.7401 148.191 15.6097 147.224 15.6097C146.323 15.6097 145.62 15.6966 145.114 15.8706C144.632 16.0444 144.389 16.3705 144.389 16.8488C144.389 17.2618 144.621 17.5769 145.082 17.7944C145.565 18.0118 146.455 18.2834 147.751 18.6095L148.41 18.7725C149.795 19.142 150.871 19.5551 151.64 20.0116C152.41 20.4463 152.948 20.9789 153.256 21.6093C153.586 22.2179 153.75 22.9896 153.75 23.9243C153.75 25.3592 153.123 26.5112 151.872 27.3809C150.619 28.2284 148.806 28.6521 146.432 28.6521Z" fill="#CBD2D9"/>
<path d="M154.902 4.06689H159.878V14.3054C160.627 13.5446 161.473 12.9794 162.416 12.6099C163.361 12.2186 164.373 12.0229 165.449 12.0229C167.603 12.0229 169.206 12.599 170.261 13.7511C171.338 14.8815 171.876 16.414 171.876 18.3487V28.1634H166.9V18.903C166.9 16.8813 165.954 15.8705 164.065 15.8705C163.23 15.8705 162.45 16.077 161.725 16.49C161 16.8813 160.384 17.4682 159.878 18.2508V28.1634H154.902V4.06689Z" fill="#CBD2D9"/>
<path fill-rule="evenodd" clip-rule="evenodd" d="M26.537 8.68068C26.537 12.8225 23.1433 16.1802 18.9567 16.1802C14.77 16.1802 11.3761 12.8225 11.3761 8.68068C11.3761 4.5388 14.77 1.18115 18.9567 1.18115C23.1433 1.18115 26.537 4.5388 26.537 8.68068ZM1.32364 15.6352C9.58252 15.0845 16.7803 21.2017 17.4508 29.3898C17.5203 30.2383 17.5169 31.0756 17.4461 31.8967C9.18714 32.4475 1.98929 26.3301 1.31883 18.1421C1.2494 17.2938 1.25271 16.4561 1.32364 15.6352ZM22.7896 31.61C31.066 30.9467 37.2494 23.8258 36.6927 15.6552C35.8628 15.5851 35.0163 15.5818 34.1587 15.6505C25.8822 16.3138 19.6989 23.4346 20.2556 31.6052C21.0853 31.6754 21.932 31.6788 22.7896 31.61Z" fill="#CBD2D9"/>
</svg>
