<svg width="48" height="48" viewBox="0 0 48 48" fill="none" xmlns="http://www.w3.org/2000/svg">
<path d="M15.7097 27.3548C16.2154 26.3454 16.5 25.2059 16.5 24C16.5 22.7941 16.2154 21.6546 15.7097 20.6452M15.7097 27.3548C14.4783 29.8127 11.9362 31.5 9 31.5C4.85786 31.5 1.5 28.1421 1.5 24C1.5 19.8579 4.85786 16.5 9 16.5C11.9362 16.5 14.4783 18.1873 15.7097 20.6452M15.7097 27.3548L32.2903 35.6452M15.7097 20.6452L32.2903 12.3548M32.2903 12.3548C33.5217 14.8127 36.0638 16.5 39 16.5C43.1421 16.5 46.5 13.1421 46.5 9C46.5 4.85786 43.1421 1.5 39 1.5C34.8579 1.5 31.5 4.85786 31.5 9C31.5 10.2059 31.7846 11.3454 32.2903 12.3548ZM32.2903 35.6452C31.7846 36.6546 31.5 37.7941 31.5 39C31.5 43.1421 34.8579 46.5 39 46.5C43.1421 46.5 46.5 43.1421 46.5 39C46.5 34.8579 43.1421 31.5 39 31.5C36.0638 31.5 33.5217 33.1873 32.2903 35.6452Z" stroke="white" stroke-width="3" stroke-linecap="round" stroke-linejoin="round"/>
</svg>
