<svg width="168" height="148" viewBox="0 0 168 148" fill="none" xmlns="http://www.w3.org/2000/svg">
<path d="M2.43076 65.3292C3.53076 65.5292 4.33078 66.6292 4.13078 67.7292C3.93078 68.8292 2.83075 69.6292 1.73075 69.4292C0.630751 69.2292 -0.169261 68.1292 0.0307392 67.0292C0.230739 65.8292 1.33076 65.1292 2.43076 65.3292Z" fill="#1AE5BE"/>
<path d="M2.43076 49.2296C3.53076 49.4296 4.33078 50.5296 4.13078 51.6296C3.93078 52.7296 2.83075 53.5296 1.73075 53.3296C0.630751 53.1296 -0.169261 52.0296 0.0307392 50.9296C0.230739 49.8296 1.33076 49.0296 2.43076 49.2296Z" fill="#1AE5BE"/>
<path d="M2.43076 33.2296C3.53076 33.4296 4.33078 34.5296 4.13078 35.6296C3.93078 36.7296 2.83075 37.5296 1.73075 37.3296C0.630751 37.1296 -0.169261 36.0296 0.0307392 34.9296C0.230739 33.7296 1.33076 32.9296 2.43076 33.2296Z" fill="#1AE5BE"/>
<path d="M2.43076 17.129C3.53076 17.329 4.33078 18.429 4.13078 19.529C3.93078 20.629 2.83075 21.429 1.73075 21.229C0.630751 21.029 -0.169261 19.929 0.0307392 18.829C0.230739 17.629 1.33076 16.929 2.43076 17.129Z" fill="#1AE5BE"/>
<path d="M2.43076 1.02944C3.53076 1.22944 4.33078 2.32946 4.13078 3.42946C3.93078 4.52946 2.83075 5.32942 1.73075 5.12942C0.630751 4.92942 -0.169261 3.82945 0.0307392 2.72945C0.230739 1.62945 1.33076 0.82944 2.43076 1.02944Z" fill="#1AE5BE"/>
<path d="M18.5929 65.3292C19.6929 65.5292 20.4929 66.6292 20.2929 67.7292C20.0929 68.8292 18.9929 69.6292 17.8929 69.4292C16.7929 69.2292 15.9928 68.1292 16.1928 67.0292C16.3928 65.8292 17.4929 65.1292 18.5929 65.3292Z" fill="#1AE5BE"/>
<path d="M18.5929 49.2296C19.6929 49.4296 20.4929 50.5296 20.2929 51.6296C20.0929 52.7296 18.9929 53.5296 17.8929 53.3296C16.7929 53.1296 15.9928 52.0296 16.1928 50.9296C16.3928 49.8296 17.4929 49.0296 18.5929 49.2296Z" fill="#1AE5BE"/>
<path d="M18.5929 33.2296C19.6929 33.4296 20.4929 34.5296 20.2929 35.6296C20.0929 36.7296 18.9929 37.5296 17.8929 37.3296C16.7929 37.1296 15.9928 36.0296 16.1928 34.9296C16.3928 33.7296 17.4929 32.9296 18.5929 33.2296Z" fill="#1AE5BE"/>
<path d="M18.5929 17.129C19.6929 17.329 20.4929 18.429 20.2929 19.529C20.0929 20.629 18.9929 21.429 17.8929 21.229C16.7929 21.029 15.9928 19.929 16.1928 18.829C16.3928 17.629 17.4929 16.929 18.5929 17.129Z" fill="#1AE5BE"/>
<path d="M18.5929 1.02944C19.6929 1.22944 20.4929 2.32946 20.2929 3.42946C20.0929 4.52946 18.9929 5.32942 17.8929 5.12942C16.7929 4.92942 15.9928 3.82945 16.1928 2.72945C16.3928 1.62945 17.4929 0.82944 18.5929 1.02944Z" fill="#1AE5BE"/>
<path d="M34.7539 65.3292C35.8539 65.5292 36.654 66.6292 36.454 67.7292C36.254 68.8292 35.1539 69.6292 34.0539 69.4292C32.9539 69.2292 32.154 68.1292 32.354 67.0292C32.554 65.8292 33.5539 65.1292 34.7539 65.3292Z" fill="#1AE5BE"/>
<path d="M34.7539 49.2296C35.8539 49.4296 36.654 50.5296 36.454 51.6296C36.254 52.7296 35.1539 53.5296 34.0539 53.3296C32.9539 53.1296 32.154 52.0296 32.354 50.9296C32.554 49.8296 33.5539 49.0296 34.7539 49.2296Z" fill="#1AE5BE"/>
<path d="M34.7539 33.2296C35.8539 33.4296 36.654 34.5296 36.454 35.6296C36.254 36.7296 35.1539 37.5296 34.0539 37.3296C32.9539 37.1296 32.154 36.0296 32.354 34.9296C32.554 33.7296 33.5539 32.9296 34.7539 33.2296Z" fill="#1AE5BE"/>
<path d="M34.7539 17.129C35.8539 17.329 36.654 18.429 36.454 19.529C36.254 20.629 35.1539 21.429 34.0539 21.229C32.9539 21.029 32.154 19.929 32.354 18.829C32.554 17.629 33.5539 16.929 34.7539 17.129Z" fill="#1AE5BE"/>
<path d="M34.7539 1.02944C35.8539 1.22944 36.654 2.32946 36.454 3.42946C36.254 4.52946 35.1539 5.32942 34.0539 5.12942C32.9539 4.92942 32.154 3.82945 32.354 2.72945C32.554 1.62945 33.5539 0.82944 34.7539 1.02944Z" fill="#1AE5BE"/>
<path d="M50.9151 65.3292C52.0151 65.5292 52.8151 66.6292 52.6151 67.7292C52.4151 68.8292 51.3151 69.6292 50.2151 69.4292C49.1151 69.2292 48.3151 68.1292 48.5151 67.0292C48.7151 65.8292 49.8151 65.1292 50.9151 65.3292Z" fill="#1AE5BE"/>
<path d="M50.9151 49.2296C52.0151 49.4296 52.8151 50.5296 52.6151 51.6296C52.4151 52.7296 51.3151 53.5296 50.2151 53.3296C49.1151 53.1296 48.3151 52.0296 48.5151 50.9296C48.7151 49.8296 49.8151 49.0296 50.9151 49.2296Z" fill="#1AE5BE"/>
<path d="M50.9151 33.2296C52.0151 33.4296 52.8151 34.5296 52.6151 35.6296C52.4151 36.7296 51.3151 37.5296 50.2151 37.3296C49.1151 37.1296 48.3151 36.0296 48.5151 34.9296C48.7151 33.7296 49.8151 32.9296 50.9151 33.2296Z" fill="#1AE5BE"/>
<path d="M50.9151 17.129C52.0151 17.329 52.8151 18.429 52.6151 19.529C52.4151 20.629 51.3151 21.429 50.2151 21.229C49.1151 21.029 48.3151 19.929 48.5151 18.829C48.7151 17.629 49.8151 16.929 50.9151 17.129Z" fill="#1AE5BE"/>
<path d="M50.9151 1.02944C52.0151 1.22944 52.8151 2.32946 52.6151 3.42946C52.4151 4.52946 51.3151 5.32942 50.2151 5.12942C49.1151 4.92942 48.3151 3.82945 48.5151 2.72945C48.7151 1.62945 49.8151 0.82944 50.9151 1.02944Z" fill="#1AE5BE"/>
<path d="M67.0772 65.3292C68.1772 65.5292 68.9772 66.6292 68.7772 67.7292C68.5772 68.8292 67.4772 69.6292 66.3772 69.4292C65.2772 69.2292 64.4772 68.1292 64.6772 67.0292C64.8772 65.8292 65.9772 65.1292 67.0772 65.3292Z" fill="#1AE5BE"/>
<path d="M67.0772 49.2296C68.1772 49.4296 68.9772 50.5296 68.7772 51.6296C68.5772 52.7296 67.4772 53.5296 66.3772 53.3296C65.2772 53.1296 64.4772 52.0296 64.6772 50.9296C64.8772 49.8296 65.9772 49.0296 67.0772 49.2296Z" fill="#1AE5BE"/>
<path d="M67.0772 33.2296C68.1772 33.4296 68.9772 34.5296 68.7772 35.6296C68.5772 36.7296 67.4772 37.5296 66.3772 37.3296C65.2772 37.1296 64.4772 36.0296 64.6772 34.9296C64.8772 33.7296 65.9772 32.9296 67.0772 33.2296Z" fill="#1AE5BE"/>
<path d="M67.0772 17.129C68.1772 17.329 68.9772 18.429 68.7772 19.529C68.5772 20.629 67.4772 21.429 66.3772 21.229C65.2772 21.029 64.4772 19.929 64.6772 18.829C64.8772 17.629 65.9772 16.929 67.0772 17.129Z" fill="#1AE5BE"/>
<path d="M67.0772 1.02944C68.1772 1.22944 68.9772 2.32946 68.7772 3.42946C68.5772 4.52946 67.4772 5.32942 66.3772 5.12942C65.2772 4.92942 64.4772 3.82945 64.6772 2.72945C64.8772 1.62945 65.9772 0.82944 67.0772 1.02944Z" fill="#1AE5BE"/>
<path d="M83.2384 65.3292C84.3384 65.5292 85.1383 66.6292 84.9383 67.7292C84.7383 68.8292 83.6384 69.6292 82.5384 69.4292C81.4384 69.2292 80.6384 68.1292 80.8384 67.0292C80.9384 65.8292 82.0384 65.1292 83.2384 65.3292Z" fill="#1AE5BE"/>
<path d="M83.2384 49.2296C84.3384 49.4296 85.1383 50.5296 84.9383 51.6296C84.7383 52.7296 83.6384 53.5296 82.5384 53.3296C81.4384 53.1296 80.6384 52.0296 80.8384 50.9296C80.9384 49.8296 82.0384 49.0296 83.2384 49.2296Z" fill="#1AE5BE"/>
<path d="M83.2384 33.2296C84.3384 33.4296 85.1383 34.5296 84.9383 35.6296C84.7383 36.7296 83.6384 37.5296 82.5384 37.3296C81.4384 37.1296 80.6384 36.0296 80.8384 34.9296C80.9384 33.7296 82.0384 32.9296 83.2384 33.2296Z" fill="#1AE5BE"/>
<path d="M83.2384 17.129C84.3384 17.329 85.1383 18.429 84.9383 19.529C84.7383 20.629 83.6384 21.429 82.5384 21.229C81.4384 21.029 80.6384 19.929 80.8384 18.829C80.9384 17.629 82.0384 16.929 83.2384 17.129Z" fill="#1AE5BE"/>
<path d="M83.2384 1.02944C84.3384 1.22944 85.1383 2.32946 84.9383 3.42946C84.7383 4.52946 83.6384 5.32942 82.5384 5.12942C81.4384 4.92942 80.6384 3.82945 80.8384 2.72945C80.9384 1.62945 82.0384 0.82944 83.2384 1.02944Z" fill="#1AE5BE"/>
<path d="M99.3995 65.3292C100.5 65.5292 101.299 66.6292 101.099 67.7292C100.899 68.8292 99.7995 69.6292 98.6995 69.4292C97.5995 69.2292 96.7995 68.1292 96.9995 67.0292C97.1995 65.8292 98.2995 65.1292 99.3995 65.3292Z" fill="#1AE5BE"/>
<path d="M99.3995 49.2296C100.5 49.4296 101.299 50.5296 101.099 51.6296C100.899 52.7296 99.7995 53.5296 98.6995 53.3296C97.5995 53.1296 96.7995 52.0296 96.9995 50.9296C97.1995 49.8296 98.2995 49.0296 99.3995 49.2296Z" fill="#1AE5BE"/>
<path d="M99.3995 33.2296C100.5 33.4296 101.299 34.5296 101.099 35.6296C100.899 36.7296 99.7995 37.5296 98.6995 37.3296C97.5995 37.1296 96.7995 36.0296 96.9995 34.9296C97.1995 33.7296 98.2995 32.9296 99.3995 33.2296Z" fill="#1AE5BE"/>
<path d="M99.3995 17.129C100.5 17.329 101.299 18.429 101.099 19.529C100.899 20.629 99.7995 21.429 98.6995 21.229C97.5995 21.029 96.7995 19.929 96.9995 18.829C97.1995 17.629 98.2995 16.929 99.3995 17.129Z" fill="#1AE5BE"/>
<path d="M99.3995 1.02944C100.5 1.22944 101.299 2.32946 101.099 3.42946C100.899 4.52946 99.7995 5.32942 98.6995 5.12942C97.5995 4.92942 96.7995 3.82945 96.9995 2.72945C97.1995 1.62945 98.2995 0.82944 99.3995 1.02944Z" fill="#1AE5BE"/>
<path d="M115.561 65.3292C116.661 65.5292 117.461 66.6292 117.261 67.7292C117.061 68.8292 115.961 69.6292 114.861 69.4292C113.761 69.2292 112.961 68.1292 113.161 67.0292C113.361 65.8292 114.461 65.1292 115.561 65.3292Z" fill="#1AE5BE"/>
<path d="M115.561 49.2296C116.661 49.4296 117.461 50.5296 117.261 51.6296C117.061 52.7296 115.961 53.5296 114.861 53.3296C113.761 53.1296 112.961 52.0296 113.161 50.9296C113.361 49.8296 114.461 49.0296 115.561 49.2296Z" fill="#1AE5BE"/>
<path d="M115.561 33.2296C116.661 33.4296 117.461 34.5296 117.261 35.6296C117.061 36.7296 115.961 37.5296 114.861 37.3296C113.761 37.1296 112.961 36.0296 113.161 34.9296C113.361 33.7296 114.461 32.9296 115.561 33.2296Z" fill="#1AE5BE"/>
<path d="M115.561 17.129C116.661 17.329 117.461 18.429 117.261 19.529C117.061 20.629 115.961 21.429 114.861 21.229C113.761 21.029 112.961 19.929 113.161 18.829C113.361 17.629 114.461 16.929 115.561 17.129Z" fill="#1AE5BE"/>
<path d="M115.561 1.02944C116.661 1.22944 117.461 2.32946 117.261 3.42946C117.061 4.52946 115.961 5.32942 114.861 5.12942C113.761 4.92942 112.961 3.82945 113.161 2.72945C113.361 1.62945 114.461 0.82944 115.561 1.02944Z" fill="#1AE5BE"/>
<path d="M131.976 65.3292C133.076 65.5292 133.876 66.6292 133.676 67.7292C133.476 68.8292 132.376 69.6292 131.276 69.4292C130.176 69.2292 129.376 68.1292 129.576 67.0292C129.776 65.8292 130.876 65.1292 131.976 65.3292Z" fill="#1AE5BE"/>
<path d="M133.776 51.3287C133.776 50.1689 132.836 49.2287 131.676 49.2287C130.516 49.2287 129.576 50.1689 129.576 51.3287C129.576 52.4885 130.516 53.4287 131.676 53.4287C132.836 53.4287 133.776 52.4885 133.776 51.3287Z" fill="#1AE5BE"/>
<path d="M133.736 34.9832C133.58 33.8341 132.521 33.0294 131.372 33.186C130.223 33.3426 129.418 34.4011 129.575 35.5502C129.731 36.6993 130.79 37.5039 131.939 37.3474C133.088 37.1908 133.893 36.1323 133.736 34.9832Z" fill="#1AE5BE"/>
<path d="M131.976 17.129C133.076 17.329 133.876 18.429 133.676 19.529C133.476 20.629 132.376 21.429 131.276 21.229C130.176 21.029 129.376 19.929 129.576 18.829C129.776 17.629 130.876 16.929 131.976 17.129Z" fill="#1AE5BE"/>
<path d="M131.976 1.02944C133.076 1.22944 133.876 2.32946 133.676 3.42946C133.476 4.52946 132.376 5.32942 131.276 5.12942C130.176 4.92942 129.376 3.82945 129.576 2.72945C129.776 1.62945 130.876 0.82944 131.976 1.02944Z" fill="#1AE5BE"/>
<path d="M148.805 65.3292C149.905 65.5292 150.705 66.6292 150.505 67.7292C150.305 68.8292 149.205 69.6292 148.105 69.4292C147.005 69.2292 146.205 68.1292 146.405 67.0292C146.605 65.8292 147.605 65.1292 148.805 65.3292Z" fill="#1AE5BE"/>
<path d="M150.505 51.3287C150.505 50.1689 149.564 49.2287 148.405 49.2287C147.245 49.2287 146.305 50.1689 146.305 51.3287C146.305 52.4885 147.245 53.4287 148.405 53.4287C149.564 53.4287 150.505 52.4885 150.505 51.3287Z" fill="#1AE5BE"/>
<path d="M150.465 34.9871C150.308 33.838 149.25 33.0333 148.101 33.1899C146.951 33.3465 146.147 34.405 146.303 35.5541C146.46 36.7032 147.518 37.5078 148.668 37.3513C149.817 37.1947 150.621 36.1362 150.465 34.9871Z" fill="#1AE5BE"/>
<path d="M148.805 17.129C149.905 17.329 150.705 18.429 150.505 19.529C150.305 20.629 149.205 21.429 148.105 21.229C147.005 21.029 146.205 19.929 146.405 18.829C146.605 17.629 147.605 16.929 148.805 17.129Z" fill="#1AE5BE"/>
<path d="M148.805 1.02944C149.905 1.22944 150.705 2.32946 150.505 3.42946C150.305 4.52946 149.205 5.32942 148.105 5.12942C147.005 4.92942 146.205 3.82945 146.405 2.72945C146.605 1.62945 147.605 0.82944 148.805 1.02944Z" fill="#1AE5BE"/>
<path d="M165.533 65.3292C166.633 65.5292 167.433 66.6292 167.233 67.7292C167.033 68.8292 165.933 69.6292 164.833 69.4292C163.733 69.2292 162.933 68.1292 163.133 67.0292C163.333 65.8292 164.433 65.1292 165.533 65.3292Z" fill="#1AE5BE"/>
<path d="M167.233 51.3287C167.233 50.1689 166.293 49.2287 165.133 49.2287C163.973 49.2287 163.033 50.1689 163.033 51.3287C163.033 52.4885 163.973 53.4287 165.133 53.4287C166.293 53.4287 167.233 52.4885 167.233 51.3287Z" fill="#1AE5BE"/>
<path d="M167.193 34.992C167.037 33.8429 165.978 33.0382 164.829 33.1948C163.68 33.3514 162.875 34.4099 163.032 35.559C163.189 36.7081 164.247 37.5127 165.396 37.3562C166.545 37.1996 167.35 36.1411 167.193 34.992Z" fill="#1AE5BE"/>
<path d="M165.533 17.129C166.633 17.329 167.433 18.429 167.233 19.529C167.033 20.629 165.933 21.429 164.833 21.229C163.733 21.029 162.933 19.929 163.133 18.829C163.333 17.629 164.433 16.929 165.533 17.129Z" fill="#1AE5BE"/>
<path d="M165.533 1.02944C166.633 1.22944 167.433 2.32946 167.233 3.42946C167.033 4.52946 165.933 5.32942 164.833 5.12942C163.733 4.92942 162.933 3.82945 163.133 2.72945C163.333 1.62945 164.433 0.82944 165.533 1.02944Z" fill="#1AE5BE"/>
<path d="M2.43076 143.791C3.53076 143.991 4.33078 145.091 4.13078 146.191C3.93078 147.291 2.83075 148.091 1.73075 147.891C0.630751 147.691 -0.169261 146.591 0.0307392 145.491C0.230739 144.291 1.33076 143.591 2.43076 143.791Z" fill="#1AE5BE"/>
<path d="M2.43076 127.691C3.53076 127.891 4.33078 128.991 4.13078 130.091C3.93078 131.191 2.83075 131.991 1.73075 131.791C0.630751 131.591 -0.169261 130.491 0.0307392 129.391C0.230739 128.291 1.33076 127.491 2.43076 127.691Z" fill="#1AE5BE"/>
<path d="M2.43076 111.691C3.53076 111.891 4.33078 112.991 4.13078 114.091C3.93078 115.191 2.83075 115.991 1.73075 115.791C0.630751 115.591 -0.169261 114.491 0.0307392 113.391C0.230739 112.191 1.33076 111.391 2.43076 111.691Z" fill="#1AE5BE"/>
<path d="M2.43076 95.5904C3.53076 95.7904 4.33078 96.8904 4.13078 97.9904C3.93078 99.0904 2.83075 99.8905 1.73075 99.6905C0.630751 99.4905 -0.169261 98.3904 0.0307392 97.2904C0.230739 96.0904 1.33076 95.3904 2.43076 95.5904Z" fill="#1AE5BE"/>
<path d="M2.43076 79.4909C3.53076 79.6909 4.33078 80.7909 4.13078 81.8909C3.93078 82.9909 2.83075 83.7908 1.73075 83.5908C0.630751 83.3908 -0.169261 82.2909 0.0307392 81.1909C0.230739 80.0909 1.33076 79.2909 2.43076 79.4909Z" fill="#1AE5BE"/>
<path d="M18.5929 143.791C19.6929 143.991 20.4929 145.091 20.2929 146.191C20.0929 147.291 18.9929 148.091 17.8929 147.891C16.7929 147.691 15.9928 146.591 16.1928 145.491C16.3928 144.291 17.4929 143.591 18.5929 143.791Z" fill="#1AE5BE"/>
<path d="M18.5929 127.691C19.6929 127.891 20.4929 128.991 20.2929 130.091C20.0929 131.191 18.9929 131.991 17.8929 131.791C16.7929 131.591 15.9928 130.491 16.1928 129.391C16.3928 128.291 17.4929 127.491 18.5929 127.691Z" fill="#1AE5BE"/>
<path d="M18.5929 111.691C19.6929 111.891 20.4929 112.991 20.2929 114.091C20.0929 115.191 18.9929 115.991 17.8929 115.791C16.7929 115.591 15.9928 114.491 16.1928 113.391C16.3928 112.191 17.4929 111.391 18.5929 111.691Z" fill="#1AE5BE"/>
<path d="M18.5929 95.5904C19.6929 95.7904 20.4929 96.8904 20.2929 97.9904C20.0929 99.0904 18.9929 99.8905 17.8929 99.6905C16.7929 99.4905 15.9928 98.3904 16.1928 97.2904C16.3928 96.0904 17.4929 95.3904 18.5929 95.5904Z" fill="#1AE5BE"/>
<path d="M18.5929 79.4909C19.6929 79.6909 20.4929 80.7909 20.2929 81.8909C20.0929 82.9909 18.9929 83.7908 17.8929 83.5908C16.7929 83.3908 15.9928 82.2909 16.1928 81.1909C16.3928 80.0909 17.4929 79.2909 18.5929 79.4909Z" fill="#1AE5BE"/>
<path d="M34.7539 143.791C35.8539 143.991 36.654 145.091 36.454 146.191C36.254 147.291 35.1539 148.091 34.0539 147.891C32.9539 147.691 32.154 146.591 32.354 145.491C32.554 144.291 33.5539 143.591 34.7539 143.791Z" fill="#1AE5BE"/>
<path d="M34.7539 127.691C35.8539 127.891 36.654 128.991 36.454 130.091C36.254 131.191 35.1539 131.991 34.0539 131.791C32.9539 131.591 32.154 130.491 32.354 129.391C32.554 128.291 33.5539 127.491 34.7539 127.691Z" fill="#1AE5BE"/>
<path d="M34.7539 111.691C35.8539 111.891 36.654 112.991 36.454 114.091C36.254 115.191 35.1539 115.991 34.0539 115.791C32.9539 115.591 32.154 114.491 32.354 113.391C32.554 112.191 33.5539 111.391 34.7539 111.691Z" fill="#1AE5BE"/>
<path d="M34.7539 95.5904C35.8539 95.7904 36.654 96.8904 36.454 97.9904C36.254 99.0904 35.1539 99.8905 34.0539 99.6905C32.9539 99.4905 32.154 98.3904 32.354 97.2904C32.554 96.0904 33.5539 95.3904 34.7539 95.5904Z" fill="#1AE5BE"/>
<path d="M34.7539 79.4909C35.8539 79.6909 36.654 80.7909 36.454 81.8909C36.254 82.9909 35.1539 83.7908 34.0539 83.5908C32.9539 83.3908 32.154 82.2909 32.354 81.1909C32.554 80.0909 33.5539 79.2909 34.7539 79.4909Z" fill="#1AE5BE"/>
<path d="M50.9151 143.791C52.0151 143.991 52.8151 145.091 52.6151 146.191C52.4151 147.291 51.3151 148.091 50.2151 147.891C49.1151 147.691 48.3151 146.591 48.5151 145.491C48.7151 144.291 49.8151 143.591 50.9151 143.791Z" fill="#1AE5BE"/>
<path d="M50.9151 127.691C52.0151 127.891 52.8151 128.991 52.6151 130.091C52.4151 131.191 51.3151 131.991 50.2151 131.791C49.1151 131.591 48.3151 130.491 48.5151 129.391C48.7151 128.291 49.8151 127.491 50.9151 127.691Z" fill="#1AE5BE"/>
<path d="M50.9151 111.691C52.0151 111.891 52.8151 112.991 52.6151 114.091C52.4151 115.191 51.3151 115.991 50.2151 115.791C49.1151 115.591 48.3151 114.491 48.5151 113.391C48.7151 112.191 49.8151 111.391 50.9151 111.691Z" fill="#1AE5BE"/>
<path d="M50.9151 95.5904C52.0151 95.7904 52.8151 96.8904 52.6151 97.9904C52.4151 99.0904 51.3151 99.8905 50.2151 99.6905C49.1151 99.4905 48.3151 98.3904 48.5151 97.2904C48.7151 96.0904 49.8151 95.3904 50.9151 95.5904Z" fill="#1AE5BE"/>
<path d="M50.9151 79.4909C52.0151 79.6909 52.8151 80.7909 52.6151 81.8909C52.4151 82.9909 51.3151 83.7908 50.2151 83.5908C49.1151 83.3908 48.3151 82.2909 48.5151 81.1909C48.7151 80.0909 49.8151 79.2909 50.9151 79.4909Z" fill="#1AE5BE"/>
<path d="M67.0772 143.791C68.1772 143.991 68.9772 145.091 68.7772 146.191C68.5772 147.291 67.4772 148.091 66.3772 147.891C65.2772 147.691 64.4772 146.591 64.6772 145.491C64.8772 144.291 65.9772 143.591 67.0772 143.791Z" fill="#1AE5BE"/>
<path d="M67.0772 127.691C68.1772 127.891 68.9772 128.991 68.7772 130.091C68.5772 131.191 67.4772 131.991 66.3772 131.791C65.2772 131.591 64.4772 130.491 64.6772 129.391C64.8772 128.291 65.9772 127.491 67.0772 127.691Z" fill="#1AE5BE"/>
<path d="M67.0772 111.691C68.1772 111.891 68.9772 112.991 68.7772 114.091C68.5772 115.191 67.4772 115.991 66.3772 115.791C65.2772 115.591 64.4772 114.491 64.6772 113.391C64.8772 112.191 65.9772 111.391 67.0772 111.691Z" fill="#1AE5BE"/>
<path d="M67.0772 95.5904C68.1772 95.7904 68.9772 96.8904 68.7772 97.9904C68.5772 99.0904 67.4772 99.8905 66.3772 99.6905C65.2772 99.4905 64.4772 98.3904 64.6772 97.2904C64.8772 96.0904 65.9772 95.3904 67.0772 95.5904Z" fill="#1AE5BE"/>
<path d="M67.0772 79.4909C68.1772 79.6909 68.9772 80.7909 68.7772 81.8909C68.5772 82.9909 67.4772 83.7908 66.3772 83.5908C65.2772 83.3908 64.4772 82.2909 64.6772 81.1909C64.8772 80.0909 65.9772 79.2909 67.0772 79.4909Z" fill="#1AE5BE"/>
<path d="M83.2384 143.791C84.3384 143.991 85.1383 145.091 84.9383 146.191C84.7383 147.291 83.6384 148.091 82.5384 147.891C81.4384 147.691 80.6384 146.591 80.8384 145.491C80.9384 144.291 82.0384 143.591 83.2384 143.791Z" fill="#1AE5BE"/>
<path d="M83.2384 127.691C84.3384 127.891 85.1383 128.991 84.9383 130.091C84.7383 131.191 83.6384 131.991 82.5384 131.791C81.4384 131.591 80.6384 130.491 80.8384 129.391C80.9384 128.291 82.0384 127.491 83.2384 127.691Z" fill="#1AE5BE"/>
<path d="M83.2384 111.691C84.3384 111.891 85.1383 112.991 84.9383 114.091C84.7383 115.191 83.6384 115.991 82.5384 115.791C81.4384 115.591 80.6384 114.491 80.8384 113.391C80.9384 112.191 82.0384 111.391 83.2384 111.691Z" fill="#1AE5BE"/>
<path d="M83.2384 95.5904C84.3384 95.7904 85.1383 96.8904 84.9383 97.9904C84.7383 99.0904 83.6384 99.8905 82.5384 99.6905C81.4384 99.4905 80.6384 98.3904 80.8384 97.2904C80.9384 96.0904 82.0384 95.3904 83.2384 95.5904Z" fill="#1AE5BE"/>
<path d="M83.2384 79.4909C84.3384 79.6909 85.1383 80.7909 84.9383 81.8909C84.7383 82.9909 83.6384 83.7908 82.5384 83.5908C81.4384 83.3908 80.6384 82.2909 80.8384 81.1909C80.9384 80.0909 82.0384 79.2909 83.2384 79.4909Z" fill="#1AE5BE"/>
<path d="M99.3995 143.791C100.5 143.991 101.299 145.091 101.099 146.191C100.899 147.291 99.7995 148.091 98.6995 147.891C97.5995 147.691 96.7995 146.591 96.9995 145.491C97.1995 144.291 98.2995 143.591 99.3995 143.791Z" fill="#1AE5BE"/>
<path d="M99.3995 127.691C100.5 127.891 101.299 128.991 101.099 130.091C100.899 131.191 99.7995 131.991 98.6995 131.791C97.5995 131.591 96.7995 130.491 96.9995 129.391C97.1995 128.291 98.2995 127.491 99.3995 127.691Z" fill="#1AE5BE"/>
<path d="M99.3995 111.691C100.5 111.891 101.299 112.991 101.099 114.091C100.899 115.191 99.7995 115.991 98.6995 115.791C97.5995 115.591 96.7995 114.491 96.9995 113.391C97.1995 112.191 98.2995 111.391 99.3995 111.691Z" fill="#1AE5BE"/>
<path d="M99.3995 95.5904C100.5 95.7904 101.299 96.8904 101.099 97.9904C100.899 99.0904 99.7995 99.8905 98.6995 99.6905C97.5995 99.4905 96.7995 98.3904 96.9995 97.2904C97.1995 96.0904 98.2995 95.3904 99.3995 95.5904Z" fill="#1AE5BE"/>
<path d="M99.3995 79.4909C100.5 79.6909 101.299 80.7909 101.099 81.8909C100.899 82.9909 99.7995 83.7908 98.6995 83.5908C97.5995 83.3908 96.7995 82.2909 96.9995 81.1909C97.1995 80.0909 98.2995 79.2909 99.3995 79.4909Z" fill="#1AE5BE"/>
<path d="M115.561 143.791C116.661 143.991 117.461 145.091 117.261 146.191C117.061 147.291 115.961 148.091 114.861 147.891C113.761 147.691 112.961 146.591 113.161 145.491C113.361 144.291 114.461 143.591 115.561 143.791Z" fill="#1AE5BE"/>
<path d="M115.561 127.691C116.661 127.891 117.461 128.991 117.261 130.091C117.061 131.191 115.961 131.991 114.861 131.791C113.761 131.591 112.961 130.491 113.161 129.391C113.361 128.291 114.461 127.491 115.561 127.691Z" fill="#1AE5BE"/>
<path d="M115.561 111.691C116.661 111.891 117.461 112.991 117.261 114.091C117.061 115.191 115.961 115.991 114.861 115.791C113.761 115.591 112.961 114.491 113.161 113.391C113.361 112.191 114.461 111.391 115.561 111.691Z" fill="#1AE5BE"/>
<path d="M115.561 95.5904C116.661 95.7904 117.461 96.8904 117.261 97.9904C117.061 99.0904 115.961 99.8905 114.861 99.6905C113.761 99.4905 112.961 98.3904 113.161 97.2904C113.361 96.0904 114.461 95.3904 115.561 95.5904Z" fill="#1AE5BE"/>
<path d="M115.561 79.4909C116.661 79.6909 117.461 80.7909 117.261 81.8909C117.061 82.9909 115.961 83.7908 114.861 83.5908C113.761 83.3908 112.961 82.2909 113.161 81.1909C113.361 80.0909 114.461 79.2909 115.561 79.4909Z" fill="#1AE5BE"/>
<path d="M131.976 143.791C133.076 143.991 133.876 145.091 133.676 146.191C133.476 147.291 132.376 148.091 131.276 147.891C130.176 147.691 129.376 146.591 129.576 145.491C129.776 144.291 130.876 143.591 131.976 143.791Z" fill="#1AE5BE"/>
<path d="M133.776 129.79C133.776 128.63 132.836 127.69 131.676 127.69C130.516 127.69 129.576 128.63 129.576 129.79C129.576 130.95 130.516 131.89 131.676 131.89C132.836 131.89 133.776 130.95 133.776 129.79Z" fill="#1AE5BE"/>
<path d="M133.736 113.445C133.58 112.295 132.521 111.491 131.372 111.647C130.223 111.804 129.418 112.863 129.575 114.012C129.731 115.161 130.79 115.965 131.939 115.809C133.088 115.652 133.893 114.594 133.736 113.445Z" fill="#1AE5BE"/>
<path d="M131.976 95.5904C133.076 95.7904 133.876 96.8904 133.676 97.9904C133.476 99.0904 132.376 99.8905 131.276 99.6905C130.176 99.4905 129.376 98.3904 129.576 97.2904C129.776 96.0904 130.876 95.3904 131.976 95.5904Z" fill="#1AE5BE"/>
<path d="M131.976 79.4909C133.076 79.6909 133.876 80.7909 133.676 81.8909C133.476 82.9909 132.376 83.7908 131.276 83.5908C130.176 83.3908 129.376 82.2909 129.576 81.1909C129.776 80.0909 130.876 79.2909 131.976 79.4909Z" fill="#1AE5BE"/>
<path d="M148.805 143.791C149.905 143.991 150.705 145.091 150.505 146.191C150.305 147.291 149.205 148.091 148.105 147.891C147.005 147.691 146.205 146.591 146.405 145.491C146.605 144.291 147.605 143.591 148.805 143.791Z" fill="#1AE5BE"/>
<path d="M150.505 129.79C150.505 128.63 149.564 127.69 148.405 127.69C147.245 127.69 146.305 128.63 146.305 129.79C146.305 130.95 147.245 131.89 148.405 131.89C149.564 131.89 150.505 130.95 150.505 129.79Z" fill="#1AE5BE"/>
<path d="M150.465 113.449C150.308 112.299 149.25 111.495 148.101 111.651C146.951 111.808 146.147 112.866 146.303 114.016C146.46 115.165 147.518 115.969 148.668 115.813C149.817 115.656 150.621 114.598 150.465 113.449Z" fill="#1AE5BE"/>
<path d="M148.805 95.5904C149.905 95.7904 150.705 96.8904 150.505 97.9904C150.305 99.0904 149.205 99.8905 148.105 99.6905C147.005 99.4905 146.205 98.3904 146.405 97.2904C146.605 96.0904 147.605 95.3904 148.805 95.5904Z" fill="#1AE5BE"/>
<path d="M148.805 79.4909C149.905 79.6909 150.705 80.7909 150.505 81.8909C150.305 82.9909 149.205 83.7908 148.105 83.5908C147.005 83.3908 146.205 82.2909 146.405 81.1909C146.605 80.0909 147.605 79.2909 148.805 79.4909Z" fill="#1AE5BE"/>
<path d="M165.533 143.791C166.633 143.991 167.433 145.091 167.233 146.191C167.033 147.291 165.933 148.091 164.833 147.891C163.733 147.691 162.933 146.591 163.133 145.491C163.333 144.291 164.433 143.591 165.533 143.791Z" fill="#1AE5BE"/>
<path d="M167.233 129.79C167.233 128.63 166.293 127.69 165.133 127.69C163.973 127.69 163.033 128.63 163.033 129.79C163.033 130.95 163.973 131.89 165.133 131.89C166.293 131.89 167.233 130.95 167.233 129.79Z" fill="#1AE5BE"/>
<path d="M167.193 113.453C167.037 112.304 165.978 111.5 164.829 111.656C163.68 111.813 162.875 112.871 163.032 114.02C163.189 115.17 164.247 115.974 165.396 115.818C166.545 115.661 167.35 114.603 167.193 113.453Z" fill="#1AE5BE"/>
<path d="M165.533 95.5904C166.633 95.7904 167.433 96.8904 167.233 97.9904C167.033 99.0904 165.933 99.8905 164.833 99.6905C163.733 99.4905 162.933 98.3904 163.133 97.2904C163.333 96.0904 164.433 95.3904 165.533 95.5904Z" fill="#1AE5BE"/>
<path d="M165.533 79.4909C166.633 79.6909 167.433 80.7909 167.233 81.8909C167.033 82.9909 165.933 83.7908 164.833 83.5908C163.733 83.3908 162.933 82.2909 163.133 81.1909C163.333 80.0909 164.433 79.2909 165.533 79.4909Z" fill="#1AE5BE"/>
</svg>
