<svg width="70" height="60" viewBox="0 0 70 60" fill="none" xmlns="http://www.w3.org/2000/svg">
<rect x="30" y="10" width="40" height="40" rx="20" fill="#1AE5BE"/>
<path d="M25.8116 10.7933C26.8776 6.40224 33.1224 6.40224 34.1884 10.7933C34.8771 13.6298 38.1269 14.9759 40.6195 13.4571C44.4782 11.106 48.894 15.5218 46.5429 19.3805C45.0241 21.8731 46.3702 25.1229 49.2067 25.8116C53.5978 26.8776 53.5978 33.1224 49.2067 34.1884C46.3702 34.8771 45.0241 38.1269 46.5429 40.6195C48.894 44.4782 44.4782 48.894 40.6195 46.5429C38.1269 45.0241 34.8771 46.3702 34.1884 49.2067C33.1224 53.5978 26.8776 53.5978 25.8116 49.2067C25.1229 46.3702 21.8731 45.0241 19.3805 46.5429C15.5218 48.894 11.106 44.4782 13.4571 40.6195C14.9759 38.1269 13.6298 34.8771 10.7933 34.1884C6.40224 33.1224 6.40224 26.8776 10.7933 25.8116C13.6298 25.1229 14.9759 21.8731 13.4571 19.3805C11.106 15.5218 15.5218 11.106 19.3805 13.4571C21.8731 14.9759 25.1229 13.6298 25.8116 10.7933Z" stroke="#121212" stroke-width="3" stroke-linecap="round" stroke-linejoin="round"/>
<path d="M37.5 30C37.5 34.1421 34.1421 37.5 30 37.5C25.8579 37.5 22.5 34.1421 22.5 30C22.5 25.8579 25.8579 22.5 30 22.5C34.1421 22.5 37.5 25.8579 37.5 30Z" stroke="#121212" stroke-width="3" stroke-linecap="round" stroke-linejoin="round"/>
</svg>
