<svg width="70" height="60" viewBox="0 0 70 60" fill="none" xmlns="http://www.w3.org/2000/svg">
<rect x="30" width="40" height="40" rx="20" fill="#1AE5BE"/>
<path d="M29.9997 27.5C29.9997 36.293 27.4777 44.497 23.1177 51.428M14.5172 46.3259C14.5615 46.2514 14.6068 46.1772 14.6533 46.1034C18.0395 40.7203 19.9998 34.3544 19.9998 27.5C19.9998 21.9772 24.4769 17.5 29.9998 17.5C35.5226 17.5 39.9998 21.9772 39.9998 27.5C39.9998 30.0426 39.8267 32.5465 39.4916 35M34.198 52.1091C35.7273 49.0565 36.981 45.8422 37.9268 42.5M47.5241 45.3299C49.1367 39.6642 50 33.6829 50 27.5C50 16.4543 41.0457 7.5 30 7.5C26.3571 7.5 22.9417 8.47394 20 10.1756M7.5 38.4103C9.10165 35.1134 10 31.4116 10 27.5C10 23.8571 10.9739 20.4417 12.6756 17.5" stroke="#121212" stroke-width="3" stroke-linecap="round" stroke-linejoin="round"/>
</svg>
