<svg width="17" height="16" viewBox="0 0 17 16" fill="none" xmlns="http://www.w3.org/2000/svg">
<path fill-rule="evenodd" clip-rule="evenodd" d="M8.5 16C12.9183 16 16.5 12.4183 16.5 8C16.5 3.58172 12.9183 0 8.5 0C4.08172 0 0.5 3.58172 0.5 8C0.5 12.4183 4.08172 16 8.5 16ZM8.0547 5.16795C7.74784 4.96338 7.3533 4.94431 7.02814 5.11833C6.70298 5.29235 6.5 5.63121 6.5 6V10C6.5 10.3688 6.70298 10.7077 7.02814 10.8817C7.3533 11.0557 7.74784 11.0366 8.0547 10.8321L11.0547 8.83205C11.3329 8.64659 11.5 8.33435 11.5 8C11.5 7.66565 11.3329 7.35342 11.0547 7.16795L8.0547 5.16795Z" fill="white"/>
</svg>
