<svg width="60" height="60" viewBox="0 0 60 60" fill="none" xmlns="http://www.w3.org/2000/svg">
<circle cx="30" cy="30" r="30" fill="white"/>
<path d="M38.875 45.5H48.25V41.75C48.25 38.6434 45.7316 36.125 42.625 36.125C40.8332 36.125 39.2371 36.9627 38.207 38.2679M38.875 45.5H20.125M38.875 45.5V41.75C38.875 40.5196 38.638 39.3445 38.207 38.2679M20.125 45.5H10.75V41.75C10.75 38.6434 13.2684 36.125 16.375 36.125C18.1668 36.125 19.7629 36.9627 20.793 38.2679M20.125 45.5V41.75C20.125 40.5196 20.362 39.3445 20.793 38.2679M20.793 38.2679C22.1753 34.8144 25.5528 32.375 29.5 32.375C33.4472 32.375 36.8247 34.8144 38.207 38.2679M35.125 21.125C35.125 24.2316 32.6066 26.75 29.5 26.75C26.3934 26.75 23.875 24.2316 23.875 21.125C23.875 18.0184 26.3934 15.5 29.5 15.5C32.6066 15.5 35.125 18.0184 35.125 21.125ZM46.375 26.75C46.375 28.8211 44.6961 30.5 42.625 30.5C40.5539 30.5 38.875 28.8211 38.875 26.75C38.875 24.6789 40.5539 23 42.625 23C44.6961 23 46.375 24.6789 46.375 26.75ZM20.125 26.75C20.125 28.8211 18.4461 30.5 16.375 30.5C14.3039 30.5 12.625 28.8211 12.625 26.75C12.625 24.6789 14.3039 23 16.375 23C18.4461 23 20.125 24.6789 20.125 26.75Z" stroke="#3147FF" stroke-width="3" stroke-linecap="round" stroke-linejoin="round"/>
</svg>
