<svg width="34" height="28" viewBox="0 0 34 28" fill="none" xmlns="http://www.w3.org/2000/svg">
<path d="M24.5625 26.25H32.375V23.125C32.375 20.5362 30.2763 18.4375 27.6875 18.4375C26.1944 18.4375 24.8643 19.1356 24.0059 20.2233M24.5625 26.25H8.9375M24.5625 26.25V23.125C24.5625 22.0996 24.365 21.1204 24.0059 20.2233M8.9375 26.25H1.125V23.125C1.125 20.5362 3.22367 18.4375 5.8125 18.4375C7.30564 18.4375 8.63572 19.1356 9.49413 20.2233M8.9375 26.25V23.125C8.9375 22.0996 9.13504 21.1204 9.49413 20.2233M9.49413 20.2233C10.6461 17.3454 13.4606 15.3125 16.75 15.3125C20.0394 15.3125 22.8539 17.3454 24.0059 20.2233M21.4375 5.9375C21.4375 8.52633 19.3388 10.625 16.75 10.625C14.1612 10.625 12.0625 8.52633 12.0625 5.9375C12.0625 3.34867 14.1612 1.25 16.75 1.25C19.3388 1.25 21.4375 3.34867 21.4375 5.9375ZM30.8125 10.625C30.8125 12.3509 29.4134 13.75 27.6875 13.75C25.9616 13.75 24.5625 12.3509 24.5625 10.625C24.5625 8.89911 25.9616 7.5 27.6875 7.5C29.4134 7.5 30.8125 8.89911 30.8125 10.625ZM8.9375 10.625C8.9375 12.3509 7.53839 13.75 5.8125 13.75C4.08661 13.75 2.6875 12.3509 2.6875 10.625C2.6875 8.89911 4.08661 7.5 5.8125 7.5C7.53839 7.5 8.9375 8.89911 8.9375 10.625Z" stroke="#3147FF" stroke-width="2" stroke-linecap="round" stroke-linejoin="round"/>
</svg>
