<svg width="31" height="31" viewBox="0 0 31 31" fill="none" xmlns="http://www.w3.org/2000/svg">
<path d="M12.0992 23.5625H19.4007M15.7499 1.6875V3.25M25.6936 5.80631L24.5888 6.91117M29.8125 15.7499H28.25M3.25 15.7499H1.6875M6.91108 6.91116L5.80623 5.80631M10.2256 21.2743C7.17467 18.2233 7.17467 13.2767 10.2256 10.2258C13.2766 7.17479 18.2232 7.17479 21.2742 10.2258C24.3252 13.2767 24.3252 18.2233 21.2742 21.2743L20.4193 22.1291C19.4305 23.118 18.8749 24.4592 18.8749 25.8577V26.6875C18.8749 28.4134 17.4758 29.8125 15.7499 29.8125C14.024 29.8125 12.6249 28.4134 12.6249 26.6875V25.8577C12.6249 24.4592 12.0694 23.118 11.0805 22.1291L10.2256 21.2743Z" stroke="#121212" stroke-width="2" stroke-linecap="round" stroke-linejoin="round"/>
</svg>
