<svg width="60" height="60" viewBox="0 0 60 60" fill="none" xmlns="http://www.w3.org/2000/svg">
<circle cx="30" cy="30" r="30" fill="white"/>
<path d="M25.119 39.875H33.8808M29.4999 13.625V15.5M41.4323 18.5676L40.1065 19.8934M46.375 30.4999H44.5M14.5 30.4999H12.625M18.8933 19.8934L17.5675 18.5676M22.8708 37.1292C19.2096 33.468 19.2096 27.5321 22.8708 23.8709C26.5319 20.2098 32.4679 20.2098 36.129 23.8709C39.7902 27.5321 39.7902 33.468 36.129 37.1292L35.1032 38.155C33.9166 39.3416 33.2499 40.9511 33.2499 42.6293V43.625C33.2499 45.6961 31.571 47.375 29.4999 47.375C27.4288 47.375 25.7499 45.6961 25.7499 43.625V42.6293C25.7499 40.9511 25.0832 39.3416 23.8966 38.155L22.8708 37.1292Z" stroke="#3147FF" stroke-width="3" stroke-linecap="round" stroke-linejoin="round"/>
</svg>
